<?xml version="1.0" standalone="no"?>
<!DOCTYPE svg PUBLIC "-//W3C//DTD SVG 1.1//EN" "http://www.w3.org/Graphics/SVG/1.1/DTD/svg11.dtd" >
<svg xmlns="http://www.w3.org/2000/svg" xmlns:xlink="http://www.w3.org/1999/xlink" version="1.1">
<metadata>
This is a custom SVG webfont generated by Typotheque.
</metadata>
<defs>
<font id="typotheque_webfonts_service" horiz-adv-x="828" >
<font-face units-per-em="1000" ascent="780" descent="-220" />
<missing-glyph horiz-adv-x="261" />
<glyph unicode=" "  horiz-adv-x="261" />
<glyph unicode="&#x09;" horiz-adv-x="261" />
<glyph unicode="&#xa0;" horiz-adv-x="261" />
<glyph unicode="A" horiz-adv-x="671" d="M290 707h107l257 -707h-89l-94 264h-279l-105 -264h-87zM449 330l-110 319l-122 -319h232z" />
<glyph unicode="B" horiz-adv-x="636" d="M106 707h193q60 0 103.5 -13.5t71 -37t41 -56t13.5 -71.5q0 -57 -26.5 -97.5t-71.5 -56.5v-3q28 -5 54.5 -17.5t47.5 -33.5t34 -51t13 -69q0 -44 -13.5 -81t-43.5 -63.5t-77.5 -41.5t-115.5 -15h-223v707zM314 68q37 0 69.5 5t57.5 19.5t39.5 39.5t14.5 66q0 72 -53 102 t-143 30h-111v-262h126zM310 396q68 0 101 31t33 89q0 72 -43 99.5t-123 27.5h-90v-247h122z" />
<glyph unicode="C" horiz-adv-x="677" d="M427 -12q-88 0 -156 26.5t-115 74.5t-71.5 114.5t-24.5 145.5q0 82 24.5 150t71.5 116.5t114 75t153 26.5q78 0 126.5 -13t78.5 -27l-25 -66q-19 7 -38 13t-40 10.5t-45.5 7.5t-54.5 3q-56 0 -106.5 -15.5t-89 -50t-61.5 -89t-23 -131.5q0 -79 24 -135.5t64.5 -92.5 t94.5 -52.5t115 -16.5q50 0 91.5 7t74.5 19l20 -66q-17 -6 -36.5 -12.5t-43.5 -11t-54 -7.5t-68 -3z" />
<glyph unicode="D" horiz-adv-x="754" d="M106 707h191q85 0 157.5 -20.5t125.5 -63.5t82.5 -109.5t29.5 -157.5q0 -93 -27.5 -160.5t-78.5 -111t-123 -64t-160 -20.5h-197v707zM314 68q137 0 215 69.5t78 207.5q0 75 -22.5 130.5t-63.5 91.5t-99 54t-128 18h-106v-571h126z" />
<glyph unicode="E" horiz-adv-x="582" d="M106 707h396v-67h-314v-251h292v-68h-292v-253h337v-68h-419v707z" />
<glyph unicode="F" horiz-adv-x="569" d="M106 707h416v-67h-334v-271h312v-68h-312v-301h-82v707z" />
<glyph unicode="G" horiz-adv-x="711" d="M432 -12q-87 0 -156 25.5t-117 72.5t-73.5 113.5t-25.5 149.5q0 84 24 152t70.5 116t113.5 74t154 26q40 0 71 -3t55 -8.5t42.5 -12.5t35.5 -14l-23 -67q-17 6 -35 12t-39 10.5t-47 7.5t-58 3q-55 0 -105.5 -15.5t-88.5 -50t-61 -89t-23 -131.5q0 -79 24 -135.5 t64.5 -92.5t94.5 -53t114 -17q40 0 67 4.5t47 10.5v272h82v-325q-44 -15 -94 -25t-113 -10z" />
<glyph unicode="H" horiz-adv-x="764" d="M106 707h82v-318h388v318h82v-707h-82v321h-388v-321h-82v707z" />
<glyph unicode="I" horiz-adv-x="294" d="M106 707h82v-707h-82v707z" />
<glyph unicode="J" horiz-adv-x="295" d="M-37 -127q45 25 73.5 53.5t44.5 62t21.5 73.5t5.5 89v556h83v-554q0 -57 -7 -107t-27.5 -92.5t-58.5 -77.5t-100 -63z" />
<glyph unicode="K" horiz-adv-x="628" d="M214 370v15l280 322h104l-293 -327l313 -380h-108zM106 707h82v-707h-82v707z" />
<glyph unicode="L" horiz-adv-x="503" d="M106 707h82v-636h307v-71h-389v707z" />
<glyph unicode="M" horiz-adv-x="942" d="M106 707h111l242 -658l272 658h105v-707h-83v475l4 109h-3l-238 -584h-119l-211 586h-3l5 -98v-488h-82v707z" />
<glyph unicode="N" horiz-adv-x="770" d="M106 707h105l372 -614h2l-4 89v525h83v-707h-110l-367 605h-3l4 -73v-532h-82v707z" />
<glyph unicode="O" d="M406 -12q-83 0 -147 27t-108.5 75.5t-67.5 116t-23 148.5q0 83 25.5 150t73 114t114 72.5t147.5 25.5q85 0 150.5 -28t109 -77t66 -115.5t22.5 -143.5q0 -81 -25 -148t-71.5 -115.5t-113.5 -75t-152 -26.5zM409 56q70 0 122 23t86.5 63t51 94.5t16.5 117.5t-17.5 117 t-52 93.5t-84.5 62t-115 22.5q-68 0 -119.5 -22.5t-86 -62t-51.5 -93t-17 -115.5q0 -60 16.5 -114.5t50 -96t83.5 -65.5t117 -24z" />
<glyph unicode="P" horiz-adv-x="603" d="M106 707h230q106 0 167.5 -56.5t61.5 -164.5q0 -47 -16.5 -89t-51 -73.5t-87.5 -50t-126 -18.5h-33v69h39q42 0 76.5 9t59 27.5t38.5 48.5t14 72q0 81 -40 120t-124 39h-126v-640h-82v707z" />
<glyph unicode="Q" d="M789 -160h-41.5t-42.5 2q-37 2 -78.5 7t-88.5 22q-38 14 -69.5 23t-69.5 9v64q48 0 80 -8.5t57 -16.5q28 -10 51.5 -16t44 -9.5t40 -5t41.5 -1.5q17 -2 36 -2h40v-68zM406 -12q-83 0 -147 27t-108.5 75.5t-67.5 116t-23 148.5q0 83 25.5 150t73 114t114 72.5t147.5 25.5 q85 0 150.5 -28t109 -77t66 -115.5t22.5 -143.5q0 -81 -25 -148t-71.5 -115.5t-113.5 -75t-152 -26.5zM409 56q70 0 122 23t86.5 63t51 94.5t16.5 117.5t-17.5 117t-52 93.5t-84.5 62t-115 22.5q-68 0 -119.5 -22.5t-86 -62t-51.5 -93t-17 -115.5q0 -60 16.5 -114.5t50 -96 t83.5 -65.5t117 -24z" />
<glyph unicode="R" horiz-adv-x="691" d="M664 -12q-64 8 -112 47t-96 104l-105 147q-13 -2 -31.5 -3.5t-34.5 -1.5h-97v-281h-82v707h231q51 0 93 -12t72 -37.5t46.5 -64.5t16.5 -93q0 -62 -31 -114.5t-102 -79.5l95 -130q35 -46 70 -78t85 -47zM291 350q41 0 75.5 7t59.5 23.5t39 44t14 69.5q0 81 -41.5 113.5 t-122.5 32.5h-127v-290h103z" />
<glyph unicode="S" horiz-adv-x="542" d="M246 -12q-66 0 -116 15t-81 34l26 68q39 -20 80 -32.5t92 -12.5q29 0 58.5 6t53.5 20.5t39 37.5t15 57q0 44 -25.5 72t-64.5 48.5t-83.5 39t-83.5 44t-64.5 62.5t-25.5 95q0 43 17 75.5t46 54.5t67.5 33.5t80.5 11.5q60 0 101 -11t73 -28l-25 -64q-35 16 -70 25t-77 9 q-27 0 -51.5 -6t-43 -19t-29 -32.5t-10.5 -46.5q0 -40 26 -66t65 -47t84.5 -41t84.5 -46.5t65 -63.5t26 -93q0 -51 -20 -88t-54 -62t-79.5 -37t-96.5 -12z" />
<glyph unicode="T" horiz-adv-x="584" d="M251 637h-242v70h566v-70h-242v-637h-82v637z" />
<glyph unicode="U" horiz-adv-x="758" d="M379 -12q-51 0 -102 11.5t-91 40.5t-65 79t-25 127v461h83v-454q0 -58 17 -95.5t45.5 -59.5t64 -30.5t73.5 -8.5q41 0 78 10.5t64.5 35t43.5 66.5t16 105v431h81v-434q0 -85 -26.5 -140t-67.5 -87.5t-91 -45t-98 -12.5z" />
<glyph unicode="V" horiz-adv-x="664" d="M14 707h90l224 -642l252 642h83l-280 -707h-114z" />
<glyph unicode="W" horiz-adv-x="1037" d="M33 707h84l177 -657l193 483l-59 174h83l221 -656l210 656h80l-232 -707h-119l-149 437l-174 -437h-119z" />
<glyph unicode="X" horiz-adv-x="609" d="M259 374l-206 333h94l161 -267l172 267h89l-218 -331l234 -376h-96l-186 310l-199 -310h-94z" />
<glyph unicode="Y" horiz-adv-x="602" d="M258 268l-231 439h93l182 -366l196 366h88l-246 -439v-268h-82v268z" />
<glyph unicode="Z" horiz-adv-x="570" d="M42 71l374 565h-348v71h440v-65l-379 -571h400v-71h-487v71z" />
<glyph unicode="&#xc1;" horiz-adv-x="671" d="M290 707h107l257 -707h-89l-94 264h-279l-105 -264h-87zM449 330l-110 319l-122 -319h232zM257 799l219 84l21 -67l-224 -69z" />
<glyph unicode="&#xc2;" horiz-adv-x="671" d="M290 707h107l257 -707h-89l-94 264h-279l-105 -264h-87zM449 330l-110 319l-122 -319h232zM186 804l157 76l152 -74l-29 -55l-123 57l-129 -58z" />
<glyph unicode="&#xc0;" horiz-adv-x="671" d="M173 812l21 68l221 -80l-18 -53zM290 707h107l257 -707h-89l-94 264h-279l-105 -264h-87zM449 330l-110 319l-122 -319h232z" />
<glyph unicode="&#xc3;" horiz-adv-x="671" d="M290 707h107l257 -707h-89l-94 264h-279l-105 -264h-87zM449 330l-110 319l-122 -319h232zM405 754q-15 0 -30.5 6t-30.5 12.5t-30 12.5t-29 6q-18 0 -35 -5.5t-34 -18.5l-31 45q14 13 41 29.5t59 16.5q19 0 35.5 -6t31 -12.5t27.5 -12.5t26 -6q26 0 38.5 7t25.5 19 l31 -44q-11 -15 -34.5 -32t-60.5 -17z" />
<glyph unicode="&#xc7;" horiz-adv-x="677" d="M427 -12q-88 0 -156 26.5t-115 74.5t-71.5 114.5t-24.5 145.5q0 82 24.5 150t71.5 116.5t114 75t153 26.5q78 0 126.5 -13t78.5 -27l-25 -66q-19 7 -38 13t-40 10.5t-45.5 7.5t-54.5 3q-56 0 -106.5 -15.5t-89 -50t-61.5 -89t-23 -131.5q0 -79 24 -135.5t64.5 -92.5 t94.5 -52.5t115 -16.5q50 0 91.5 7t74.5 19l20 -66q-17 -6 -36.5 -12.5t-43.5 -11t-54 -7.5t-68 -3zM339 -195q32 20 45.5 38.5t13.5 38.5q0 16 -7 32.5t-17 34.5h77q8 -15 14 -32.5t6 -34.5q1 -33 -23 -65t-83 -57z" />
<glyph unicode="&#xc9;" horiz-adv-x="582" d="M224 799l219 84l21 -67l-224 -69zM106 707h396v-67h-314v-251h292v-68h-292v-253h337v-68h-419v707z" />
<glyph unicode="&#xca;" horiz-adv-x="582" d="M106 707h396v-67h-314v-251h292v-68h-292v-253h337v-68h-419v707zM152 804l157 76l152 -74l-29 -55l-123 57l-129 -58z" />
<glyph unicode="&#xcb;" horiz-adv-x="582" d="M152 805l58 58l57 -58l-57 -58zM349 805l57 58l58 -58l-58 -58zM106 707h396v-67h-314v-251h292v-68h-292v-253h337v-68h-419v707z" />
<glyph unicode="&#xc8;" horiz-adv-x="582" d="M164 812l21 68l221 -80l-18 -53zM106 707h396v-67h-314v-251h292v-68h-292v-253h337v-68h-419v707z" />
<glyph unicode="&#xcd;" horiz-adv-x="294" d="M106 707h82v-707h-82v707zM85 799l219 84l21 -67l-224 -69z" />
<glyph unicode="&#xce;" horiz-adv-x="294" d="M106 707h82v-707h-82v707zM-6 804l157 76l152 -74l-29 -55l-123 57l-129 -58z" />
<glyph unicode="&#xcf;" horiz-adv-x="294" d="M106 707h82v-707h-82v707zM-9 805l58 58l57 -58l-57 -58zM188 805l57 58l58 -58l-58 -58z" />
<glyph unicode="&#xd1;" horiz-adv-x="770" d="M455 754q-15 0 -30.5 6t-30.5 12.5t-30 12.5t-29 6q-18 0 -35 -5.5t-34 -18.5l-31 45q14 13 41 29.5t59 16.5q19 0 35.5 -6t31 -12.5t27.5 -12.5t26 -6q26 0 38.5 7t25.5 19l31 -44q-11 -15 -34.5 -32t-60.5 -17zM106 707h105l372 -614h2l-4 89v525h83v-707h-110 l-367 605h-3l4 -73v-532h-82v707z" />
<glyph unicode="&#xd6;" d="M253 805l58 58l57 -58l-57 -58zM450 805l57 58l58 -58l-58 -58zM406 -12q-83 0 -147 27t-108.5 75.5t-67.5 116t-23 148.5q0 83 25.5 150t73 114t114 72.5t147.5 25.5q85 0 150.5 -28t109 -77t66 -115.5t22.5 -143.5q0 -81 -25 -148t-71.5 -115.5t-113.5 -75t-152 -26.5z M409 56q70 0 122 23t86.5 63t51 94.5t16.5 117.5t-17.5 117t-52 93.5t-84.5 62t-115 22.5q-68 0 -119.5 -22.5t-86 -62t-51.5 -93t-17 -115.5q0 -60 16.5 -114.5t50 -96t83.5 -65.5t117 -24z" />
<glyph unicode="&#xd5;" d="M482 754q-15 0 -30.5 6t-30.5 12.5t-30 12.5t-29 6q-18 0 -35 -5.5t-34 -18.5l-31 45q14 13 41 29.5t59 16.5q19 0 35.5 -6t31 -12.5t27.5 -12.5t26 -6q26 0 38.5 7t25.5 19l31 -44q-11 -15 -34.5 -32t-60.5 -17zM406 -12q-83 0 -147 27t-108.5 75.5t-67.5 116t-23 148.5 q0 83 25.5 150t73 114t114 72.5t147.5 25.5q85 0 150.5 -28t109 -77t66 -115.5t22.5 -143.5q0 -81 -25 -148t-71.5 -115.5t-113.5 -75t-152 -26.5zM409 56q70 0 122 23t86.5 63t51 94.5t16.5 117.5t-17.5 117t-52 93.5t-84.5 62t-115 22.5q-68 0 -119.5 -22.5t-86 -62 t-51.5 -93t-17 -115.5q0 -60 16.5 -114.5t50 -96t83.5 -65.5t117 -24z" />
<glyph unicode="&#xd3;" d="M309 799l219 84l21 -67l-224 -69zM406 -12q-83 0 -147 27t-108.5 75.5t-67.5 116t-23 148.5q0 83 25.5 150t73 114t114 72.5t147.5 25.5q85 0 150.5 -28t109 -77t66 -115.5t22.5 -143.5q0 -81 -25 -148t-71.5 -115.5t-113.5 -75t-152 -26.5zM409 56q70 0 122 23t86.5 63 t51 94.5t16.5 117.5t-17.5 117t-52 93.5t-84.5 62t-115 22.5q-68 0 -119.5 -22.5t-86 -62t-51.5 -93t-17 -115.5q0 -60 16.5 -114.5t50 -96t83.5 -65.5t117 -24z" />
<glyph unicode="&#xd4;" d="M261 804l157 76l152 -74l-29 -55l-123 57l-129 -58zM406 -12q-83 0 -147 27t-108.5 75.5t-67.5 116t-23 148.5q0 83 25.5 150t73 114t114 72.5t147.5 25.5q85 0 150.5 -28t109 -77t66 -115.5t22.5 -143.5q0 -81 -25 -148t-71.5 -115.5t-113.5 -75t-152 -26.5zM409 56 q70 0 122 23t86.5 63t51 94.5t16.5 117.5t-17.5 117t-52 93.5t-84.5 62t-115 22.5q-68 0 -119.5 -22.5t-86 -62t-51.5 -93t-17 -115.5q0 -60 16.5 -114.5t50 -96t83.5 -65.5t117 -24z" />
<glyph unicode="&#xda;" horiz-adv-x="758" d="M298 799l219 84l21 -67l-224 -69zM379 -12q-51 0 -102 11.5t-91 40.5t-65 79t-25 127v461h83v-454q0 -58 17 -95.5t45.5 -59.5t64 -30.5t73.5 -8.5q41 0 78 10.5t64.5 35t43.5 66.5t16 105v431h81v-434q0 -85 -26.5 -140t-67.5 -87.5t-91 -45t-98 -12.5z" />
<glyph unicode="&#xdb;" horiz-adv-x="758" d="M379 -12q-51 0 -102 11.5t-91 40.5t-65 79t-25 127v461h83v-454q0 -58 17 -95.5t45.5 -59.5t64 -30.5t73.5 -8.5q41 0 78 10.5t64.5 35t43.5 66.5t16 105v431h81v-434q0 -85 -26.5 -140t-67.5 -87.5t-91 -45t-98 -12.5zM229 804l157 76l152 -74l-29 -55l-123 57l-129 -58 z" />
<glyph unicode="&#xd9;" horiz-adv-x="758" d="M220 812l21 68l221 -80l-18 -53zM379 -12q-51 0 -102 11.5t-91 40.5t-65 79t-25 127v461h83v-454q0 -58 17 -95.5t45.5 -59.5t64 -30.5t73.5 -8.5q41 0 78 10.5t64.5 35t43.5 66.5t16 105v431h81v-434q0 -85 -26.5 -140t-67.5 -87.5t-91 -45t-98 -12.5z" />
<glyph unicode="&#xdc;" horiz-adv-x="758" d="M224 805l58 58l57 -58l-57 -58zM421 805l57 58l58 -58l-58 -58zM379 -12q-51 0 -102 11.5t-91 40.5t-65 79t-25 127v461h83v-454q0 -58 17 -95.5t45.5 -59.5t64 -30.5t73.5 -8.5q41 0 78 10.5t64.5 35t43.5 66.5t16 105v431h81v-434q0 -85 -26.5 -140t-67.5 -87.5 t-91 -45t-98 -12.5z" />
<glyph unicode="&#x178;" horiz-adv-x="602" d="M258 268l-231 439h93l182 -366l196 366h88l-246 -439v-268h-82v268zM145 805l58 58l57 -58l-57 -58zM342 805l57 58l58 -58l-58 -58z" />
<glyph unicode="&#xc6;" horiz-adv-x="913" d="M362 707h471v-67h-314v-251h292v-68h-292v-253h338v-68h-420v311h-197l-161 -311h-93zM437 378v262h-28l-136 -262h164z" />
<glyph unicode="&#x152;" horiz-adv-x="1099" d="M406 -12q-83 0 -147 27t-108.5 75.5t-67.5 116t-23 148.5q0 84 26.5 151.5t74.5 114.5t115 72t149 25q60 0 109 -15.5t87 -41.5v46h396v-67h-312v-251h290v-68h-290v-253h337v-68h-421v53q-21 -14 -42.5 -26t-46.5 -20.5t-55.5 -13.5t-70.5 -5zM409 59q73 0 126 24.5 t86 67.5v403q-33 44 -84.5 68t-120.5 24q-68 0 -118.5 -22.5t-84.5 -61.5t-51 -92t-17 -114q0 -60 16.5 -113.5t49.5 -94.5t82.5 -65t115.5 -24z" />
<glyph unicode="a" horiz-adv-x="552" d="M206 -9q-75 0 -119 39.5t-44 114.5q0 51 20 83t51 50t68 25t70 8l130 2v70q0 33 -8 54t-23.5 33t-39.5 16.5t-56 4.5q-45 0 -79.5 -7t-68.5 -20l-18 62q32 14 76.5 24t100.5 10q90 0 141.5 -35.5t51.5 -115.5v-302q0 -15 5.5 -25t14 -15.5t19 -7.5t20.5 -2l-3 -61 q-10 -2 -22 -2q-18 0 -35.5 4t-32 12t-24.5 21.5t-13 31.5q-10 -8 -26.5 -20t-39.5 -23.5t-52 -20t-64 -8.5zM224 55q45 0 86 19t72 42v142l-131 -5q-64 -2 -98 -29.5t-34 -75.5t30 -70.5t75 -22.5z" />
<glyph unicode="b" horiz-adv-x="587" d="M254 -12q-48 0 -94 9t-79 21v736h78v-683q17 -5 47 -10.5t62 -5.5q48 0 82.5 17.5t57 49t33.5 75t11 96.5q0 36 -6 71.5t-23 64t-47 46t-78 17.5q-22 0 -40.5 -3.5t-34.5 -8.5l-7 58q15 8 38.5 13t55.5 5q109 0 166 -67t57 -200q0 -83 -21.5 -140.5t-59.5 -93t-89 -51.5 t-109 -16z" />
<glyph unicode="c" horiz-adv-x="497" d="M325 -12q-140 0 -206 67t-66 207q0 73 18 129t52 93.5t81.5 56.5t107.5 19q51 0 88 -11t57 -22l-24 -63q-17 7 -48 17t-73 10q-86 0 -132 -55t-46 -170q0 -51 10 -90t33.5 -65.5t61.5 -40.5t94 -14q36 0 60.5 5t50.5 12l12 -64q-25 -8 -55 -14.5t-76 -6.5z" />
<glyph unicode="d" horiz-adv-x="583" d="M272 -10q-32 0 -70.5 10.5t-71.5 40t-55 82.5t-22 138q0 78 20 134.5t56 93t86 54t109 17.5q25 0 47 -3t49 -11v208h79v-754h-79v52q-29 -26 -62.5 -44t-85.5 -18zM282 57q23 0 44 6.5t39 16t32 20t23 18.5v360q-11 5 -38 11t-63 6q-54 0 -89.5 -19.5t-57 -51.5 t-30.5 -73t-9 -85q0 -54 11.5 -93.5t32 -65t47.5 -38t58 -12.5z" />
<glyph unicode="e" horiz-adv-x="546" d="M313 -12q-60 0 -107.5 13.5t-81.5 45.5t-52 84.5t-18 130.5q0 80 18.5 136.5t50.5 92.5t75.5 52.5t93.5 16.5q105 0 153.5 -68t48.5 -205v-29h-360q1 -63 16.5 -102.5t41.5 -61.5t60.5 -30t73.5 -8q40 0 73.5 6.5t71.5 18.5l14 -64q-31 -13 -75.5 -21t-96.5 -8zM412 317 q0 84 -30.5 132.5t-97.5 48.5q-60 0 -101 -44.5t-48 -136.5h277z" />
<glyph unicode="f" horiz-adv-x="326" d="M111 482h-80v64h80v37q0 50 14 84.5t38 56.5t56 31.5t69 9.5q29 0 48 -3t36 -8l-14 -64q-11 3 -26 5.5t-43 2.5q-52 0 -75.5 -26t-23.5 -88v-38h117v-64h-117v-687h-79v687z" />
<glyph unicode="g" horiz-adv-x="580" d="M265 -230q-45 0 -92 8t-78 22l16 70q35 -12 75.5 -20.5t84.5 -8.5q30 0 57 6t47.5 21.5t32.5 43.5t12 72v55q-29 -23 -58 -34.5t-75 -11.5q-39 0 -80 9.5t-75 38.5t-56 81.5t-22 138.5q0 80 20 136.5t56 92.5t85.5 53t108.5 17q38 0 85 -6.5t88 -16.5v-570 q0 -100 -62.5 -148.5t-169.5 -48.5zM295 57q45 0 73 15.5t51 33.5v370q-11 3 -37 9t-63 6q-53 0 -89 -17t-57.5 -47t-31 -71t-9.5 -90q0 -56 11.5 -96t32.5 -65t51 -36.5t68 -11.5z" />
<glyph unicode="h" horiz-adv-x="602" d="M84 754h79v-271q17 12 37 25.5t44 25t52 18.5t61 7q58 0 91.5 -19.5t49.5 -50t20 -67t4 -70.5v-352h-76v336q0 36 -4 64t-15.5 48t-32.5 30.5t-55 10.5q-26 0 -50.5 -6.5t-46.5 -16t-41.5 -21.5t-37.5 -23v-422h-79v754z" />
<glyph unicode="i" horiz-adv-x="249" d="M84 546h80v-546h-80v546zM58 715l65 66l67 -66l-67 -67z" />
<glyph unicode="j" horiz-adv-x="249" d="M-20 -224q-22 0 -40.5 3.5t-29.5 8.5l14 64q11 -3 27.5 -5.5t29.5 -2.5q30 0 50 10t32 28t16.5 43.5t4.5 56.5v564h80v-565q0 -60 -14.5 -99.5t-39 -63t-58 -33t-72.5 -9.5zM58 715l65 66l67 -66l-67 -67z" />
<glyph unicode="k" horiz-adv-x="537" d="M503 -8q-14 1 -31.5 4.5t-38 14t-44.5 30t-50 52.5l-154 195l230 258h91l-232 -255l112 -138q38 -46 73 -70.5t61 -31.5zM84 754h79v-754h-79v754z" />
<glyph unicode="l" horiz-adv-x="247" d="M84 754h79v-754h-79v754z" />
<glyph unicode="m" horiz-adv-x="935" d="M84 546h79v-64q40 32 83.5 54.5t98.5 22.5q57 0 94 -23.5t51 -57.5q18 14 39 28.5t45.5 26t53 19t61.5 7.5q58 0 91.5 -19.5t50.5 -49.5t21 -67t4 -71v-352h-79v337q0 32 -3.5 59.5t-15 48t-33 32.5t-57.5 12q-48 0 -88.5 -20t-76.5 -46q6 -35 6 -71v-352h-78v337 q0 32 -3.5 60t-14.5 48.5t-31 32.5t-54 12q-45 0 -87 -21t-78 -50v-419h-79v546z" />
<glyph unicode="n" horiz-adv-x="602" d="M84 546h79v-62q21 16 42.5 29.5t44.5 24t49.5 16.5t58.5 6q58 0 91 -19.5t49.5 -50t20.5 -67.5t4 -71v-352h-77v337q0 35 -4 63.5t-15.5 48.5t-32.5 30.5t-56 10.5q-53 0 -95.5 -20.5t-79.5 -46.5v-423h-79v546z" />
<glyph unicode="o" horiz-adv-x="598" d="M296 -12q-113 0 -178 72t-65 207q0 71 18.5 125.5t51.5 92t80 56.5t104 19q117 0 177.5 -74t60.5 -210q0 -74 -19 -128t-52 -89.5t-78.5 -53t-99.5 -17.5zM301 53q49 0 81 19t50.5 50t25.5 70t7 79q0 39 -7 78.5t-25 72t-50 53t-82 20.5t-82.5 -20.5t-51.5 -52.5 t-26.5 -72t-7.5 -79q0 -42 8 -81.5t27.5 -69.5t52 -48.5t80.5 -18.5z" />
<glyph unicode="p" horiz-adv-x="590" d="M84 546h79v-45q36 25 73 41t87 16q99 0 156 -71t57 -205q0 -83 -22 -139t-58.5 -90t-85.5 -49t-103 -15q-26 0 -55.5 3t-48.5 6v-218h-79v766zM266 55q52 0 88.5 16.5t59 46t32.5 70.5t10 89q0 38 -7 76t-24 68.5t-45.5 49.5t-72.5 19q-24 0 -45.5 -5.5t-40 -13.5 t-33 -17t-25.5 -16v-372q12 -2 41.5 -6.5t61.5 -4.5z" />
<glyph unicode="q" horiz-adv-x="580" d="M420 22q-27 -15 -60 -23.5t-73 -8.5q-39 0 -80 11t-75.5 41t-56.5 83t-22 137q0 79 20.5 135.5t56.5 92.5t86 53t109 17q45 0 92 -9t82 -23v-748h-79v242zM294 57q38 0 73 10.5t53 21.5v387q-17 8 -43.5 13t-58.5 5q-54 0 -90 -18.5t-57.5 -49.5t-30.5 -72t-9 -86 q0 -111 44.5 -161t118.5 -50z" />
<glyph unicode="r" horiz-adv-x="387" d="M84 546h79v-73q9 15 24 30.5t34.5 27.5t44 19.5t53.5 7.5q24 0 40 -3.5t24 -5.5l-13 -67q-13 3 -27 5t-38 2q-25 0 -46.5 -8t-39.5 -20.5t-32 -28t-24 -30.5v-402h-79v546z" />
<glyph unicode="s" horiz-adv-x="448" d="M195 -12q-38 0 -80.5 7t-72.5 17l13 67q36 -11 73.5 -17.5t72.5 -6.5q60 0 95.5 22t35.5 63q0 30 -20.5 49.5t-51 34t-66 28t-66 33t-51 48.5t-20.5 74q0 37 14.5 66t39.5 48t59 29t72 10q32 0 70 -6.5t67 -19.5l-18 -63q-26 11 -58 17t-62 6q-57 0 -82 -23t-25 -57 q0 -31 20 -50.5t50.5 -34.5t66 -28.5t66 -33t50.5 -48.5t20 -74q0 -44 -19.5 -74t-50 -48.5t-68.5 -26.5t-74 -8z" />
<glyph unicode="t" horiz-adv-x="398" d="M270 -12q-38 0 -69 7.5t-52.5 26t-33 50.5t-11.5 80v327h-80v67h80v112h77v-112h171v-67h-170v-324q0 -58 25 -78t73 -20q23 0 49 5t43 11l14 -65q-21 -8 -54.5 -14t-61.5 -6z" />
<glyph unicode="u" horiz-adv-x="599" d="M241 -12q-56 0 -88.5 20t-48.5 50.5t-20 67.5t-4 72v348h78v-332q0 -32 2.5 -60t13 -49t31.5 -33t58 -12q26 0 51 6.5t47.5 16.5t42 22t35.5 23v418h76v-546h-76v64q-20 -14 -40 -27.5t-44 -24.5t-52 -17.5t-62 -6.5z" />
<glyph unicode="v" horiz-adv-x="515" d="M19 546h86l114 -375l36 -116l38 118l130 373h81l-197 -546h-109z" />
<glyph unicode="w" horiz-adv-x="877" d="M21 546h83l141 -489l148 489h101l130 -489l160 489h79l-188 -546h-106l-110 399l-17 75l-19 -74l-126 -400h-107z" />
<glyph unicode="x" horiz-adv-x="513" d="M212 279l-179 267h92l132 -211l133 211h88l-176 -265l190 -281h-95l-140 224l-142 -224h-93z" />
<glyph unicode="y" horiz-adv-x="511" d="M230 0h-37l-176 546h86l118 -390l31 -98l32 96l134 392h81l-267 -766h-76z" />
<glyph unicode="z" horiz-adv-x="500" d="M37 68l323 409h-297v69h387v-64l-325 -413h329v-69h-417v68z" />
<glyph unicode="&#xe1;" horiz-adv-x="552" d="M206 -9q-75 0 -119 39.5t-44 114.5q0 51 20 83t51 50t68 25t70 8l130 2v70q0 33 -8 54t-23.5 33t-39.5 16.5t-56 4.5q-45 0 -79.5 -7t-68.5 -20l-18 62q32 14 76.5 24t100.5 10q90 0 141.5 -35.5t51.5 -115.5v-302q0 -15 5.5 -25t14 -15.5t19 -7.5t20.5 -2l-3 -61 q-10 -2 -22 -2q-18 0 -35.5 4t-32 12t-24.5 21.5t-13 31.5q-10 -8 -26.5 -20t-39.5 -23.5t-52 -20t-64 -8.5zM224 55q45 0 86 19t72 42v142l-131 -5q-64 -2 -98 -29.5t-34 -75.5t30 -70.5t75 -22.5zM184 667l188 128l35 -56l-195 -121z" />
<glyph unicode="&#xe0;" horiz-adv-x="552" d="M206 -9q-75 0 -119 39.5t-44 114.5q0 51 20 83t51 50t68 25t70 8l130 2v70q0 33 -8 54t-23.5 33t-39.5 16.5t-56 4.5q-45 0 -79.5 -7t-68.5 -20l-18 62q32 14 76.5 24t100.5 10q90 0 141.5 -35.5t51.5 -115.5v-302q0 -15 5.5 -25t14 -15.5t19 -7.5t20.5 -2l-3 -61 q-10 -2 -22 -2q-18 0 -35.5 4t-32 12t-24.5 21.5t-13 31.5q-10 -8 -26.5 -20t-39.5 -23.5t-52 -20t-64 -8.5zM224 55q45 0 86 19t72 42v142l-131 -5q-64 -2 -98 -29.5t-34 -75.5t30 -70.5t75 -22.5zM141 739l35 60l189 -130l-31 -50z" />
<glyph unicode="&#xe2;" horiz-adv-x="552" d="M265 712l-129 -84l-34 46l166 113l152 -111l-35 -47zM206 -9q-75 0 -119 39.5t-44 114.5q0 51 20 83t51 50t68 25t70 8l130 2v70q0 33 -8 54t-23.5 33t-39.5 16.5t-56 4.5q-45 0 -79.5 -7t-68.5 -20l-18 62q32 14 76.5 24t100.5 10q90 0 141.5 -35.5t51.5 -115.5v-302 q0 -15 5.5 -25t14 -15.5t19 -7.5t20.5 -2l-3 -61q-10 -2 -22 -2q-18 0 -35.5 4t-32 12t-24.5 21.5t-13 31.5q-10 -8 -26.5 -20t-39.5 -23.5t-52 -20t-64 -8.5zM224 55q45 0 86 19t72 42v142l-131 -5q-64 -2 -98 -29.5t-34 -75.5t30 -70.5t75 -22.5z" />
<glyph unicode="&#xe3;" horiz-adv-x="552" d="M206 -9q-75 0 -119 39.5t-44 114.5q0 51 20 83t51 50t68 25t70 8l130 2v70q0 33 -8 54t-23.5 33t-39.5 16.5t-56 4.5q-45 0 -79.5 -7t-68.5 -20l-18 62q32 14 76.5 24t100.5 10q90 0 141.5 -35.5t51.5 -115.5v-302q0 -15 5.5 -25t14 -15.5t19 -7.5t20.5 -2l-3 -61 q-10 -2 -22 -2q-18 0 -35.5 4t-32 12t-24.5 21.5t-13 31.5q-10 -8 -26.5 -20t-39.5 -23.5t-52 -20t-64 -8.5zM224 55q45 0 86 19t72 42v142l-131 -5q-64 -2 -98 -29.5t-34 -75.5t30 -70.5t75 -22.5zM332 645q-18 0 -33.5 6t-30 12.5t-29.5 12.5t-31 6q-23 0 -37.5 -5.5 t-31.5 -19.5l-31 46q4 4 12 11.5t21 15t31 13t41 5.5q20 0 36 -6t30.5 -12.5t28 -12.5t28.5 -6q26 0 43 10t27 18l31 -44l-12.5 -12.5t-21.5 -16.5t-31 -14.5t-40 -6.5z" />
<glyph unicode="&#xe7;" horiz-adv-x="497" d="M325 -12q-140 0 -206 67t-66 207q0 73 18 129t52 93.5t81.5 56.5t107.5 19q51 0 88 -11t57 -22l-24 -63q-17 7 -48 17t-73 10q-86 0 -132 -55t-46 -170q0 -51 10 -90t33.5 -65.5t61.5 -40.5t94 -14q36 0 60.5 5t50.5 12l12 -64q-25 -8 -55 -14.5t-76 -6.5zM226 -195 q32 20 45.5 38.5t13.5 38.5q0 16 -7 32.5t-17 34.5h77q8 -15 14 -32.5t6 -34.5q1 -33 -23 -65t-83 -57z" />
<glyph unicode="&#xe9;" horiz-adv-x="546" d="M197 667l188 128l35 -56l-195 -121zM313 -12q-60 0 -107.5 13.5t-81.5 45.5t-52 84.5t-18 130.5q0 80 18.5 136.5t50.5 92.5t75.5 52.5t93.5 16.5q105 0 153.5 -68t48.5 -205v-29h-360q1 -63 16.5 -102.5t41.5 -61.5t60.5 -30t73.5 -8q40 0 73.5 6.5t71.5 18.5l14 -64 q-31 -13 -75.5 -21t-96.5 -8zM412 317q0 84 -30.5 132.5t-97.5 48.5q-60 0 -101 -44.5t-48 -136.5h277z" />
<glyph unicode="&#xe8;" horiz-adv-x="546" d="M313 -12q-60 0 -107.5 13.5t-81.5 45.5t-52 84.5t-18 130.5q0 80 18.5 136.5t50.5 92.5t75.5 52.5t93.5 16.5q105 0 153.5 -68t48.5 -205v-29h-360q1 -63 16.5 -102.5t41.5 -61.5t60.5 -30t73.5 -8q40 0 73.5 6.5t71.5 18.5l14 -64q-31 -13 -75.5 -21t-96.5 -8zM412 317 q0 84 -30.5 132.5t-97.5 48.5q-60 0 -101 -44.5t-48 -136.5h277zM154 739l35 60l189 -130l-31 -50z" />
<glyph unicode="&#xea;" horiz-adv-x="546" d="M278 712l-129 -84l-34 46l166 113l152 -111l-35 -47zM313 -12q-60 0 -107.5 13.5t-81.5 45.5t-52 84.5t-18 130.5q0 80 18.5 136.5t50.5 92.5t75.5 52.5t93.5 16.5q105 0 153.5 -68t48.5 -205v-29h-360q1 -63 16.5 -102.5t41.5 -61.5t60.5 -30t73.5 -8q40 0 73.5 6.5 t71.5 18.5l14 -64q-31 -13 -75.5 -21t-96.5 -8zM412 317q0 84 -30.5 132.5t-97.5 48.5q-60 0 -101 -44.5t-48 -136.5h277z" />
<glyph unicode="&#xeb;" horiz-adv-x="546" d="M125 716l56 56l56 -56l-56 -57zM322 716l56 56l56 -56l-56 -57zM313 -12q-60 0 -107.5 13.5t-81.5 45.5t-52 84.5t-18 130.5q0 80 18.5 136.5t50.5 92.5t75.5 52.5t93.5 16.5q105 0 153.5 -68t48.5 -205v-29h-360q1 -63 16.5 -102.5t41.5 -61.5t60.5 -30t73.5 -8 q40 0 73.5 6.5t71.5 18.5l14 -64q-31 -13 -75.5 -21t-96.5 -8zM412 317q0 84 -30.5 132.5t-97.5 48.5q-60 0 -101 -44.5t-48 -136.5h277z" />
<glyph unicode="&#xed;" horiz-adv-x="249" d="M42 667l188 128l35 -56l-195 -121zM84 546h80v-546h-80v546z" />
<glyph unicode="&#xee;" horiz-adv-x="249" d="M126 712l-129 -84l-34 46l166 113l152 -111l-35 -47zM84 546h80v-546h-80v546z" />
<glyph unicode="&#xef;" horiz-adv-x="249" d="M-29 716l56 56l56 -56l-56 -57zM168 716l56 56l56 -56l-56 -57zM84 546h80v-546h-80v546z" />
<glyph unicode="&#xf1;" horiz-adv-x="602" d="M367 645q-18 0 -33.5 6t-30 12.5t-29.5 12.5t-31 6q-23 0 -37.5 -5.5t-31.5 -19.5l-31 46q4 4 12 11.5t21 15t31 13t41 5.5q20 0 36 -6t30.5 -12.5t28 -12.5t28.5 -6q26 0 43 10t27 18l31 -44l-12.5 -12.5t-21.5 -16.5t-31 -14.5t-40 -6.5zM84 546h79v-62 q21 16 42.5 29.5t44.5 24t49.5 16.5t58.5 6q58 0 91 -19.5t49.5 -50t20.5 -67.5t4 -71v-352h-77v337q0 35 -4 63.5t-15.5 48.5t-32.5 30.5t-56 10.5q-53 0 -95.5 -20.5t-79.5 -46.5v-423h-79v546z" />
<glyph unicode="&#xf3;" horiz-adv-x="598" d="M203 667l188 128l35 -56l-195 -121zM296 -12q-113 0 -178 72t-65 207q0 71 18.5 125.5t51.5 92t80 56.5t104 19q117 0 177.5 -74t60.5 -210q0 -74 -19 -128t-52 -89.5t-78.5 -53t-99.5 -17.5zM301 53q49 0 81 19t50.5 50t25.5 70t7 79q0 39 -7 78.5t-25 72t-50 53 t-82 20.5t-82.5 -20.5t-51.5 -52.5t-26.5 -72t-7.5 -79q0 -42 8 -81.5t27.5 -69.5t52 -48.5t80.5 -18.5z" />
<glyph unicode="&#xf4;" horiz-adv-x="598" d="M298 712l-129 -84l-34 46l166 113l152 -111l-35 -47zM296 -12q-113 0 -178 72t-65 207q0 71 18.5 125.5t51.5 92t80 56.5t104 19q117 0 177.5 -74t60.5 -210q0 -74 -19 -128t-52 -89.5t-78.5 -53t-99.5 -17.5zM301 53q49 0 81 19t50.5 50t25.5 70t7 79q0 39 -7 78.5 t-25 72t-50 53t-82 20.5t-82.5 -20.5t-51.5 -52.5t-26.5 -72t-7.5 -79q0 -42 8 -81.5t27.5 -69.5t52 -48.5t80.5 -18.5z" />
<glyph unicode="&#xf6;" horiz-adv-x="598" d="M144 716l56 56l56 -56l-56 -57zM341 716l56 56l56 -56l-56 -57zM296 -12q-113 0 -178 72t-65 207q0 71 18.5 125.5t51.5 92t80 56.5t104 19q117 0 177.5 -74t60.5 -210q0 -74 -19 -128t-52 -89.5t-78.5 -53t-99.5 -17.5zM301 53q49 0 81 19t50.5 50t25.5 70t7 79 q0 39 -7 78.5t-25 72t-50 53t-82 20.5t-82.5 -20.5t-51.5 -52.5t-26.5 -72t-7.5 -79q0 -42 8 -81.5t27.5 -69.5t52 -48.5t80.5 -18.5z" />
<glyph unicode="&#xf5;" horiz-adv-x="598" d="M296 -12q-113 0 -178 72t-65 207q0 71 18.5 125.5t51.5 92t80 56.5t104 19q117 0 177.5 -74t60.5 -210q0 -74 -19 -128t-52 -89.5t-78.5 -53t-99.5 -17.5zM301 53q49 0 81 19t50.5 50t25.5 70t7 79q0 39 -7 78.5t-25 72t-50 53t-82 20.5t-82.5 -20.5t-51.5 -52.5 t-26.5 -72t-7.5 -79q0 -42 8 -81.5t27.5 -69.5t52 -48.5t80.5 -18.5zM357 645q-18 0 -33.5 6t-30 12.5t-29.5 12.5t-31 6q-23 0 -37.5 -5.5t-31.5 -19.5l-31 46q4 4 12 11.5t21 15t31 13t41 5.5q20 0 36 -6t30.5 -12.5t28 -12.5t28.5 -6q26 0 43 10t27 18l31 -44 l-12.5 -12.5t-21.5 -16.5t-31 -14.5t-40 -6.5z" />
<glyph unicode="&#xfa;" horiz-adv-x="599" d="M225 668l188 128l35 -56l-195 -121zM241 -12q-56 0 -88.5 20t-48.5 50.5t-20 67.5t-4 72v348h78v-332q0 -32 2.5 -60t13 -49t31.5 -33t58 -12q26 0 51 6.5t47.5 16.5t42 22t35.5 23v418h76v-546h-76v64q-20 -14 -40 -27.5t-44 -24.5t-52 -17.5t-62 -6.5z" />
<glyph unicode="&#xf9;" horiz-adv-x="599" d="M241 -12q-56 0 -88.5 20t-48.5 50.5t-20 67.5t-4 72v348h78v-332q0 -32 2.5 -60t13 -49t31.5 -33t58 -12q26 0 51 6.5t47.5 16.5t42 22t35.5 23v418h76v-546h-76v64q-20 -14 -40 -27.5t-44 -24.5t-52 -17.5t-62 -6.5zM156 739l35 60l189 -130l-31 -50z" />
<glyph unicode="&#xfb;" horiz-adv-x="599" d="M300 712l-129 -84l-34 46l166 113l152 -111l-35 -47zM241 -12q-56 0 -88.5 20t-48.5 50.5t-20 67.5t-4 72v348h78v-332q0 -32 2.5 -60t13 -49t31.5 -33t58 -12q26 0 51 6.5t47.5 16.5t42 22t35.5 23v418h76v-546h-76v64q-20 -14 -40 -27.5t-44 -24.5t-52 -17.5t-62 -6.5z " />
<glyph unicode="&#xfc;" horiz-adv-x="599" d="M144 716l56 56l56 -56l-56 -57zM341 716l56 56l56 -56l-56 -57zM241 -12q-56 0 -88.5 20t-48.5 50.5t-20 67.5t-4 72v348h78v-332q0 -32 2.5 -60t13 -49t31.5 -33t58 -12q26 0 51 6.5t47.5 16.5t42 22t35.5 23v418h76v-546h-76v64q-20 -14 -40 -27.5t-44 -24.5t-52 -17.5 t-62 -6.5z" />
<glyph unicode="&#xff;" horiz-adv-x="511" d="M99 716l56 56l56 -56l-56 -57zM296 716l56 56l56 -56l-56 -57zM230 0h-37l-176 546h86l118 -390l31 -98l32 96l134 392h81l-267 -766h-76z" />
<glyph unicode="&#xe6;" horiz-adv-x="869" d="M637 -9q-77 0 -132 22t-88 73q-11 -8 -32.5 -24t-50.5 -31.5t-64 -27t-72 -11.5q-73 0 -114 39.5t-41 114.5q0 50 20 81.5t51 49.5t68 24.5t70 7.5q34 0 62 1q23 1 44 1.5t23 0.5v75q0 34 -8 54.5t-25 31.5t-43.5 14.5t-62.5 3.5q-19 0 -39 -3t-39 -7t-34 -8t-23 -6 l-17 60q9 4 26.5 9.5t40 10.5t50.5 8.5t58 3.5q29 0 55.5 -3t49.5 -12t41 -24t30 -39q33 42 79 60t103 18q97 0 145.5 -66t48.5 -195v-29l-360 -14q1 -64 17 -102.5t43 -59.5t63.5 -27.5t80.5 -6.5q15 0 34.5 2.5t38.5 5.5t35.5 6t25.5 5l13 -63q-23 -9 -67 -16.5t-104 -7.5 zM217 57q18 0 43 8t50.5 19.5t49 24t37.5 21.5q-8 24 -12 57t-6 67l-126 -4q-72 -2 -103.5 -30t-31.5 -66q0 -29 7.5 -48t20.5 -30t31.5 -15t39.5 -4zM735 329q0 77 -32 124t-92 47q-28 0 -54 -10t-46.5 -32.5t-34 -57.5t-16.5 -84z" />
<glyph unicode="&#x153;" horiz-adv-x="957" d="M296 -12q-114 0 -178.5 72t-64.5 207q0 71 18.5 125.5t52 92t79.5 56.5t100 19q74 0 124.5 -29.5t77.5 -86.5q31 63 84.5 89.5t119.5 26.5q102 0 149 -68t47 -205v-29h-361q1 -65 16.5 -104.5t42 -61t62.5 -29t80 -7.5q15 0 34.5 2.5t39 6t36.5 7.5t26 7l14 -65 q-14 -5 -59.5 -15t-112.5 -10q-79 0 -136 25t-87 87q-32 -57 -84.5 -85t-119.5 -28zM302 53q49 0 80.5 19t50 50t25.5 70.5t7 80.5q0 38 -7 77.5t-25 71.5t-50 52.5t-83 20.5q-50 0 -82 -20.5t-51 -52.5t-26.5 -71.5t-7.5 -78.5q0 -43 8.5 -82.5t28 -70t52 -48.5t80.5 -18z M822 317q0 84 -31 134t-95 50q-62 0 -102.5 -46t-48.5 -138h277z" />
<glyph unicode="," horiz-adv-x="219" d="M43 -125q11 27 18.5 67t7.5 73v68h82v-37q0 -61 -12 -100.5t-28 -70.5h-68v0z" />
<glyph unicode="." horiz-adv-x="232" d="M69 94h95v-94h-95v94z" />
<glyph unicode=":" horiz-adv-x="294" d="M99 94h95v-94h-95v94zM99 546h95v-94h-95v94z" />
<glyph unicode=";" horiz-adv-x="292" d="M79 -125q9 25 17.5 61.5t8.5 70.5v76h84v-43q0 -59 -12.5 -97.5t-29.5 -67.5h-68zM97 546h95v-94h-95v94z" />
<glyph unicode="?" horiz-adv-x="377" d="M105 163q-10 18 -18.5 43t-8.5 50q0 33 12.5 59.5t32 48t41.5 40.5t41.5 36.5t32 36t12.5 39.5q0 33 -17.5 55.5t-45 37t-62.5 22.5t-70 11l16 68q45 -3 91 -14.5t83.5 -34t61.5 -57t24 -83.5q0 -31 -13.5 -56t-33.5 -47t-43 -41.5t-43 -39t-33.5 -40t-13.5 -43.5 q0 -17 6 -38.5t16 -40.5zM92 87h89v-87h-89v87z" />
<glyph unicode="&#xbf;" horiz-adv-x="368" d="M308 -164q-45 3 -91 14t-83.5 33t-61 57t-23.5 86q0 30 13.5 55.5t33.5 47t43.5 41.5t43.5 39.5t33.5 39.5t13.5 44q0 6 -2.5 16.5t-6 22t-7.5 22t-7 17.5l68 12q10 -20 18.5 -46.5t8.5 -44.5q0 -34 -12.5 -60.5t-32 -48.5t-41.5 -41t-41.5 -37t-32 -36.5t-12.5 -40.5 q0 -31 17 -53t45 -36.5t62.5 -23t69.5 -11.5zM200 546h90v-87h-90v87z" />
<glyph horiz-adv-x="375" d="M308 -2q-45 3 -91 14t-83 33t-60.5 57t-23.5 86q0 30 13.5 55.5t33.5 47t43 41t43 39t33.5 40t13.5 43.5q0 6 -2.5 17t-6 22t-7.5 22t-7 17l68 13q10 -20 18.5 -46.5t8.5 -44.5q0 -34 -12.5 -60.5t-32 -49t-41.5 -41t-41.5 -36.5t-32 -36.5t-12.5 -40.5q0 -31 17 -53 t45 -36.5t62.5 -23t69.5 -11.5zM200 707h90v-87h-90v87z" />
<glyph unicode="!" horiz-adv-x="288" d="M105 312v395h78v-395l-4 -140h-70zM99 87h90v-87h-90v87z" />
<glyph unicode="&#xa1;" horiz-adv-x="257" d="M90 233l3 140h71l3 -140v-395h-77v395zM84 545h90v-87h-90v87z" />
<glyph horiz-adv-x="286" d="M104 395l4 140h71l3 -140v-395h-78v395zM99 707h90v-87h-90v87z" />
<glyph unicode="-" horiz-adv-x="493" d="M98 321h298v-69h-298v69z" />
<glyph horiz-adv-x="489" d="M95 382h298v-68h-298v68z" />
<glyph unicode="&#x2013;" horiz-adv-x="687" d="M98 319h491v-65h-491v65z" />
<glyph horiz-adv-x="682" d="M95 380h492v-64h-492v64z" />
<glyph unicode="&#x2014;" horiz-adv-x="973" d="M98 319h778v-65h-778v65z" />
<glyph horiz-adv-x="967" d="M95 380h776v-64h-776v64z" />
<glyph unicode="_" horiz-adv-x="613" d="M55 -96h503v-69h-503v69z" />
<glyph unicode="@" horiz-adv-x="783" d="M366 -71q-151 0 -230 88t-79 247q0 120 33 206t89 140.5t130.5 80.5t157.5 26q59 0 108 -16.5t84 -51t54.5 -88.5t19.5 -130q0 -75 -20 -129t-51.5 -88.5t-71 -50.5t-78.5 -16q-38 0 -57.5 18.5t-17.5 49.5q-9 -11 -23.5 -22t-30.5 -19.5t-32 -13.5t-28 -5q-21 0 -39 6 t-30.5 20.5t-19.5 38.5t-7 61q0 50 14 90.5t39.5 69.5t61.5 44.5t81 15.5q26 0 54.5 -5.5t51.5 -16.5l-27 -227q-2 -20 1.5 -32.5t17.5 -12.5q22 0 47 9.5t46.5 34.5t35.5 68.5t14 110.5q0 63 -15 106.5t-42 69.5t-64 37.5t-80 11.5q-65 0 -125.5 -19.5t-107 -64.5t-74 -118 t-27.5 -179q0 -76 17 -129t49.5 -86.5t78 -48.5t102.5 -15q38 0 79.5 5.5t71.5 12.5l13 -58q-44 -17 -83.5 -21.5t-90.5 -4.5zM337 218q15 0 30.5 6t28.5 14.5t23.5 17.5t16.5 16l21 168q-8 2 -16 3.5t-19 1.5q-32 0 -55.5 -12t-38.5 -33t-22.5 -50t-7.5 -63q0 -41 9.5 -55 t29.5 -14z" />
<glyph unicode="&#x26;" horiz-adv-x="675" d="M246 -8q-34 0 -68.5 8t-62 27.5t-45 52.5t-17.5 82q0 39 10.5 69t28.5 55t43 46.5t54 43.5q-17 40 -27 83.5t-10 87.5q0 31 9.5 60t29.5 51.5t51 36.5t74 14q39 0 66 -11.5t44 -30.5t25 -43.5t8 -51.5q0 -39 -18 -69t-45.5 -54.5t-61.5 -45.5t-65 -41q28 -62 71.5 -113.5 t96.5 -90.5t112.5 -64t121.5 -32l-10 -65q-58 5 -113.5 23t-106.5 48q-20 -17 -39.5 -30.5t-42 -24t-50 -16t-63.5 -5.5zM258 55q40 0 70.5 14t59.5 35q-115 86 -174 212q-38 -31 -62.5 -65.5t-24.5 -82.5q0 -33 12 -55t31 -35t42 -18t46 -5zM246 417q19 13 44 29t47 35 t37 40.5t15 45.5q0 38 -21.5 59.5t-56.5 21.5q-44 0 -67 -25.5t-23 -67.5q0 -34 6.5 -68.5t18.5 -69.5z" />
<glyph unicode="/" horiz-adv-x="430" d="M294 766h73l-232 -828h-74z" />
<glyph unicode="\" horiz-adv-x="430" d="M63 766h73l233 -828h-74z" />
<glyph unicode="|" horiz-adv-x="244" d="M85 754h74v-974h-74v974z" />
<glyph unicode="(" horiz-adv-x="355" d="M266 -221q-42 37 -81 85.5t-69.5 110.5t-48.5 138.5t-18 169.5q0 96 19.5 173t51 137t70 103t76.5 70l43 -48q-32 -28 -64.5 -66.5t-59 -91t-43.5 -121t-17 -156.5q0 -78 14 -144.5t39 -123t58.5 -103t71.5 -84.5z" />
<glyph horiz-adv-x="357" d="M269 -152q-42 37 -81 85.5t-69.5 110.5t-48.5 138.5t-18 169.5q0 96 19.5 173t51 137t70 103t76.5 70l43 -48q-32 -28 -64.5 -66.5t-59 -91t-43.5 -121t-17 -156.5q0 -78 14 -144.5t39 -123t58.5 -103t71.5 -84.5z" />
<glyph unicode=")" horiz-adv-x="355" d="M46 -172q39 38 72 84.5t58 103t39 123t14 144.5q0 88 -17 156.5t-43.5 121t-59 91t-64.5 66.5l44 48q37 -27 75.5 -70t70 -103t51 -137t19.5 -173q0 -93 -18 -169.5t-48 -138.5t-69 -110.5t-81 -85.5z" />
<glyph horiz-adv-x="351" d="M41 -103q39 38 72 84.5t58 103t39 123t14 144.5q0 88 -17 156.5t-43.5 121t-59 91t-64.5 66.5l44 48q37 -27 75.5 -70t70 -103t51 -137t19.5 -173q0 -93 -18 -169.5t-48 -138.5t-69 -110.5t-81 -85.5z" />
<glyph unicode="[" horiz-adv-x="311" d="M85 754h179v-65h-102v-844h102v-65h-179v974z" />
<glyph horiz-adv-x="311" d="M85 840h179v-65h-102v-844h102v-65h-179v974z" />
<glyph unicode="]" horiz-adv-x="311" d="M46 -155h103v844h-103v65h180v-974h-180v65z" />
<glyph horiz-adv-x="311" d="M46 -69h103v844h-103v65h180v-974h-180v65z" />
<glyph unicode="{" horiz-adv-x="350" d="M283 -220q-37 0 -70.5 5t-59.5 19.5t-41.5 41.5t-15.5 71q0 7 0.5 14t1.5 15l21 198q2 15 -3.5 31.5t-16.5 30t-27 22.5t-35 9v72q19 0 35 8.5t27 21.5t16.5 29.5t3.5 33.5l-21 206q-1 9 -1.5 18t0.5 17q2 38 17.5 63t40.5 40t58 21t70 6h22v-67h-25q-59 0 -85.5 -24 t-20.5 -79l20 -182q8 -63 -16 -98.5t-67 -46.5v-2q21 -8 38 -19.5t28 -29t16 -41.5t1 -55l-20 -183q-5 -51 22 -75t84 -24h25v-67h-22v0z" />
<glyph horiz-adv-x="376" d="M285 -140q-37 0 -70.5 5t-59.5 19.5t-41.5 41.5t-15.5 71q0 7 0.5 14t1.5 15l21 198q2 15 -3.5 31.5t-16.5 30t-27 22.5t-35 9v72q19 0 35 8.5t27 21.5t16.5 29.5t3.5 33.5l-21 206q-1 9 -1.5 18t0.5 17q2 38 17.5 63t40.5 40t58 21t70 6h22v-67h-25q-59 0 -85.5 -24 t-20.5 -79l20 -182q8 -63 -16 -98.5t-67 -46.5v-2q21 -8 38 -19.5t28 -29t16 -41.5t1 -55l-20 -183q-5 -51 22 -75t84 -24h25v-67h-22v0z" />
<glyph unicode="}" horiz-adv-x="350" d="M45 -220v67h24q57 0 84.5 24t22.5 75l-21 183q-7 62 18 96t66 49v2q-44 11 -67.5 46.5t-16.5 98.5l21 182q6 55 -21 79t-86 24h-24v67h22q37 0 70 -6t58 -21t40.5 -40t17.5 -63q1 -8 0.5 -17t-1.5 -18l-22 -206q-2 -17 3.5 -33.5t17 -29.5t27 -21.5t35.5 -8.5v-72 q-20 0 -36 -9t-27 -22.5t-16.5 -30t-3.5 -31.5l22 -198q1 -8 1.5 -15t0.5 -14q0 -44 -15.5 -71t-41.5 -41.5t-59.5 -19.5t-70.5 -5h-22z" />
<glyph horiz-adv-x="377" d="M69 -133v67h24q57 0 84.5 24t22.5 75l-21 183q-7 62 18 96t66 49v2q-44 11 -67.5 46.5t-16.5 98.5l21 182q6 55 -21 79t-86 24h-24v67h22q37 0 70 -6t58 -21t40.5 -40t17.5 -63q1 -8 0.5 -17t-1.5 -18l-22 -206q-2 -17 3.5 -33.5t17 -29.5t27 -21.5t35.5 -8.5v-72 q-20 0 -36 -9t-27 -22.5t-16.5 -30t-3.5 -31.5l22 -198q1 -8 1.5 -15t0.5 -14q0 -44 -15.5 -71t-41.5 -41.5t-59.5 -19.5t-70.5 -5h-22z" />
<glyph unicode="&#xa7;" horiz-adv-x="656" d="M186 -66q-63 0 -114 39l28 66q15 -11 30 -19q13 -7 28.5 -12.5t29.5 -5.5q16 0 26 8.5t16 21.5t8 27.5t2 26.5q0 29 -5 59t-10 62l-8 50q-5 24 -7.5 49t-2.5 50q0 62 18 109.5t50.5 79.5t78 48.5t101.5 16.5q85 0 145 -43q-8 -17 -15 -31q-6 -12 -11.5 -22.5t-6.5 -11.5 q-8 5 -21 12t-28.5 13t-33.5 10t-35 4q-15 0 -24.5 -6.5t-15 -16.5t-7.5 -22.5t-2 -24.5q0 -19 1.5 -37t6.5 -36l15 -63q9 -38 13 -78.5t4 -73.5q0 -53 -18.5 -98t-51.5 -79t-80 -53t-104 -19zM290 16q36 27 57 66t21 89q0 26 -3 51.5t-8 50.5l-17 81q-5 23 -7.5 47.5 t-2.5 49.5q0 18 2.5 38.5t10.5 39.5q-19 -12 -31.5 -29.5t-19.5 -38t-10 -41.5t-3 -41q0 -23 2 -46.5t7 -44.5l15 -80q5 -21 7.5 -50.5t2.5 -51.5q0 -32 -6.5 -50.5t-16.5 -39.5z" />
<glyph horiz-adv-x="538" d="M145 -217q-63 0 -114 39l28 66q15 -11 30 -19q13 -7 28 -12.5t29 -5.5q16 0 26 9t16 21.5t8.5 27t2.5 26.5q0 29 -4.5 59.5t-10.5 61.5l-65 352q-5 24 -7.5 49.5t-2.5 50.5q0 61 18 108.5t50.5 79.5t78.5 48.5t102 16.5q85 0 145 -43q-9 -17 -16 -31l-11 -22t-6 -11 q-8 5 -21 12t-29 13t-33.5 10t-34.5 4q-15 0 -24.5 -6.5t-15 -16.5t-7.5 -22.5t-2 -24.5q0 -19 1.5 -38t5.5 -36l72 -365q7 -37 12 -77.5t5 -73.5q0 -53 -18.5 -98.5t-52 -79.5t-80 -53t-103.5 -19zM249 -135q35 27 56 66t21 89q0 26 -3 51.5t-8 51.5l-73 383 q-4 23 -6.5 47.5t-2.5 49.5q0 18 2.5 38t10.5 39q-20 -12 -32 -29.5t-19.5 -37.5t-10 -41.5t-2.5 -40.5q-1 -23 2 -47t6 -44l72 -382q3 -21 6.5 -50.5t3.5 -52.5q0 -32 -6.5 -50t-16.5 -40z" />
<glyph unicode="&#x2022;" horiz-adv-x="394" d="M197 208q-30 0 -56.5 10.5t-46 30t-31 45.5t-11.5 58q0 31 11.5 58t31 46t46 30t56.5 11t56.5 -10.5t46 -29.5t31 -46t11.5 -59q0 -31 -11.5 -57t-31 -45.5t-46 -30.5t-56.5 -11z" />
<glyph unicode="#" horiz-adv-x="609" d="M140 151h-89v67h93l7 129h-100v67h105l7 152h75l-8 -152h169l7 152h75l-8 -152h84v-67h-88l-8 -129h96v-67h-99l-9 -151h-74l8 151h-168l-9 -151h-74zM387 218l7 129h-169l-7 -129h169z" />
<glyph horiz-adv-x="642" d="M469 159l-9 -159h-76l9 159h-167l-9 -159h-75l9 159h-87v69h91l14 250h-105v68h109l9 161h76l-9 -161h166l9 161h76l-10 -161h89v-68h-92l-14 -250h106v-69h-110zM244 478l-13 -250h166l14 250h-167z" />
<glyph unicode="%" horiz-adv-x="790" d="M201 387q-31 0 -58.5 9t-48.5 28t-33 49t-12 72q0 41 12.5 72.5t34 53t49.5 32.5t59 11t59 -8t49 -27t33 -50t12 -77q0 -39 -12.5 -70t-33.5 -52t-49.5 -32t-60.5 -11zM201 445q40 0 64.5 28t24.5 79q0 48 -21 77t-65 29q-35 0 -60 -27t-25 -86q0 -100 82 -100zM583 -9 q-31 0 -58.5 9t-48 28t-32.5 49t-12 72q0 41 12.5 72.5t33.5 53t49 32.5t59 11t59 -8t49 -26.5t33.5 -49.5t12.5 -77q0 -40 -12.5 -71t-34 -52t-50 -32t-60.5 -11zM583 50q41 0 65 28t24 79q0 48 -20.5 76.5t-65.5 28.5q-35 0 -59.5 -27t-24.5 -86q0 -49 19.5 -74t61.5 -25z M97 104l534 532l42 -45l-533 -533z" />
<glyph unicode="&#x2030;" horiz-adv-x="1150" d="M201 387q-31 0 -58.5 9t-48.5 28t-33 49t-12 72q0 41 12.5 72.5t34 53t49.5 32.5t59 11t59 -8t49 -27t33 -50t12 -77q0 -39 -12.5 -70t-33.5 -52t-49.5 -32t-60.5 -11zM201 445q40 0 64.5 28t24.5 79q0 48 -21 77t-65 29q-35 0 -60 -27t-25 -86q0 -100 82 -100zM583 -9 q-31 0 -58.5 9t-48 28t-32.5 49t-12 72q0 41 12.5 72.5t33.5 53t49 32.5t59 11t59 -8t49 -26.5t33.5 -49.5t12.5 -77q0 -40 -12.5 -71t-34 -52t-50 -32t-60.5 -11zM583 50q41 0 65 28t24 79q0 48 -20.5 76.5t-65.5 28.5q-35 0 -59.5 -27t-24.5 -86q0 -49 19.5 -74t61.5 -25z M945 -9q-31 0 -58.5 9t-48.5 28t-33 49t-12 72q0 41 12.5 72.5t34 53t49.5 32.5t59 11t59 -8t49 -26.5t33 -49.5t12 -77q0 -40 -12.5 -71t-33.5 -52t-49.5 -32t-60.5 -11zM945 50q40 0 64 28t24 79q0 48 -20.5 76.5t-64.5 28.5q-35 0 -60 -27t-25 -86q0 -49 19.5 -74 t62.5 -25zM97 104l534 532l42 -45l-533 -533z" />
<glyph unicode="&#x2020;" horiz-adv-x="482" d="M207 515l-168 -7v74l167 -6l-7 178h83l-6 -178l167 6v-74l-167 7l6 -515h-82z" />
<glyph unicode="'" horiz-adv-x="191" d="M60 753h72l-7 -238h-61z" />
<glyph unicode="&#x22;" horiz-adv-x="355" d="M60 753h69l-6 -238h-59zM227 753h69l-6 -238h-59z" />
<glyph unicode="&#x201c;" horiz-adv-x="338" d="M57 594q0 59 12 96t29 66h59q-11 -23 -19.5 -58.5t-8.5 -64.5v-78h-72v39zM204 594q0 59 11.5 96t28.5 66h59q-11 -23 -19 -58.5t-8 -64.5v-78h-72v39z" />
<glyph unicode="&#x201d;" horiz-adv-x="338" d="M48 554q10 23 18.5 58.5t8.5 64.5v78h72v-40q0 -59 -11.5 -95.5t-28.5 -65.5h-59zM194 554q11 23 19 58.5t8 64.5v78h72v-40q0 -59 -12 -95.5t-29 -65.5h-58z" />
<glyph unicode="&#x2018;" horiz-adv-x="191" d="M57 594q0 59 12 96t29 66h58q-10 -23 -18.5 -58.5t-8.5 -64.5v-78h-72v39z" />
<glyph unicode="&#x2019;" horiz-adv-x="192" d="M48 554q10 23 18.5 58.5t8.5 64.5v78h72v-40q0 -59 -11.5 -95.5t-28.5 -65.5h-59v0z" />
<glyph unicode="&#x2039;" horiz-adv-x="270" d="M50 272l106 220l59 -22l-87 -198l86 -195l-58 -25z" />
<glyph horiz-adv-x="271" d="M56 159l86 193l-87 198l59 22l106 -220l-106 -220z" />
<glyph unicode="&#x203a;" horiz-adv-x="270" d="M56 79l86 193l-87 198l59 22l106 -220l-106 -220z" />
<glyph horiz-adv-x="270" d="M50 344l106 220l59 -22l-87 -198l86 -195l-58 -25z" />
<glyph unicode="&#xab;" horiz-adv-x="447" d="M50 272l106 220l59 -22l-87 -198l86 -195l-58 -25zM227 272l107 220l58 -22l-87 -198l86 -195l-57 -25z" />
<glyph horiz-adv-x="448" d="M50 352l106 220l59 -22l-87 -198l86 -195l-58 -25zM227 352l107 220l58 -22l-87 -198l86 -195l-57 -25z" />
<glyph unicode="&#xbb;" horiz-adv-x="447" d="M56 77l86 195l-87 198l59 22l106 -220l-106 -220zM234 77l85 195l-87 198l59 22l107 -220l-107 -220z" />
<glyph horiz-adv-x="448" d="M56 157l86 195l-87 198l59 22l106 -220l-106 -220zM234 157l85 195l-87 198l59 22l107 -220l-107 -220z" />
<glyph unicode="*" horiz-adv-x="436" d="M47 526l108 44l18 -33l-91 -71zM47 643l36 60l91 -71l-19 -34zM200 522h38l15 -114h-71zM184 762h70l-15 -116h-39zM262 536l21 34l107 -43l-36 -62zM262 632l93 71l35 -60l-108 -43z" />
<glyph unicode="+" horiz-adv-x="582" d="M251 270h-214v66l214 -1v222h69l-2 -223l228 2v-66h-227l1 -216h-69v216z" />
<glyph unicode="&#x3c;" horiz-adv-x="510" d="M47 254v99l403 192v-74l-352 -168l352 -164v-75z" />
<glyph unicode="=" horiz-adv-x="704" d="M105 232h494v-66h-494v66zM105 442h494v-66h-494v66z" />
<glyph unicode="&#x3e;" horiz-adv-x="510" d="M60 139l352 164l-352 168v74l403 -192v-99l-403 -190v75z" />
<glyph unicode="0" horiz-adv-x="688" d="M343 -12q-63 0 -115.5 17t-90.5 52t-59.5 88.5t-21.5 126.5q0 72 21.5 126t60 90t92 54t117.5 18q63 0 116 -19t90.5 -55t58.5 -89t21 -121q0 -74 -22 -128t-61 -89.5t-92 -53t-115 -17.5zM344 57q44 0 82 14t66 41.5t44 68.5t16 94q0 50 -15.5 90t-43 68.5t-65 43.5 t-82.5 15t-83 -13.5t-65.5 -40.5t-43.5 -68.5t-16 -97.5q0 -52 16 -92t44 -67.5t65.5 -41.5t80.5 -14z" />
<glyph unicode="1" horiz-adv-x="332" d="M159 491h-141v62l222 7v-560h-81v491z" />
<glyph unicode="2" horiz-adv-x="487" d="M37 65q20 17 50 41t63 51t66 57t59.5 59.5t43 57t16.5 51.5q0 63 -30.5 86t-83.5 23q-21 0 -42 -4t-38.5 -10t-31.5 -12.5t-22 -10.5l-27 59q9 6 25 14.5t38 15.5t48 12t54 5q55 0 91.5 -14.5t58.5 -38.5t31 -55.5t9 -65.5q0 -31 -13.5 -61.5t-36 -60.5t-51 -58t-59 -53 t-60 -47t-52.5 -39h299v-67h-405v65z" />
<glyph unicode="3" horiz-adv-x="474" d="M194 -167q-77 0 -120.5 10.5t-60.5 18.5l19 65q26 -9 63 -17.5t89 -8.5q30 0 59 4t51.5 17t36.5 37t14 65q0 30 -11.5 55t-32.5 44t-49.5 31.5t-62.5 18.5q-10 2 -19 2.5t-19 1.5v61q9 1 17.5 1.5t16.5 2.5q27 6 50.5 19.5t41 32t27.5 41.5t10 48q0 31 -11 52t-29 33.5 t-41 17.5t-47 5q-23 0 -43.5 -3t-35.5 -7t-24.5 -7.5t-10.5 -4.5l-23 58q23 11 59.5 21.5t87.5 10.5q43 0 78.5 -11t61 -32.5t39.5 -53t14 -72.5q0 -36 -12.5 -65t-32 -51.5t-42.5 -37t-44 -20.5q25 -7 53.5 -21.5t53.5 -37.5t41.5 -55t16.5 -72q0 -53 -18 -90t-48.5 -61 t-72.5 -35t-90 -11z" />
<glyph unicode="4" horiz-adv-x="574" d="M343 29h-315v66l267 451h128v-448h122v-69h-122v-190h-80v190zM343 98v401l-236 -401h236z" />
<glyph unicode="5" horiz-adv-x="515" d="M231 -170q-29 0 -55.5 2.5t-49 5.5t-40 7t-26.5 7l19 71q29 -8 68.5 -14t83.5 -6q34 0 62.5 9.5t49.5 27t32.5 43t11.5 57.5q0 42 -12 71t-33 47t-49.5 26t-60.5 8q-37 0 -75 -3t-72 -7v364h356v-68h-281v-223q24 3 45.5 4t44.5 1q49 0 89.5 -14.5t68.5 -41.5t43.5 -65.5 t15.5 -86.5q0 -54 -17.5 -95.5t-49 -69.5t-74.5 -42.5t-95 -14.5z" />
<glyph unicode="6" horiz-adv-x="579" d="M311 -12q-56 0 -99.5 15t-73.5 51.5t-46 97t-16 151.5q0 103 22.5 180.5t62.5 129t96 77t123 25.5q38 0 62.5 -4.5t38.5 -9.5l-16 -66q-14 5 -33.5 7.5t-51.5 2.5q-67 0 -110.5 -30t-69 -79t-36 -111.5t-10.5 -127.5q0 -58 7 -103t25.5 -75.5t50 -46.5t81.5 -16 q33 0 58 12.5t42.5 34.5t26.5 51t9 62q0 40 -10.5 68.5t-29.5 47t-45.5 27.5t-57.5 9q-20 0 -35 -2t-43 -7l-0.5 10t-0.5 23t-0.5 23l-0.5 10q19 5 39.5 8t50.5 3q54 0 94 -15.5t66 -43.5t39 -66.5t13 -84.5q0 -59 -16.5 -103.5t-46 -74.5t-70.5 -45t-89 -15z" />
<glyph unicode="7" horiz-adv-x="491" d="M85 -145l300 619h-348v72h428v-68l-309 -650z" />
<glyph unicode="8" horiz-adv-x="569" d="M282 -12q-51 0 -93 13t-72 36.5t-46.5 56.5t-16.5 74q0 39 14 69t37 53.5t52.5 42.5t60.5 37q-27 17 -51.5 35t-43.5 39.5t-30 46.5t-11 57q0 78 56.5 123.5t154.5 45.5q49 0 86 -14.5t61.5 -37.5t37 -52t12.5 -59q0 -33 -12 -59.5t-32 -48t-46 -40t-54 -35.5 q32 -18 62.5 -36.5t54 -41t38 -51t14.5 -64.5q0 -44 -16 -79t-46.5 -60t-73.5 -38t-97 -13zM288 53q64 0 105 31t41 98q0 26 -13 47t-34.5 40t-49.5 35.5t-58 33.5q-29 -16 -55 -33t-46 -36.5t-32 -42.5t-12 -51q0 -59 43 -90.5t111 -31.5zM284 401q26 14 49 29t40.5 32.5 t27.5 37.5t10 44q0 21 -6.5 41t-20.5 35.5t-36.5 24.5t-55.5 9q-66 0 -99 -30t-33 -80q0 -24 10 -43.5t26.5 -37t39 -32.5t48.5 -30z" />
<glyph unicode="9" horiz-adv-x="580" d="M188 -165q-31 0 -54.5 4t-40.5 10l17 66q6 -2 29.5 -6t48.5 -4q79 0 125.5 28t71 75t31.5 110t7 132q0 47 -8.5 90.5t-27.5 76.5t-49.5 53t-74.5 20q-33 0 -58.5 -11.5t-43 -32t-26.5 -48.5t-9 -61q0 -48 11 -80t30 -50.5t45 -26.5t57 -8q22 0 42 3t39 8l5 -65 q-15 -5 -41.5 -9t-59.5 -4q-100 0 -154 57t-54 167q0 57 17 100t47 72t71 44t89 15q52 0 95.5 -20.5t74.5 -60t48 -98.5t17 -137q0 -114 -20.5 -192t-60.5 -126t-99 -69.5t-137 -21.5z" />
<glyph horiz-adv-x="663" d="M585 364q0 -83 -14 -152t-45.5 -118t-81 -76t-119.5 -27q-71 0 -119 27.5t-76.5 75t-40.5 111.5t-12 137t12.5 140t43 118.5t81.5 82t128 30.5q76 0 123.5 -30t74 -79t36 -112t9.5 -128zM503 358q0 46 -5.5 97t-22.5 93.5t-50.5 70t-88.5 27.5q-59 0 -94 -28.5t-53.5 -72 t-24 -97t-5.5 -102.5q0 -54 7 -105.5t26 -92t52.5 -65t85.5 -24.5q57 0 91.5 26.5t52.5 69.5t23.5 96t5.5 107z" />
<glyph horiz-adv-x="343" d="M157 0v639h-141v62l220 6v-707h-79z" />
<glyph horiz-adv-x="534" d="M36 0v65q6 6 33 30.5t64 61t78.5 81t76.5 92t58 93t23 84.5q0 40 -8.5 66.5t-25 42.5t-41 22.5t-55.5 6.5q-30 0 -54.5 -5t-43 -12t-31.5 -14t-19 -11l-31 57q11 7 27.5 17t39.5 18t52.5 14t66.5 6q64 0 103.5 -18t61.5 -47t30 -64.5t8 -69.5q0 -57 -25.5 -113 t-68.5 -111.5t-99.5 -111t-117.5 -111.5h355v-69h-457z" />
<glyph horiz-adv-x="500" d="M439 185q0 -55 -17.5 -92.5t-48.5 -60t-72.5 -32t-89.5 -9.5q-45 0 -78.5 4.5t-56.5 9.5q-27 6 -46 15l19 66q19 -6 59 -15t93 -9q30 0 58.5 4t51 16.5t36.5 36.5t14 65q0 34 -14.5 61t-40.5 46t-61.5 30t-77.5 14v66q33 3 62.5 14.5t52 30t35.5 43.5t13 54q0 30 -10 50 t-27 32t-39 17t-46 5q-26 0 -48 -3.5t-38 -7.5q-19 -5 -34 -11l-24 58q23 11 60 21.5t88 10.5q43 0 79 -10.5t61.5 -31t39.5 -51.5t14 -72q0 -36 -12.5 -65.5t-32 -51.5t-42.5 -36.5t-44 -20.5q28 -7 57 -22.5t53 -39.5t39 -56t15 -73z" />
<glyph horiz-adv-x="574" d="M420 189v-189h-79v189h-312v70l273 448h118v-448h122v-70h-122zM341 647l-234 -388h234v388z" />
<glyph horiz-adv-x="522" d="M465 213q0 -54 -17.5 -95.5t-48.5 -69.5t-74 -42.5t-94 -14.5q-68 0 -110 7.5t-62 13.5l20 70q29 -8 65 -13t87 -5q68 0 111.5 36t43.5 101q0 40 -11.5 68.5t-32 46.5t-48 26.5t-59.5 8.5q-11 0 -21 -0.5t-20 -0.5q-26 -1 -53 -2.5t-57 -4.5v364h356v-68h-280v-221 q24 2 45.5 2h44.5q49 0 89 -14t68 -41t43 -65.5t15 -86.5z" />
<glyph horiz-adv-x="583" d="M311 -13q-56 0 -100 15.5t-74 52t-46 97t-16 150.5q0 103 22.5 180.5t63 129t96.5 77t123 25.5q38 0 62.5 -4.5t38.5 -9.5l-16 -65q-14 4 -33.5 6.5t-51.5 2.5q-67 0 -110.5 -30t-69 -79t-36 -111.5t-10.5 -127.5q0 -58 7 -103t25.5 -75.5t50 -46.5t81.5 -16 q33 0 58 12.5t42.5 34.5t26.5 51t9 62q0 40 -10.5 68.5t-29.5 47t-45.5 27.5t-57.5 9q-20 0 -35 -2t-43 -7l-0.5 10t-0.5 23t-0.5 23l-0.5 10q19 5 39.5 8t50.5 3q54 0 94 -15.5t66 -43.5t39 -66.5t13 -84.5q0 -59 -16.5 -103.5t-46 -74.5t-70.5 -45t-89 -15z" />
<glyph horiz-adv-x="458" d="M132 -8l-70 25l301 620h-350v70h428v-68z" />
<glyph horiz-adv-x="583" d="M288 -12q-51 0 -93 13t-72 36.5t-46.5 56.5t-16.5 74q0 39 14 69t37 53.5t52.5 42.5t60.5 37q-27 17 -51.5 35t-43.5 39.5t-30 46.5t-11 57q0 78 56.5 123.5t154.5 45.5q49 0 86 -14.5t61.5 -37.5t37 -52t12.5 -59q0 -33 -12 -59.5t-32 -48t-46 -40t-54 -35.5 q32 -18 62.5 -36.5t54 -41t38 -51t14.5 -64.5q0 -44 -16 -79t-46.5 -60t-73.5 -38t-97 -13zM294 53q64 0 105 31t41 98q0 26 -13 47t-34.5 40t-49.5 35.5t-58 33.5q-29 -16 -55 -33t-46 -36.5t-32 -42.5t-12 -51q0 -59 43 -90.5t111 -31.5zM290 401q26 14 49 29t40.5 32.5 t27.5 37.5t10 44q0 21 -6.5 41t-20.5 35.5t-36.5 24.5t-55.5 9q-66 0 -99 -30t-33 -80q0 -24 10 -43.5t26.5 -37t39 -32.5t48.5 -30z" />
<glyph horiz-adv-x="584" d="M194 -9q-36 0 -57 4.5t-38 9.5l17 66q6 -2 29.5 -6t48.5 -4q79 0 125.5 28t71 75.5t31.5 110t7 132.5q0 47 -8.5 90t-27.5 76t-49.5 53t-74.5 20q-33 0 -58.5 -11.5t-43 -32t-26.5 -48.5t-9 -61q0 -48 11 -79.5t30 -50.5t45 -26.5t57 -7.5q22 0 42 2.5t39 7.5l5 -65 q-15 -5 -41.5 -9t-59.5 -4q-100 0 -154 57t-54 167q0 57 17 100t47 72t71 44t89 15q52 0 95.5 -20.5t74.5 -60t48 -98.5t17 -137q0 -114 -20.5 -192t-60.5 -126t-99 -69.5t-137 -21.5z" />
<glyph unicode="&#x2122;" horiz-adv-x="789" d="M338 707h80l105 -299l117 299h77v-355h-61l1 262l-103 -262h-66l-91 263l1 -263h-60v355zM140 653h-117v54h294v-54h-117v-301h-60v301z" />
<glyph unicode="&#xae;" horiz-adv-x="555" d="M509 532q0 -53 -18 -94.5t-49 -69.5t-73 -42.5t-90 -14.5q-39 0 -80 11t-75 37t-56 68.5t-22 104.5q0 54 18 95.5t49.5 70t73.5 43.5t91 15q42 0 83 -12t74 -39t53.5 -69.5t20.5 -103.5zM463 532q0 48 -16 82t-42 56.5t-59 33t-67 10.5q-37 0 -71 -10t-59.5 -31.5 t-40.5 -55.5t-15 -81q0 -59 21.5 -95t51.5 -55.5t62.5 -26t55.5 -6.5q37 0 70 11.5t57 34.5t38 56t14 77zM394 417q-23 1 -40.5 6.5t-31.5 20.5q-16 16 -29 36t-22 34h-34v-91h-47v242h90q38 0 61 -18t23 -57q0 -47 -45 -68q6 -8 15.5 -22.5t20.5 -25.5t21.5 -15t23.5 -9z M319 589q0 22 -10 32t-36 10h-36v-84h31q26 0 38.5 9.5t12.5 32.5z" />
<glyph unicode="&#xa9;" horiz-adv-x="817" d="M434 73q-52 0 -91.5 15.5t-66 43t-40 65t-13.5 81.5q0 47 13 86t39.5 66.5t65.5 42.5t91 15q38 0 67 -7t52 -21l-20 -47q-26 11 -46 15.5t-52 4.5q-30 0 -57 -8.5t-47.5 -26.5t-32.5 -46.5t-12 -68.5t13 -69t34.5 -48t51 -28t62.5 -9q24 0 46 4.5t47 12.5l17 -49 q-31 -13 -58.5 -18.5t-62.5 -5.5zM400 -91q-82 0 -146 27t-108.5 75t-67.5 115.5t-23 148.5q0 84 26.5 151t74.5 114t115 72t148 25q85 0 149.5 -28t107.5 -76.5t64.5 -115t21.5 -144.5q0 -82 -25 -149t-71.5 -115t-113.5 -74t-152 -26zM403 -37q75 0 131 24t93 66t55 98.5 t18 122.5t-19 122.5t-56 98t-91 65t-124 23.5q-72 0 -127 -23.5t-91.5 -65t-55 -97.5t-18.5 -121q0 -63 17.5 -119.5t53 -99.5t89 -68.5t125.5 -25.5z" />
<glyph d="M439 151q-52 0 -91 15.5t-65.5 43t-40 65t-13.5 81.5q0 47 13 86t39.5 66.5t65.5 42.5t90 15q39 0 67.5 -7t52.5 -21l-20 -47q-26 11 -46.5 15.5t-52.5 4.5q-30 0 -56.5 -8.5t-47 -26.5t-32.5 -46.5t-12 -68.5t12.5 -69t34.5 -48t51 -28t62 -9q25 0 46.5 4.5t46.5 12.5 l18 -49q-31 -13 -59 -18.5t-63 -5.5zM406 -13q-82 0 -146 27t-108.5 75t-67.5 115.5t-23 148.5q0 84 26.5 151t74.5 114.5t115 72.5t148 25q85 0 149.5 -28t107.5 -77t64.5 -115.5t21.5 -144.5q0 -82 -25 -149t-71.5 -115t-113.5 -74t-152 -26zM409 41q75 0 131 24t92.5 66 t54.5 98.5t18 122.5t-19 122.5t-56 98t-91 65t-123 23.5q-73 0 -127.5 -23.5t-91 -65t-55 -97.5t-18.5 -121q0 -63 17.5 -119.5t53 -99.5t89 -68.5t125.5 -25.5z" />
<glyph unicode="&#x20ac;" horiz-adv-x="590" d="M385 -10q-110 0 -180.5 50.5t-96.5 135.5h-63v55h53q-1 9 -1.5 18.5t-0.5 19.5q0 27 3 51h-54v55h66q26 84 95 132t176 48q50 0 87.5 -7.5t79.5 -23.5l-22 -63q-39 12 -71 18.5t-72 6.5q-62 1 -113.5 -25.5t-76.5 -85.5h251v-55h-266q-3 -21 -3 -43q0 -25 3 -46h266v-55 h-250q26 -63 81 -91t123 -28q38 0 72 7t61 15l20 -62q-21 -8 -59.5 -17.5t-107.5 -9.5z" />
<glyph unicode="$" horiz-adv-x="501" d="M212 -5q-61 2 -103.5 14.5t-66.5 23.5l26 64q42 -15 81 -24.5t86 -9.5q26 0 50.5 3.5t43 13t30 26t11.5 42.5q0 18 -10.5 31.5t-26 24t-34.5 18.5t-36 15q-31 12 -65.5 26t-64 34t-48.5 48.5t-19 69.5q0 30 11 52.5t30.5 39t46.5 26.5t58 15l-1 96h71l-2 -93 q51 -2 84.5 -9.5t65.5 -20.5l-22 -60q-38 11 -70 17.5t-74 6.5q-51 0 -83.5 -15t-32.5 -54q0 -18 10 -32.5t25 -25.5t33 -19.5t35 -15.5q29 -13 64.5 -27t66 -33.5t51 -46t20.5 -63.5q0 -39 -14 -67t-37.5 -47t-55 -29t-66.5 -13l3 -96h-72z" />
<glyph unicode="&#xa2;" horiz-adv-x="477" d="M246 33q-59 6 -98.5 25.5t-63.5 50.5t-34 73.5t-10 95.5q0 47 13 87t39 71t64.5 50.5t89.5 24.5l-3 82h81l-2 -80q29 -2 59 -11t45 -20l-23 -55q-23 9 -51.5 15.5t-67.5 6.5q-72 0 -117.5 -40.5t-45.5 -133.5q0 -47 9 -80.5t31 -55.5t59 -32.5t93 -10.5q28 0 54 3.5 t52 8.5l12 -61q-29 -8 -55 -11.5t-54 -5.5l3 -75h-82z" />
<glyph unicode="&#xa3;" horiz-adv-x="477" d="M57 67q21 9 36 26t25 38t15 42.5t5 39.5h-95v66h97q0 29 -1 48.5t-1 39.5q0 63 20 101t54.5 58.5t80.5 27.5t99 9l5 -68q-40 -3 -74 -8.5t-58 -18.5t-36.5 -38t-10.5 -67q0 -13 0.5 -21.5t0.5 -17.5v-45h177v-66h-182q-2 -46 -21 -85t-46 -61h287v-67h-377v67z" />
<glyph unicode="&#xa5;" horiz-adv-x="625" d="M438 320h128v-68h-168l-34 -61l-18 -44h220v-67h-220v-80h-78l-1 80h-208v68h209l-17 42l-33 62h-159v68h122l-120 226h88l161 -317l169 317h85z" />
<glyph unicode="&#xa4;" horiz-adv-x="543" d="M58 179l69 67q-15 19 -25 47t-10 59t9 59t25 47l-68 68l39 38l70 -70q21 13 48.5 22.5t55.5 9.5t55 -7t50 -23l68 69l40 -40l-68 -67q17 -19 25.5 -47t8.5 -59t-9 -59.5t-26 -47.5l67 -68l-37 -39l-70 69q-22 -12 -49 -20t-55 -8t-54.5 8t-48.5 22l-71 -70zM271 242 q58 0 84 32t26 78q1 46 -26.5 78.5t-83.5 32.5t-83.5 -32.5t-27.5 -78.5t28.5 -78t82.5 -32z" />
<glyph horiz-adv-x="663" d="M442 -8q-65 0 -115 17.5t-86 49t-59 75t-35 94.5h-86v64h76q-2 14 -2 28.5v28.5q0 17 0.5 33t2.5 31h-77v64h87q26 109 98.5 172t194.5 63q70 0 109.5 -12t62.5 -23l-24 -60q-26 10 -60 18.5t-89 8.5q-166 0 -207 -167h250v-64h-261q-3 -26 -3 -54q0 -18 1 -34.5t3 -32.5 h260v-64h-246q22 -78 75.5 -122t147.5 -44q51 0 83.5 8t49.5 14l22 -63q-14 -6 -28 -11t-33.5 -9t-46.5 -6.5t-65 -2.5z" />
<glyph horiz-adv-x="537" d="M489 186q0 -44 -14.5 -77t-40 -56.5t-61 -37.5t-76.5 -19l3 -95h-78l1 91q-69 2 -110.5 14t-69.5 27l28 66q39 -17 77.5 -26.5t89.5 -9.5q30 0 60 5.5t54.5 19t40 36t15.5 56.5q0 44 -25.5 72t-64 49t-83.5 40t-83.5 44.5t-64 62.5t-25.5 95q0 37 12.5 65.5t34 49t51 33 t63.5 17.5l-2 92h78l-2 -89q49 -2 83 -10.5t63 -21.5l-23 -61q-32 11 -65 18t-82 7q-57 0 -95 -22t-38 -74q0 -40 26 -66.5t64.5 -47.5t84 -41t84 -47t64.5 -65t26 -94z" />
<glyph horiz-adv-x="520" d="M269 99q-109 14 -158.5 81t-49.5 197q0 121 55 194t152 88l-2 95h77l-2 -92q45 -2 74.5 -11t47.5 -19l-24 -63q-22 9 -51 18t-74 9q-78 0 -125 -55.5t-47 -160.5q0 -56 9.5 -96.5t33 -67.5t63 -40t98.5 -13q32 0 59.5 6t44.5 8l12 -64q-13 -4 -46 -10.5t-75 -7.5l3 -95 h-78z" />
<glyph horiz-adv-x="532" d="M70 0v70q21 7 36 32t24.5 54.5t14 56.5t5.5 39h-95v69h100q2 26 2 56v62v69q0 51 13.5 85.5t35 57t49 34t56 16.5t55.5 6t48 2l4 -67q-33 -3 -66.5 -6t-59.5 -15.5t-42 -39.5t-15 -77q1 -15 1 -30.5v-30.5q0 -33 -1.5 -63.5t-3.5 -58.5h184v-69h-190q-14 -130 -62 -183 h326v-69h-419z" />
<glyph horiz-adv-x="660" d="M396 323h188v-69h-219v-97h219v-69h-219v-88h-83v88h-207v69h207v97h-207v69h178l-202 384h93l183 -366l195 366h88z" />
</font>
</defs>
</svg>
