<?xml version="1.0" standalone="no"?>
<!DOCTYPE svg PUBLIC "-//W3C//DTD SVG 1.1//EN" "http://www.w3.org/Graphics/SVG/1.1/DTD/svg11.dtd" >
<svg xmlns="http://www.w3.org/2000/svg" xmlns:xlink="http://www.w3.org/1999/xlink" version="1.1">
<metadata>
This is a custom SVG webfont generated by Typotheque.
</metadata>
<defs>
<font id="typotheque_webfonts_service" horiz-adv-x="801" >
<font-face units-per-em="1000" ascent="780" descent="-220" />
<missing-glyph horiz-adv-x="255" />
<glyph unicode=" "  horiz-adv-x="255" />
<glyph unicode="&#x09;" horiz-adv-x="255" />
<glyph unicode="&#xa0;" horiz-adv-x="255" />
<glyph unicode="A" horiz-adv-x="636" d="M318 707h118l148 -707h-82l-53 266h-270l-131 -266h-82zM435 330l-53 276l-11 60l-27 -61l-134 -275h225z" />
<glyph unicode="B" horiz-adv-x="614" d="M142 707h192q39 0 75 -7t64.5 -25t45.5 -48.5t17 -76.5q0 -28 -7.5 -55.5t-22.5 -50.5t-37 -40.5t-50 -25.5v-3q59 -8 95 -49.5t36 -100.5t-19.5 -101.5t-54 -70t-82.5 -40.5t-104 -13h-223zM278 66q40 0 75 6t60.5 22.5t40 46.5t14.5 77q0 43 -19.5 66t-49 34t-65 13 t-66.5 2h-86l-27 -267h123zM289 396q38 0 68 7.5t51 24.5t32 45t11 69q0 34 -12 54.5t-32.5 31t-46.5 14t-54 3.5h-91l-26 -249h100z" />
<glyph unicode="C" horiz-adv-x="638" d="M378 -10q-73 0 -132 22t-100.5 63.5t-64 100.5t-22.5 134q0 91 26.5 165t77 127t123.5 82t165 29q51 0 89.5 -6t74.5 -22l-27 -63q-19 7 -35 11.5t-32.5 7t-34.5 3.5t-41 1q-74 0 -131 -24.5t-95.5 -68t-58 -104t-19.5 -133.5q0 -62 18.5 -109.5t53 -79.5t83 -48.5 t108.5 -16.5q41 0 78 4.5t74 16.5l15 -66q-50 -16 -95.5 -21t-97.5 -5z" />
<glyph unicode="D" horiz-adv-x="728" d="M142 707h187q74 0 137.5 -18t110.5 -56t74 -97t27 -141q0 -99 -28.5 -173t-81.5 -123.5t-130 -74t-174 -24.5h-197zM279 66q154 0 236 81t82 244q0 67 -20 114.5t-57 77.5t-88 44t-113 14h-105l-61 -575h126z" />
<glyph unicode="E" horiz-adv-x="567" d="M142 707h393l-7 -65h-314l-26 -254h291l-6 -66h-292l-27 -257h337l-7 -65h-417z" />
<glyph unicode="F" horiz-adv-x="494" d="M142 707h352l-6 -65h-274l-28 -274h251l-7 -66h-252l-31 -302h-80z" />
<glyph unicode="G" horiz-adv-x="665" d="M378 -10q-73 0 -132 22t-100.5 63t-64 100.5t-22.5 134.5q0 91 27 165t77 127t122.5 82t164.5 29q45 0 87.5 -5.5t78.5 -22.5l-29 -62q-19 6 -35 10.5t-32 7t-34 3.5t-41 1q-74 0 -131 -24t-95 -67.5t-57.5 -104.5t-19.5 -134q0 -62 18.5 -109.5t52.5 -79.5t82.5 -48.5 t108.5 -16.5q27 0 51.5 3t42.5 8l27 278h80l-33 -326q-24 -9 -45 -15.5t-43.5 -10.5t-48 -6t-57.5 -2z" />
<glyph unicode="H" horiz-adv-x="738" d="M142 707h79l-33 -320h380l33 320h80l-74 -707h-80l35 322h-381l-34 -322h-80z" />
<glyph unicode="I" horiz-adv-x="278" d="M142 707h79l-74 -707h-80z" />
<glyph unicode="J" horiz-adv-x="279" d="M-89 -128q47 25 78 52t50.5 60t29.5 73.5t16 93.5l58 556h79l-58 -554q-6 -60 -19.5 -111t-39.5 -93.5t-66.5 -76.5t-100.5 -59z" />
<glyph unicode="K" horiz-adv-x="602" d="M210 367l1 16l308 324h100l-318 -327l252 -359l-73 -40zM142 707h79l-74 -707h-80z" />
<glyph unicode="L" horiz-adv-x="486" d="M142 707h79l-67 -639h307l-7 -68h-387z" />
<glyph unicode="M" horiz-adv-x="889" d="M237 707h107l53 -661l296 661h106l-20 -707h-78l24 610l-273 -610h-126l-49 612l-192 -612h-79z" />
<glyph unicode="N" horiz-adv-x="724" d="M143 707h116l264 -649l66 649h79l-76 -707h-123l-256 633l-66 -633h-80z" />
<glyph unicode="O" d="M359 -11q-73 0 -128.5 22.5t-93.5 64.5t-57.5 100.5t-19.5 130.5q0 90 26.5 165.5t76.5 130t122.5 85t164.5 30.5q73 0 129 -22.5t94 -64t58 -100.5t20 -131q0 -91 -26.5 -166.5t-77 -130t-123 -84.5t-165.5 -30zM369 55q75 0 131 27t93.5 73.5t56 108.5t18.5 133 q0 56 -14.5 102.5t-43 80t-71.5 52t-101 18.5q-73 0 -128.5 -26.5t-93 -72.5t-56.5 -107.5t-19 -131.5q0 -56 14 -103t42 -81t71 -53.5t101 -19.5z" />
<glyph unicode="P" horiz-adv-x="592" d="M142 707h229q46 0 84 -11.5t65.5 -35.5t42.5 -59.5t15 -83.5q0 -69 -25 -118t-67 -80t-97.5 -45t-117.5 -14h-20l7 66h22.5t20.5 1q42 3 77 13.5t60.5 32t40 55t14.5 82.5q0 37 -11 62t-31 41t-47.5 23t-60.5 7h-128l-67 -643h-81z" />
<glyph unicode="Q" d="M350 -93l6 62l383 -59l-8 -67zM359 -11q-73 0 -128.5 22.5t-93.5 64.5t-57.5 100.5t-19.5 130.5q0 90 26.5 165.5t76.5 130t122.5 85t164.5 30.5q73 0 129 -22.5t94 -64t58 -100.5t20 -131q0 -91 -26.5 -166.5t-77 -130t-123 -84.5t-165.5 -30zM369 55q75 0 131 27 t93.5 73.5t56 108.5t18.5 133q0 56 -14.5 102.5t-43 80t-71.5 52t-101 18.5q-73 0 -128.5 -26.5t-93 -72.5t-56.5 -107.5t-19 -131.5q0 -56 14 -103t42 -81t71 -53.5t101 -19.5z" />
<glyph unicode="R" horiz-adv-x="641" d="M327 304q-23 -2 -43.5 -2.5t-41.5 -0.5h-61l-33 -301h-81l75 707h218q45 0 83.5 -11t66.5 -33t43.5 -54t15.5 -74q0 -73 -39.5 -131t-120.5 -81l192 -305l-76 -36zM280 365q46 0 84 9.5t64.5 29.5t41 52t14.5 76q0 30 -11 51.5t-31.5 34.5t-48 19t-60.5 6h-118l-28 -278 h93z" />
<glyph unicode="S" horiz-adv-x="523" d="M210 -11q-24 0 -51.5 4t-54 10.5t-50 15t-40.5 18.5l31 67q37 -17 81.5 -31t89.5 -14q33 0 63.5 6.5t53 22t36 41t13.5 64.5q0 33 -21.5 57.5t-54 46t-70 42.5t-70 48t-54 62.5t-21.5 85.5q0 45 18.5 79t49.5 56.5t71.5 33.5t85.5 11q54 0 101.5 -12.5t76.5 -28.5 l-26 -62q-31 14 -72 24t-83 10q-28 0 -54 -5t-46 -18t-32 -34t-12 -52q0 -33 21.5 -58t54 -47.5t70.5 -45t70.5 -49.5t54 -61.5t21.5 -80.5q0 -52 -20 -91t-54.5 -64.5t-80 -38t-96.5 -12.5z" />
<glyph unicode="T" horiz-adv-x="571" d="M279 640h-242l8 67h563l-8 -67h-241l-67 -640h-80z" />
<glyph unicode="U" horiz-adv-x="724" d="M337 -12q-48 0 -93.5 9.5t-81.5 34t-58 66t-22 104.5v19t2 21l49 465h81l-48 -458q-1 -10 -1.5 -19t-0.5 -17q0 -47 14 -77.5t38 -48t55.5 -24.5t66.5 -7q40 0 76.5 10t65 34.5t47.5 66.5t26 106l45 434h76l-46 -437q-9 -85 -38 -140t-69.5 -86.5t-88.5 -43.5t-95 -12z " />
<glyph unicode="V" horiz-adv-x="655" d="M54 707h83l150 -650l330 650h84l-365 -707h-110z" />
<glyph unicode="W" horiz-adv-x="964" d="M77 707h83l87 -643l232 485l-32 158h83l123 -645l253 645h80l-283 -707h-111l-91 442l-211 -442h-108z" />
<glyph unicode="X" horiz-adv-x="588" d="M261 373l-163 334h89l127 -273l202 273h87l-256 -333l184 -374h-89l-148 309l-231 -309h-92z" />
<glyph unicode="Y" horiz-adv-x="591" d="M248 274l-184 433h89l144 -365l235 365h86l-291 -432l-28 -275h-80z" />
<glyph unicode="Z" horiz-adv-x="559" d="M12 70l431 565h-345l7 72h438l-6 -63l-434 -573h394l-7 -71h-485z" />
<glyph unicode="&#xc1;" horiz-adv-x="636" d="M318 707h118l148 -707h-82l-53 266h-270l-131 -266h-82zM435 330l-53 276l-11 60l-27 -61l-134 -275h225zM297 791l229 80l19 -70l-232 -64z" />
<glyph unicode="&#xc2;" horiz-adv-x="636" d="M318 707h118l148 -707h-82l-53 266h-270l-131 -266h-82zM435 330l-53 276l-11 60l-27 -61l-134 -275h225zM390 806l-155 -68l-21 54l182 85l160 -85l-30 -55z" />
<glyph unicode="&#xc0;" horiz-adv-x="636" d="M219 801l27 72l211 -82l-18 -55zM318 707h118l148 -707h-82l-53 266h-270l-131 -266h-82zM435 330l-53 276l-11 60l-27 -61l-134 -275h225z" />
<glyph unicode="&#xc3;" horiz-adv-x="636" d="M318 707h118l148 -707h-82l-53 266h-270l-131 -266h-82zM435 330l-53 276l-11 60l-27 -61l-134 -275h225zM442 747q-15 0 -31 6t-31.5 12.5t-31 12.5t-28.5 6q-26 0 -40.5 -6.5t-32.5 -18.5l-27 43q22 19 46.5 32t59.5 13q18 0 34 -5.5t31 -12.5t29.5 -12.5t28.5 -5.5 q26 0 45 10t29 17l25 -45q-7 -6 -16.5 -14t-22 -15t-29.5 -12t-38 -5z" />
<glyph unicode="&#xc7;" horiz-adv-x="638" d="M378 -10q-73 0 -132 22t-100.5 63.5t-64 100.5t-22.5 134q0 91 26.5 165t77 127t123.5 82t165 29q51 0 89.5 -6t74.5 -22l-27 -63q-19 7 -35 11.5t-32.5 7t-34.5 3.5t-41 1q-74 0 -131 -24.5t-95.5 -68t-58 -104t-19.5 -133.5q0 -62 18.5 -109.5t53 -79.5t83 -48.5 t108.5 -16.5q41 0 78 4.5t74 16.5l15 -66q-50 -16 -95.5 -21t-97.5 -5zM279 -195q34 20 48.5 38.5t17.5 38.5q2 16 -3 32.5t-13 34.5h74q16 -32 13 -66q-3 -33 -28.5 -64.5t-87.5 -57.5z" />
<glyph unicode="&#xc9;" horiz-adv-x="567" d="M258 791l229 80l19 -70l-232 -64zM142 707h393l-7 -65h-314l-26 -254h291l-6 -66h-292l-27 -257h337l-7 -65h-417z" />
<glyph unicode="&#xca;" horiz-adv-x="567" d="M142 707h393l-7 -65h-314l-26 -254h291l-6 -66h-292l-27 -257h337l-7 -65h-417zM349 806l-155 -68l-21 54l182 85l160 -85l-30 -55z" />
<glyph unicode="&#xcb;" horiz-adv-x="567" d="M195 808l62 56l50 -56l-62 -59zM401 808l61 56l51 -56l-63 -59zM142 707h393l-7 -65h-314l-26 -254h291l-6 -66h-292l-27 -257h337l-7 -65h-417z" />
<glyph unicode="&#xc8;" horiz-adv-x="567" d="M193 801l27 72l211 -82l-18 -55zM142 707h393l-7 -65h-314l-26 -254h291l-6 -66h-292l-27 -257h337l-7 -65h-417z" />
<glyph unicode="&#xcd;" horiz-adv-x="278" d="M142 707h79l-74 -707h-80zM119 791l229 80l19 -70l-232 -64z" />
<glyph unicode="&#xce;" horiz-adv-x="278" d="M142 707h79l-74 -707h-80zM196 806l-155 -68l-21 54l182 85l160 -85l-30 -55z" />
<glyph unicode="&#xcf;" horiz-adv-x="278" d="M142 707h79l-74 -707h-80zM34 808l62 56l50 -56l-62 -59zM240 808l61 56l51 -56l-63 -59z" />
<glyph unicode="&#xd1;" horiz-adv-x="724" d="M480 747q-15 0 -31 6t-31.5 12.5t-31 12.5t-28.5 6q-26 0 -40.5 -6.5t-32.5 -18.5l-27 43q22 19 46.5 32t59.5 13q18 0 34 -5.5t31 -12.5t29.5 -12.5t28.5 -5.5q26 0 45 10t29 17l25 -45q-7 -6 -16.5 -14t-22 -15t-29.5 -12t-38 -5zM143 707h116l264 -649l66 649h79 l-76 -707h-123l-256 633l-66 -633h-80z" />
<glyph unicode="&#xd6;" d="M293 808l62 56l50 -56l-62 -59zM499 808l61 56l51 -56l-63 -59zM359 -11q-73 0 -128.5 22.5t-93.5 64.5t-57.5 100.5t-19.5 130.5q0 90 26.5 165.5t76.5 130t122.5 85t164.5 30.5q73 0 129 -22.5t94 -64t58 -100.5t20 -131q0 -91 -26.5 -166.5t-77 -130t-123 -84.5 t-165.5 -30zM369 55q75 0 131 27t93.5 73.5t56 108.5t18.5 133q0 56 -14.5 102.5t-43 80t-71.5 52t-101 18.5q-73 0 -128.5 -26.5t-93 -72.5t-56.5 -107.5t-19 -131.5q0 -56 14 -103t42 -81t71 -53.5t101 -19.5z" />
<glyph unicode="&#xd5;" d="M507 747q-15 0 -31 6t-31.5 12.5t-31 12.5t-28.5 6q-26 0 -40.5 -6.5t-32.5 -18.5l-27 43q22 19 46.5 32t59.5 13q18 0 34 -5.5t31 -12.5t29.5 -12.5t28.5 -5.5q26 0 45 10t29 17l25 -45q-7 -6 -16.5 -14t-22 -15t-29.5 -12t-38 -5zM359 -11q-73 0 -128.5 22.5 t-93.5 64.5t-57.5 100.5t-19.5 130.5q0 90 26.5 165.5t76.5 130t122.5 85t164.5 30.5q73 0 129 -22.5t94 -64t58 -100.5t20 -131q0 -91 -26.5 -166.5t-77 -130t-123 -84.5t-165.5 -30zM369 55q75 0 131 27t93.5 73.5t56 108.5t18.5 133q0 56 -14.5 102.5t-43 80t-71.5 52 t-101 18.5q-73 0 -128.5 -26.5t-93 -72.5t-56.5 -107.5t-19 -131.5q0 -56 14 -103t42 -81t71 -53.5t101 -19.5z" />
<glyph unicode="&#xd3;" d="M346 791l229 80l19 -70l-232 -64zM359 -11q-73 0 -128.5 22.5t-93.5 64.5t-57.5 100.5t-19.5 130.5q0 90 26.5 165.5t76.5 130t122.5 85t164.5 30.5q73 0 129 -22.5t94 -64t58 -100.5t20 -131q0 -91 -26.5 -166.5t-77 -130t-123 -84.5t-165.5 -30zM369 55q75 0 131 27 t93.5 73.5t56 108.5t18.5 133q0 56 -14.5 102.5t-43 80t-71.5 52t-101 18.5q-73 0 -128.5 -26.5t-93 -72.5t-56.5 -107.5t-19 -131.5q0 -56 14 -103t42 -81t71 -53.5t101 -19.5z" />
<glyph unicode="&#xd4;" d="M451 806l-155 -68l-21 54l182 85l160 -85l-30 -55zM359 -11q-73 0 -128.5 22.5t-93.5 64.5t-57.5 100.5t-19.5 130.5q0 90 26.5 165.5t76.5 130t122.5 85t164.5 30.5q73 0 129 -22.5t94 -64t58 -100.5t20 -131q0 -91 -26.5 -166.5t-77 -130t-123 -84.5t-165.5 -30z M369 55q75 0 131 27t93.5 73.5t56 108.5t18.5 133q0 56 -14.5 102.5t-43 80t-71.5 52t-101 18.5q-73 0 -128.5 -26.5t-93 -72.5t-56.5 -107.5t-19 -131.5q0 -56 14 -103t42 -81t71 -53.5t101 -19.5z" />
<glyph unicode="&#xda;" horiz-adv-x="725" d="M328 791l229 80l19 -70l-232 -64zM337 -12q-48 0 -93.5 9.5t-81.5 34t-58 66t-22 104.5v19t2 21l49 465h81l-48 -458q-1 -10 -1.5 -19t-0.5 -17q0 -47 14 -77.5t38 -48t55.5 -24.5t66.5 -7q40 0 76.5 10t65 34.5t47.5 66.5t26 106l45 434h76l-46 -437q-9 -85 -38 -140 t-69.5 -86.5t-88.5 -43.5t-95 -12z" />
<glyph unicode="&#xdb;" horiz-adv-x="725" d="M337 -12q-48 0 -93.5 9.5t-81.5 34t-58 66t-22 104.5v19t2 21l49 465h81l-48 -458q-1 -10 -1.5 -19t-0.5 -17q0 -47 14 -77.5t38 -48t55.5 -24.5t66.5 -7q40 0 76.5 10t65 34.5t47.5 66.5t26 106l45 434h76l-46 -437q-9 -85 -38 -140t-69.5 -86.5t-88.5 -43.5t-95 -12z M421 806l-155 -68l-21 54l182 85l160 -85l-30 -55z" />
<glyph unicode="&#xd9;" horiz-adv-x="725" d="M267 801l27 72l211 -82l-18 -55zM337 -12q-48 0 -93.5 9.5t-81.5 34t-58 66t-22 104.5v19t2 21l49 465h81l-48 -458q-1 -10 -1.5 -19t-0.5 -17q0 -47 14 -77.5t38 -48t55.5 -24.5t66.5 -7q40 0 76.5 10t65 34.5t47.5 66.5t26 106l45 434h76l-46 -437q-9 -85 -38 -140 t-69.5 -86.5t-88.5 -43.5t-95 -12z" />
<glyph unicode="&#xdc;" horiz-adv-x="725" d="M251 808l62 56l50 -56l-62 -59zM457 808l61 56l51 -56l-63 -59zM337 -12q-48 0 -93.5 9.5t-81.5 34t-58 66t-22 104.5v19t2 21l49 465h81l-48 -458q-1 -10 -1.5 -19t-0.5 -17q0 -47 14 -77.5t38 -48t55.5 -24.5t66.5 -7q40 0 76.5 10t65 34.5t47.5 66.5t26 106l45 434h76 l-46 -437q-9 -85 -38 -140t-69.5 -86.5t-88.5 -43.5t-95 -12z" />
<glyph unicode="&#x178;" horiz-adv-x="591" d="M248 274l-184 433h89l144 -365l235 365h86l-291 -432l-28 -275h-80zM184 808l62 56l50 -56l-62 -59zM390 808l61 56l51 -56l-63 -59z" />
<glyph unicode="&#xc6;" horiz-adv-x="906" d="M418 707h455l-6 -65h-314l-27 -254h293l-8 -66h-291l-28 -257h338l-7 -65h-416l35 322h-197l-206 -322h-89zM448 387l28 255h-26l-164 -255h162z" />
<glyph unicode="&#x152;" horiz-adv-x="1090" d="M359 -11q-73 0 -128.5 22.5t-93.5 64t-57.5 100.5t-19.5 131q0 90 26.5 165.5t76.5 130t122.5 85t164.5 30.5q68 0 119.5 -20t87.5 -56l7 65h393l-7 -65h-313l-27 -254h292l-7 -66h-291l-28 -257h337l-6 -65h-417l6 61q-46 -35 -105.5 -53.5t-131.5 -18.5zM369 56 q84 0 143 32.5t97 89.5l36 345q-25 59 -76.5 92.5t-130.5 33.5q-73 0 -128.5 -26.5t-93 -72.5t-56.5 -107t-19 -131q0 -56 14 -102.5t42 -81t71 -53.5t101 -19z" />
<glyph unicode="a" horiz-adv-x="510" d="M142 -13q-29 0 -49.5 12t-34 34t-20 52t-6.5 65q0 67 22 138t63.5 129.5t102 96t137.5 37.5q25 0 53.5 -2.5t45.5 -5.5l-56 -543h-76l11 99q-58 -52 -104.5 -82t-88.5 -30zM161 59q18 0 44.5 14.5t53 34t49.5 39t34 29.5l33 307q-6 2 -16 2h-18q-56 0 -99 -31.5 t-72.5 -80t-45 -106t-15.5 -109.5q0 -42 12.5 -70.5t39.5 -28.5z" />
<glyph unicode="b" horiz-adv-x="528" d="M189 -8q-44 0 -77.5 6.5t-64.5 15.5l78 741h75l-29 -284q18 12 40 26t46 25.5t50 19t54 7.5q63 0 92.5 -41t29.5 -119q0 -65 -17 -135t-52.5 -128.5t-91 -96t-133.5 -37.5zM196 56q40 0 71.5 16t54.5 43t39 61.5t26 71.5t14.5 73.5t4.5 67.5q0 28 -4.5 46.5t-13 28.5 t-20.5 14t-27 4q-20 0 -43.5 -8t-48 -19.5t-47 -25t-39.5 -24.5l-36 -339q20 -5 33.5 -7.5t35.5 -2.5z" />
<glyph unicode="c" horiz-adv-x="450" d="M172 -12q-38 0 -63 18.5t-40 47.5t-21 63.5t-6 66.5q0 77 18 145.5t52 119.5t84 81t114 30q45 0 77 -15.5t51 -33.5l-42 -48q-16 12 -38.5 22.5t-52.5 10.5q-54 0 -89.5 -31t-56 -76t-29 -97t-8.5 -94q0 -69 17 -105t39 -36q38 0 80.5 13t101.5 44l27 -54 q-20 -12 -42.5 -25t-49 -23.5t-57 -17t-66.5 -6.5z" />
<glyph unicode="d" horiz-adv-x="513" d="M144 -13q-31 0 -51.5 14.5t-33 39t-17.5 57t-5 67.5q0 85 24.5 156t67.5 122t102.5 79t128.5 28h25l22 204h76l-81 -754h-76l11 99q-51 -51 -99.5 -81.5t-93.5 -30.5zM163 59q20 0 45 12t49.5 29.5t47.5 37.5t39 37l33 310q-7 1 -18 1h-25q-46 0 -86.5 -26t-70.5 -68.5 t-47 -97t-17 -109.5q0 -39 3.5 -64t10 -38.5t16 -18.5t20.5 -5z" />
<glyph unicode="e" horiz-adv-x="468" d="M173 -12q-38 0 -63 17t-39.5 45.5t-20.5 65.5t-6 76q0 73 17 140t50 118t82 81t114 30q36 0 62 -10t42.5 -27.5t24.5 -40t8 -47.5q0 -30 -12 -52.5t-32.5 -40t-46 -30.5t-52.5 -23l-178 -66v-27q0 -69 14 -105t49 -36q42 0 85.5 16.5t85.5 38.5l27 -57q-21 -12 -44 -24 t-49 -21t-55 -15t-63 -6zM289 353q38 15 59.5 36t21.5 44q0 35 -21 49t-45 14q-42 0 -71.5 -18t-50 -47t-33 -66t-19.5 -74z" />
<glyph unicode="f" horiz-adv-x="311" d="M121 483h-80l7 63h80l4 43q5 58 24.5 94t49 56t66 27.5t74.5 7.5q29 0 57 -5.5t46 -12.5l-20 -61q-19 5 -39.5 9.5t-52.5 4.5q-63 0 -94 -26.5t-36 -88.5l-5 -48h119l-6 -63h-119l-74 -703h-74z" />
<glyph unicode="g" horiz-adv-x="509" d="M147 -230q-30 0 -57.5 2.5t-50.5 6t-39.5 7.5t-24.5 6l18 68q11 -3 28.5 -7t37 -7.5t39.5 -6t37 -2.5q36 0 68 5t56.5 20t40.5 43t21 75l13 119q-58 -55 -103 -83.5t-90 -28.5q-58 0 -82.5 41.5t-24.5 122.5q0 78 24.5 150.5t67.5 128t102.5 88.5t128.5 33 q24 0 52.5 -2.5t46.5 -5.5l-61 -579q-6 -57 -30 -94t-58.5 -59.5t-76.5 -31.5t-83 -9zM160 59q18 0 44.5 14.5t53.5 34t49.5 39t33.5 29.5l33 307q-6 2 -15 2h-19q-50 0 -92 -28.5t-72.5 -74.5t-48 -104t-17.5 -116q0 -62 13.5 -82.5t36.5 -20.5z" />
<glyph unicode="h" horiz-adv-x="525" d="M126 754h77l-32 -298l46 38t47 33.5t50 23.5t55 9q54 0 74.5 -25.5t20.5 -79.5q0 -14 -1 -29t-3 -32l-43 -394h-76l42 378q3 31 3 55q0 29 -9.5 42t-33.5 13q-32 0 -74 -24t-106 -77l-41 -387h-76z" />
<glyph unicode="i" horiz-adv-x="233" d="M104 546h76l-57 -546h-76zM94 715l72 63l59 -63l-73 -63z" />
<glyph unicode="j" horiz-adv-x="233" d="M-76 -220q-23 0 -44 4.5t-31 8.5l19 65q10 -3 27.5 -7t37.5 -4q31 0 51 9.5t32.5 27.5t18.5 43t9 56l60 563h76l-60 -564q-6 -59 -23 -98t-42.5 -62t-59 -32.5t-71.5 -9.5zM91 715l72 63l59 -63l-73 -63z" />
<glyph unicode="k" horiz-adv-x="482" d="M173 288l201 258h90l-203 -255l181 -280l-77 -25zM125 754h77l-80 -754h-76z" />
<glyph unicode="l" horiz-adv-x="233" d="M125 754h77l-80 -754h-76z" />
<glyph unicode="m" horiz-adv-x="799" d="M104 546h77l-9 -89q17 15 38.5 33t46 33.5t51 26t54.5 10.5q52 0 73 -23.5t20 -71.5q21 18 44 35t47 30.5t49 21.5t51 8q52 0 72 -24.5t20 -78.5q0 -14 -1 -30t-3 -33l-42 -394h-76l41 378q2 17 3 30.5t1 24.5q0 32 -10 44t-36 12q-35 0 -73.5 -25t-91.5 -70l-42 -394 h-76l41 378q2 17 3.5 30.5t1.5 24.5q0 32 -10 43t-36 11q-31 0 -70.5 -25t-97.5 -75l-41 -387h-76z" />
<glyph unicode="n" horiz-adv-x="526" d="M104 546h77l-9 -90l46 38t47 33.5t50 23.5t55 9q54 0 74 -25.5t20 -79.5q0 -27 -3 -61l-43 -394h-76l41 378q2 15 3 28t1 24q0 32 -9.5 45t-34.5 13q-32 0 -73.5 -24t-105.5 -77l-41 -387h-76z" />
<glyph unicode="o" horiz-adv-x="515" d="M200 -12q-39 0 -68.5 15.5t-50 41.5t-31 61t-10.5 74q0 87 20 157t56 119.5t86 76.5t110 27q40 0 69.5 -16.5t49 -42.5t29 -60t9.5 -68q0 -65 -14 -133t-45.5 -124t-83 -92t-126.5 -36zM219 54q34 0 65.5 22.5t55 63t37.5 96t14 122.5q0 72 -23.5 105t-78.5 33 q-34 0 -65 -23.5t-54 -64t-37 -95.5t-14 -118q0 -24 3.5 -49t14 -45.5t30 -33.5t52.5 -13z" />
<glyph unicode="p" horiz-adv-x="529" d="M105 546h75l-7 -76q18 13 39 27t45 25t50.5 18.5t54.5 7.5q63 0 92.5 -41t29.5 -119q0 -65 -16.5 -135t-52 -128t-91 -95.5t-133.5 -37.5q-20 0 -37 2t-32 5l-24 -219h-76zM197 56q40 0 71.5 16t54.5 43t39 61.5t26 71.5t14.5 73.5t4.5 67.5q0 28 -5 46t-13.5 28.5 t-20.5 14.5t-26 4q-20 0 -43.5 -8t-48 -20t-47 -25.5t-38.5 -24.5l-36 -338q21 -4 33.5 -7t34.5 -3z" />
<glyph unicode="q" horiz-adv-x="510" d="M335 99q-59 -51 -105 -81.5t-88 -30.5q-58 0 -82.5 43t-24.5 125q0 78 24.5 150t67.5 126.5t102 87t128 32.5q25 0 53.5 -2.5t45.5 -5.5l-79 -763h-76zM161 59q18 0 44.5 14.5t53 34t49.5 39t34 29.5l33 307q-4 0 -8 1q-4 0 -10.5 0.5t-15.5 0.5q-50 0 -92 -28t-73 -73.5 t-48 -103t-17 -115.5q0 -33 3.5 -53.5t10 -32.5t16 -16t20.5 -4z" />
<glyph unicode="r" horiz-adv-x="350" d="M104 546h76l-9 -91q12 11 31 28t42 33.5t49 28t53 11.5q8 0 13 -0.5t13 -1.5l-15 -71q-8 2 -11.5 1.5t-12.5 -0.5q-18 0 -41 -11t-46.5 -27t-45 -34t-37.5 -31l-40 -381h-76z" />
<glyph unicode="s" horiz-adv-x="417" d="M154 -9q-38 0 -75.5 4.5t-73.5 20.5l22 66q31 -11 64 -18t68 -7q15 0 36 3t40 11.5t32.5 24t13.5 41.5q0 27 -15.5 47.5t-39 39t-51 36t-51 39t-39 47.5t-15.5 61q0 42 14.5 70.5t39.5 46t57.5 25t67.5 7.5q38 0 78 -9t64 -21l-23 -59q-35 13 -63.5 19.5t-65.5 6.5 q-18 0 -35 -3.5t-31 -12.5t-22.5 -23.5t-8.5 -35.5q0 -27 16 -47.5t39.5 -39t51 -36.5t51 -40t39.5 -50t16 -65q0 -43 -19 -71.5t-48 -46t-64.5 -24.5t-69.5 -7z" />
<glyph unicode="t" horiz-adv-x="373" d="M181 -12q-44 0 -72 24.5t-30 81.5q-2 21 1 41l38 347h-80l7 64h81l11 112h75l-11 -112h169l-6 -64h-170l-37 -345q-5 -45 7 -62.5t38 -17.5q23 0 54.5 9.5t59.5 23.5l17 -58q-24 -16 -63.5 -30t-88.5 -14z" />
<glyph unicode="u" horiz-adv-x="525" d="M159 -11q-57 0 -80.5 26t-23.5 86q0 22 3 48l43 397h76l-42 -378q-3 -32 -3 -53q0 -34 10.5 -47t36.5 -13q24 0 47 9t45 23.5t42.5 33t40.5 37.5l42 388h76l-58 -546h-76l9 90q-43 -43 -87 -72t-101 -29z" />
<glyph unicode="v" horiz-adv-x="473" d="M43 546h83l71 -492l146 307q19 41 32 87.5t13 78.5q0 5 -0.5 9.5t-1.5 9.5h78q1 -2 1 -9v-10q0 -38 -14 -85t-34 -89l-171 -353h-111z" />
<glyph unicode="w" horiz-adv-x="776" d="M44 546h82l71 -492l180 313l-30 179h82l71 -492l8 16t17.5 36t23 49t26.5 56q32 66 71 150q10 20 18 42.5t14 44t9 42t3 36.5v10t-1 10h79q0 -2 0.5 -9.5t0.5 -9.5q0 -19 -4 -41t-10.5 -45t-15 -45.5t-18.5 -42.5l-171 -353h-113l-44 273l-157 -273h-101z" />
<glyph unicode="x" horiz-adv-x="460" d="M194 291l-114 255h81l83 -192l138 192h83l-192 -257l126 -289h-82l-93 224l-163 -224h-85z" />
<glyph unicode="y" horiz-adv-x="477" d="M173 0h-41l-85 546h82l70 -492q1 1 7.5 15.5t17 36t23.5 49t27 56.5q32 67 72 150q20 41 32.5 87.5t12.5 78.5q0 5 -0.5 9.5t-0.5 9.5h79q0 -2 0.5 -9.5t0.5 -9.5q0 -38 -14 -85t-34 -89l-277 -573h-79z" />
<glyph unicode="z" horiz-adv-x="460" d="M8 66l338 414h-268l7 66h356l-7 -63l-342 -418h302l-7 -65h-386z" />
<glyph unicode="&#xe1;" horiz-adv-x="510" d="M142 -13q-29 0 -49.5 12t-34 34t-20 52t-6.5 65q0 67 22 138t63.5 129.5t102 96t137.5 37.5q25 0 53.5 -2.5t45.5 -5.5l-56 -543h-76l11 99q-58 -52 -104.5 -82t-88.5 -30zM161 59q18 0 44.5 14.5t53 34t49.5 39t34 29.5l33 307q-6 2 -16 2h-18q-56 0 -99 -31.5 t-72.5 -80t-45 -106t-15.5 -109.5q0 -42 12.5 -70.5t39.5 -28.5zM270 666l186 135l38 -60l-194 -123z" />
<glyph unicode="&#xe0;" horiz-adv-x="510" d="M142 -13q-29 0 -49.5 12t-34 34t-20 52t-6.5 65q0 67 22 138t63.5 129.5t102 96t137.5 37.5q25 0 53.5 -2.5t45.5 -5.5l-56 -543h-76l11 99q-58 -52 -104.5 -82t-88.5 -30zM161 59q18 0 44.5 14.5t53 34t49.5 39t34 29.5l33 307q-6 2 -16 2h-18q-56 0 -99 -31.5 t-72.5 -80t-45 -106t-15.5 -109.5q0 -42 12.5 -70.5t39.5 -28.5zM229 734l38 60l177 -129l-31 -50z" />
<glyph unicode="&#xe2;" horiz-adv-x="510" d="M359 711l-151 -90l-32 50l191 115l160 -115l-36 -50zM142 -13q-29 0 -49.5 12t-34 34t-20 52t-6.5 65q0 67 22 138t63.5 129.5t102 96t137.5 37.5q25 0 53.5 -2.5t45.5 -5.5l-56 -543h-76l11 99q-58 -52 -104.5 -82t-88.5 -30zM161 59q18 0 44.5 14.5t53 34t49.5 39 t34 29.5l33 307q-6 2 -16 2h-18q-56 0 -99 -31.5t-72.5 -80t-45 -106t-15.5 -109.5q0 -42 12.5 -70.5t39.5 -28.5z" />
<glyph unicode="&#xe3;" horiz-adv-x="510" d="M142 -13q-29 0 -49.5 12t-34 34t-20 52t-6.5 65q0 67 22 138t63.5 129.5t102 96t137.5 37.5q25 0 53.5 -2.5t45.5 -5.5l-56 -543h-76l11 99q-58 -52 -104.5 -82t-88.5 -30zM161 59q18 0 44.5 14.5t53 34t49.5 39t34 29.5l33 307q-6 2 -16 2h-18q-56 0 -99 -31.5 t-72.5 -80t-45 -106t-15.5 -109.5q0 -42 12.5 -70.5t39.5 -28.5zM416 646q-15 0 -31 5.5t-31.5 12.5t-31 12.5t-28.5 5.5q-23 0 -37.5 -5t-32.5 -19l-29 42q4 4 12.5 12t21.5 15.5t30.5 13.5t40.5 6q18 0 34 -5.5t30.5 -12.5t28 -12.5t28.5 -5.5q26 0 44.5 10t28.5 17 l27 -43q-4 -4 -12.5 -12t-22 -16.5t-31 -14.5t-39.5 -6z" />
<glyph unicode="&#xe7;" horiz-adv-x="449" d="M172 -12q-38 0 -63 18.5t-40 47.5t-21 63.5t-6 66.5q0 77 18 145.5t52 119.5t84 81t114 30q45 0 77 -15.5t51 -33.5l-42 -48q-16 12 -38.5 22.5t-52.5 10.5q-54 0 -89.5 -31t-56 -76t-29 -97t-8.5 -94q0 -69 17 -105t39 -36q38 0 80.5 13t101.5 44l27 -54 q-20 -12 -42.5 -25t-49 -23.5t-57 -17t-66.5 -6.5zM126 -195q34 20 48.5 38.5t17.5 38.5q2 16 -3 32.5t-13 34.5h74q16 -32 13 -66q-3 -33 -28.5 -64.5t-87.5 -57.5z" />
<glyph unicode="&#xe9;" horiz-adv-x="468" d="M173 -12q-38 0 -63 17t-39.5 45.5t-20.5 65.5t-6 76q0 73 17 140t50 118t82 81t114 30q36 0 62 -10t42.5 -27.5t24.5 -40t8 -47.5q0 -30 -12 -52.5t-32.5 -40t-46 -30.5t-52.5 -23l-178 -66v-27q0 -69 14 -105t49 -36q42 0 85.5 16.5t85.5 38.5l27 -57q-21 -12 -44 -24 t-49 -21t-55 -15t-63 -6zM289 353q38 15 59.5 36t21.5 44q0 35 -21 49t-45 14q-42 0 -71.5 -18t-50 -47t-33 -66t-19.5 -74zM204 666l186 135l38 -60l-194 -123z" />
<glyph unicode="&#xe8;" horiz-adv-x="468" d="M173 -12q-38 0 -63 17t-39.5 45.5t-20.5 65.5t-6 76q0 73 17 140t50 118t82 81t114 30q36 0 62 -10t42.5 -27.5t24.5 -40t8 -47.5q0 -30 -12 -52.5t-32.5 -40t-46 -30.5t-52.5 -23l-178 -66v-27q0 -69 14 -105t49 -36q42 0 85.5 16.5t85.5 38.5l27 -57q-21 -12 -44 -24 t-49 -21t-55 -15t-63 -6zM289 353q38 15 59.5 36t21.5 44q0 35 -21 49t-45 14q-42 0 -71.5 -18t-50 -47t-33 -66t-19.5 -74zM149 734l38 60l177 -129l-31 -50z" />
<glyph unicode="&#xea;" horiz-adv-x="468" d="M173 -12q-38 0 -63 17t-39.5 45.5t-20.5 65.5t-6 76q0 73 17 140t50 118t82 81t114 30q36 0 62 -10t42.5 -27.5t24.5 -40t8 -47.5q0 -30 -12 -52.5t-32.5 -40t-46 -30.5t-52.5 -23l-178 -66v-27q0 -69 14 -105t49 -36q42 0 85.5 16.5t85.5 38.5l27 -57q-21 -12 -44 -24 t-49 -21t-55 -15t-63 -6zM289 353q38 15 59.5 36t21.5 44q0 35 -21 49t-45 14q-42 0 -71.5 -18t-50 -47t-33 -66t-19.5 -74zM308 711l-151 -90l-32 50l191 115l160 -115l-36 -50z" />
<glyph unicode="&#xeb;" horiz-adv-x="468" d="M173 -12q-38 0 -63 17t-39.5 45.5t-20.5 65.5t-6 76q0 73 17 140t50 118t82 81t114 30q36 0 62 -10t42.5 -27.5t24.5 -40t8 -47.5q0 -30 -12 -52.5t-32.5 -40t-46 -30.5t-52.5 -23l-178 -66v-27q0 -69 14 -105t49 -36q42 0 85.5 16.5t85.5 38.5l27 -57q-21 -12 -44 -24 t-49 -21t-55 -15t-63 -6zM289 353q38 15 59.5 36t21.5 44q0 35 -21 49t-45 14q-42 0 -71.5 -18t-50 -47t-33 -66t-19.5 -74zM155 714l62 56l51 -56l-62 -56zM352 714l61 56l51 -56l-63 -56z" />
<glyph unicode="&#xed;" horiz-adv-x="233" d="M73 666l186 135l38 -60l-194 -123zM104 546h76l-57 -546h-76z" />
<glyph unicode="&#xee;" horiz-adv-x="233" d="M166 711l-151 -90l-32 50l191 115l160 -115l-36 -50zM104 546h76l-57 -546h-76z" />
<glyph unicode="&#xef;" horiz-adv-x="233" d="M5 714l62 56l51 -56l-62 -56zM202 714l61 56l51 -56l-63 -56zM104 546h76l-57 -546h-76z" />
<glyph unicode="&#xf1;" horiz-adv-x="526" d="M380 646q-15 0 -31 5.5t-31.5 12.5t-31 12.5t-28.5 5.5q-23 0 -37.5 -5t-32.5 -19l-29 42q4 4 12.5 12t21.5 15.5t30.5 13.5t40.5 6q18 0 34 -5.5t30.5 -12.5t28 -12.5t28.5 -5.5q26 0 44.5 10t28.5 17l27 -43q-4 -4 -12.5 -12t-22 -16.5t-31 -14.5t-39.5 -6zM104 546h77 l-9 -90l46 38t47 33.5t50 23.5t55 9q54 0 74 -25.5t20 -79.5q0 -27 -3 -61l-43 -394h-76l41 378q2 15 3 28t1 24q0 32 -9.5 45t-34.5 13q-32 0 -73.5 -24t-105.5 -77l-41 -387h-76z" />
<glyph unicode="&#xf3;" horiz-adv-x="515" d="M224 666l186 135l38 -60l-194 -123zM200 -12q-39 0 -68.5 15.5t-50 41.5t-31 61t-10.5 74q0 87 20 157t56 119.5t86 76.5t110 27q40 0 69.5 -16.5t49 -42.5t29 -60t9.5 -68q0 -65 -14 -133t-45.5 -124t-83 -92t-126.5 -36zM219 54q34 0 65.5 22.5t55 63t37.5 96t14 122.5 q0 72 -23.5 105t-78.5 33q-34 0 -65 -23.5t-54 -64t-37 -95.5t-14 -118q0 -24 3.5 -49t14 -45.5t30 -33.5t52.5 -13z" />
<glyph unicode="&#xf4;" horiz-adv-x="515" d="M325 711l-151 -90l-32 50l191 115l160 -115l-36 -50zM200 -12q-39 0 -68.5 15.5t-50 41.5t-31 61t-10.5 74q0 87 20 157t56 119.5t86 76.5t110 27q40 0 69.5 -16.5t49 -42.5t29 -60t9.5 -68q0 -65 -14 -133t-45.5 -124t-83 -92t-126.5 -36zM219 54q34 0 65.5 22.5t55 63 t37.5 96t14 122.5q0 72 -23.5 105t-78.5 33q-34 0 -65 -23.5t-54 -64t-37 -95.5t-14 -118q0 -24 3.5 -49t14 -45.5t30 -33.5t52.5 -13z" />
<glyph unicode="&#xf6;" horiz-adv-x="515" d="M158 714l62 56l51 -56l-62 -56zM355 714l61 56l51 -56l-63 -56zM200 -12q-39 0 -68.5 15.5t-50 41.5t-31 61t-10.5 74q0 87 20 157t56 119.5t86 76.5t110 27q40 0 69.5 -16.5t49 -42.5t29 -60t9.5 -68q0 -65 -14 -133t-45.5 -124t-83 -92t-126.5 -36zM219 54 q34 0 65.5 22.5t55 63t37.5 96t14 122.5q0 72 -23.5 105t-78.5 33q-34 0 -65 -23.5t-54 -64t-37 -95.5t-14 -118q0 -24 3.5 -49t14 -45.5t30 -33.5t52.5 -13z" />
<glyph unicode="&#xf5;" horiz-adv-x="515" d="M200 -12q-39 0 -68.5 15.5t-50 41.5t-31 61t-10.5 74q0 87 20 157t56 119.5t86 76.5t110 27q40 0 69.5 -16.5t49 -42.5t29 -60t9.5 -68q0 -65 -14 -133t-45.5 -124t-83 -92t-126.5 -36zM219 54q34 0 65.5 22.5t55 63t37.5 96t14 122.5q0 72 -23.5 105t-78.5 33 q-34 0 -65 -23.5t-54 -64t-37 -95.5t-14 -118q0 -24 3.5 -49t14 -45.5t30 -33.5t52.5 -13zM375 646q-15 0 -31 5.5t-31.5 12.5t-31 12.5t-28.5 5.5q-23 0 -37.5 -5t-32.5 -19l-29 42q4 4 12.5 12t21.5 15.5t30.5 13.5t40.5 6q18 0 34 -5.5t30.5 -12.5t28 -12.5t28.5 -5.5 q26 0 44.5 10t28.5 17l27 -43q-4 -4 -12.5 -12t-22 -16.5t-31 -14.5t-39.5 -6z" />
<glyph unicode="&#xfa;" horiz-adv-x="525" d="M226 666l186 135l38 -60l-194 -123zM159 -11q-57 0 -80.5 26t-23.5 86q0 22 3 48l43 397h76l-42 -378q-3 -32 -3 -53q0 -34 10.5 -47t36.5 -13q24 0 47 9t45 23.5t42.5 33t40.5 37.5l42 388h76l-58 -546h-76l9 90q-43 -43 -87 -72t-101 -29z" />
<glyph unicode="&#xf9;" horiz-adv-x="525" d="M159 -11q-57 0 -80.5 26t-23.5 86q0 22 3 48l43 397h76l-42 -378q-3 -32 -3 -53q0 -34 10.5 -47t36.5 -13q24 0 47 9t45 23.5t42.5 33t40.5 37.5l42 388h76l-58 -546h-76l9 90q-43 -43 -87 -72t-101 -29zM158 733l38 60l177 -129l-31 -50z" />
<glyph unicode="&#xfb;" horiz-adv-x="525" d="M312 711l-151 -90l-32 50l191 115l160 -115l-36 -50zM159 -11q-57 0 -80.5 26t-23.5 86q0 22 3 48l43 397h76l-42 -378q-3 -32 -3 -53q0 -34 10.5 -47t36.5 -13q24 0 47 9t45 23.5t42.5 33t40.5 37.5l42 388h76l-58 -546h-76l9 90q-43 -43 -87 -72t-101 -29z" />
<glyph unicode="&#xfc;" horiz-adv-x="525" d="M149 714l62 56l51 -56l-62 -56zM346 714l61 56l51 -56l-63 -56zM159 -11q-57 0 -80.5 26t-23.5 86q0 22 3 48l43 397h76l-42 -378q-3 -32 -3 -53q0 -34 10.5 -47t36.5 -13q24 0 47 9t45 23.5t42.5 33t40.5 37.5l42 388h76l-58 -546h-76l9 90q-43 -43 -87 -72t-101 -29z " />
<glyph unicode="&#xff;" horiz-adv-x="477" d="M123 714l62 56l51 -56l-62 -56zM320 714l61 56l51 -56l-63 -56zM173 0h-41l-85 546h82l70 -492q1 1 7.5 15.5t17 36t23.5 49t27 56.5q32 67 72 150q20 41 32.5 87.5t12.5 78.5q0 5 -0.5 9.5t-0.5 9.5h79q0 -2 0.5 -9.5t0.5 -9.5q0 -38 -14 -85t-34 -89l-277 -573h-79z " />
<glyph unicode="&#xe6;" horiz-adv-x="767" d="M144 -13q-29 0 -49.5 13.5t-33.5 37.5t-19 56.5t-6 70.5q0 83 24.5 154t68 122.5t102.5 80.5t128 29q25 0 50.5 -2.5t42.5 -5.5l-7 -62q30 37 70 58.5t92 21.5q39 0 65 -10t41.5 -27t22.5 -39.5t7 -47.5q0 -30 -12 -52.5t-32.5 -40t-46 -30.5t-52.5 -23l-177 -66 q0 -7 -0.5 -14t-0.5 -13q0 -69 15 -105.5t50 -36.5q41 0 84.5 17.5t85.5 37.5l27 -57q-21 -12 -44 -24t-48.5 -21t-55 -15t-63.5 -6q-29 0 -49.5 9.5t-35 26.5t-23 39.5t-12.5 49.5q-58 -57 -110 -91.5t-99 -34.5zM163 59q18 0 44.5 14.5t52.5 34t48.5 39t33.5 29.5l33 307 l-41 2q-46 1 -86 -24.5t-70 -68t-47.5 -97t-17.5 -110.5q0 -39 3.5 -64t10 -38.5t16 -18.5t20.5 -5zM588 354q38 16 59.5 36.5t21.5 43.5q0 35 -20.5 48.5t-44.5 13.5q-42 0 -72 -18t-50.5 -47t-32.5 -65.5t-18 -73.5z" />
<glyph unicode="&#x153;" d="M200 -12q-39 0 -68.5 15.5t-50 41.5t-31 61t-10.5 74q0 87 20 157t56 119.5t86 76.5t110 27q55 0 89 -31t50 -74q33 49 80 77.5t110 28.5q36 0 62 -10t42.5 -27t24 -39.5t7.5 -47.5q0 -30 -12 -52.5t-32.5 -40t-46 -30.5t-52.5 -23l-177 -66q-1 -6 -1 -13.5v-13.5 q0 -69 14.5 -105.5t49.5 -36.5q41 0 85 16.5t86 38.5l27 -57q-22 -12 -45 -24t-48.5 -21t-54.5 -15t-63 -6q-49 0 -76 30t-38 77q-32 -48 -79.5 -77.5t-113.5 -29.5zM219 54q34 0 65.5 22.5t55 63t37.5 96t14 122.5q0 72 -23.5 105t-78.5 33q-32 0 -62.5 -22.5t-54.5 -62.5 t-38.5 -95.5t-14.5 -120.5q0 -24 3.5 -49t14 -45.5t30 -33.5t52.5 -13zM622 354q38 16 59.5 36.5t21.5 43.5q0 35 -20.5 48.5t-44.5 13.5q-42 0 -72 -18t-50.5 -47t-33 -65.5t-18.5 -73.5z" />
<glyph unicode="," horiz-adv-x="221" d="M-11 -144q14 32 22.5 55.5t14.5 48.5t10.5 56.5t9.5 79.5h89q-4 -38 -8.5 -67t-12.5 -56t-22 -54.5t-36 -62.5h-67v0z" />
<glyph unicode="." horiz-adv-x="219" d="M43 87h90l-9 -87h-90z" />
<glyph unicode=":" horiz-adv-x="285" d="M75 87h90l-9 -87h-91zM123 546h90l-10 -87h-90z" />
<glyph unicode=";" horiz-adv-x="282" d="M19 -144q14 32 22.5 55.5t14.5 48.5t10 56.5t9 79.5h89q-4 -38 -8.5 -67t-12.5 -56t-22 -54.5t-36 -62.5h-66zM121 546h89l-9 -87h-90z" />
<glyph unicode="?" horiz-adv-x="354" d="M75 163q-6 24 -6 50q0 39 13.5 69.5t33.5 55.5t44 46t44 42t33.5 42.5t13.5 48.5q0 31 -16 54t-40.5 38t-53.5 23t-56 11l23 66q39 -3 78.5 -14.5t72 -33.5t52.5 -55t20 -78q0 -39 -13 -68.5t-33 -53.5t-43.5 -44t-44.5 -40t-36.5 -42.5t-18.5 -50.5q-2 -14 -1 -28.5 t2 -28.5zM60 85h87l-9 -85h-86z" />
<glyph unicode="&#xbf;" horiz-adv-x="322" d="M225 -163q-39 3 -78.5 14.5t-72 33.5t-52.5 55t-20 78q0 39 13 68.5t33 53t43.5 43.5t44.5 40t36 42.5t19 51.5q2 14 1 28.5t-2 28.5l68 9q6 -24 6 -50q0 -39 -13.5 -69.5t-33.5 -55.5t-44 -46t-44 -42t-33.5 -43t-13.5 -49q0 -31 16 -53.5t40.5 -37.5t53.5 -23.5 t56 -10.5zM195 546h86l-8 -85h-87z" />
<glyph horiz-adv-x="352" d="M259 -3q-39 3 -79 14.5t-72.5 33t-52.5 54.5t-20 79q0 39 13 68.5t33 53t43.5 43.5t44.5 40t36 42.5t19 51.5q2 14 1.5 28.5t-2.5 28.5l69 9q6 -24 6 -50q0 -39 -13.5 -69.5t-34 -55.5t-44 -46t-44 -42t-34 -43t-13.5 -49q0 -32 16 -54.5t40.5 -37.5t54 -23t55.5 -11z M228 706h87l-8 -85h-87z" />
<glyph unicode="!" horiz-adv-x="275" d="M101 308l42 399h75l-43 -399l-18 -138h-67zM71 85h87l-9 -85h-87z" />
<glyph unicode="&#xa1;" horiz-adv-x="242" d="M77 238l18 138h67l-11 -138l-42 -399h-74zM103 546h87l-9 -85h-87z" />
<glyph horiz-adv-x="269" d="M107 399l18 138h67l-10 -138l-43 -399h-74zM133 707h87l-9 -85h-86z" />
<glyph unicode="-" horiz-adv-x="485" d="M95 322h298l-7 -68h-298z" />
<glyph horiz-adv-x="474" d="M95 384h298l-8 -68h-298z" />
<glyph unicode="&#x2013;" horiz-adv-x="628" d="M95 321h440l-6 -66h-440z" />
<glyph horiz-adv-x="615" d="M94 383h440l-6 -66h-440z" />
<glyph unicode="&#x2014;" horiz-adv-x="886" d="M95 321h698l-6 -66h-698z" />
<glyph horiz-adv-x="873" d="M94 383h698l-6 -66h-698z" />
<glyph unicode="_" horiz-adv-x="562" d="M-11 -97h500l-7 -68h-499z" />
<glyph unicode="@" horiz-adv-x="775" d="M323 -72q-132 0 -204 70.5t-72 203.5q0 106 31 199.5t89.5 163t144 110t195.5 40.5q115 0 176.5 -58t61.5 -175q0 -56 -15 -115.5t-45.5 -108t-78 -79.5t-113.5 -31q-33 0 -53 16t-15 50q-10 -10 -24.5 -20.5t-31 -19.5t-33.5 -14.5t-31 -5.5q-47 0 -65.5 24.5 t-18.5 69.5q0 49 14.5 94.5t42.5 80.5t69 56t94 21q24 0 51.5 -5.5t50.5 -16.5l-50 -223q-2 -6 -3 -13t-1 -12q0 -9 3 -16t13 -7q49 0 81.5 27t52 67.5t28 87.5t8.5 86q0 181 -177 181q-96 0 -167 -36.5t-118.5 -98t-71 -142.5t-23.5 -169q0 -112 55.5 -164.5t166.5 -52.5 q38 0 76.5 5t75.5 14l7 -59q-43 -16 -86.5 -20.5t-89.5 -4.5zM324 215q13 0 28 5t29.5 13.5t27.5 18.5t22 19l38 169q-20 5 -35 5q-38 0 -65.5 -16.5t-45 -43t-26 -60t-8.5 -66.5q0 -20 6 -32t29 -12z" />
<glyph unicode="&#x26;" horiz-adv-x="665" d="M690 -98q-83 0 -161 39t-144 103q-32 -23 -75 -38t-100 -15q-36 0 -68.5 8.5t-56.5 27.5t-38 48.5t-14 70.5q0 37 12 69t32.5 60t46.5 52t55 46q-11 37 -16.5 74t-5.5 69q0 42 10.5 78.5t33 63t57 41.5t81.5 15q63 0 100.5 -33.5t37.5 -96.5q0 -38 -19.5 -69t-51 -58.5 t-70 -52.5t-75.5 -50q28 -75 73.5 -145t104 -124t128 -86.5t146.5 -32.5h12t13 1l3 -61q-13 -2 -26 -3t-25 -1zM219 57q39 0 69 8.5t54 22.5q-45 51 -80.5 108t-59.5 116q-41 -33 -66.5 -71.5t-25.5 -87.5q0 -53 31 -74.5t78 -21.5zM241 413q31 21 60.5 41t52 40.5t36 40.5 t13.5 41q0 31 -19 53.5t-53 22.5q-31 0 -51 -11t-31.5 -29t-16 -42t-4.5 -50q0 -23 3.5 -52t9.5 -55zM455 168q17 13 39 18.5t51 5.5h84l-8 -65h-82q-31 0 -50.5 -5.5t-39.5 -17.5z" />
<glyph unicode="/" horiz-adv-x="363" d="M311 769h70l-319 -831h-70z" />
<glyph unicode="\" horiz-adv-x="365" d="M80 769h70l146 -831h-71z" />
<glyph unicode="|" horiz-adv-x="233" d="M127 754h73l-102 -974h-74z" />
<glyph unicode="(" horiz-adv-x="339" d="M207 -222q-43 35 -75 85.5t-53 108t-31.5 116.5t-10.5 112q0 74 17.5 157t52.5 161t86 144t119 107l40 -51q-57 -38 -101 -96.5t-74 -127.5t-45 -142.5t-15 -140.5q0 -47 8.5 -100t26 -105t44 -98t62.5 -78l-51 -52v0z" />
<glyph horiz-adv-x="337" d="M217 -153q-43 35 -75 85.5t-53 108t-31.5 116.5t-10.5 112q0 74 17.5 157t52.5 161t86 144t119 107l40 -51q-57 -38 -101 -96.5t-74 -127.5t-45 -142.5t-15 -140.5q0 -47 8.5 -100t26 -105t44 -98t62.5 -78l-51 -52v0z" />
<glyph unicode=")" horiz-adv-x="340" d="M-20 -170q55 42 99.5 104t75 133t47 147t16.5 145q0 44 -8.5 95t-26 100t-45 92t-64.5 72l51 51q44 -30 76.5 -77t54.5 -102.5t32.5 -115t10.5 -115.5q0 -77 -19 -160.5t-55 -161.5t-87.5 -146t-117.5 -113z" />
<glyph horiz-adv-x="336" d="M-20 -101q55 42 99.5 104t75 133t47 147t16.5 145q0 44 -8.5 95t-26 100t-45 92t-64.5 72l51 51q44 -30 76.5 -77t54.5 -102.5t32.5 -115t10.5 -115.5q0 -77 -19 -160.5t-55 -161.5t-87.5 -146t-117.5 -113z" />
<glyph unicode="[" horiz-adv-x="287" d="M127 754h176l-6 -64h-100l-89 -846h100l-7 -64h-177z" />
<glyph horiz-adv-x="295" d="M134 839h176l-6 -64h-100l-89 -846h100l-7 -64h-177z" />
<glyph unicode="]" horiz-adv-x="286" d="M-18 -156h100l89 846h-100l7 64h177l-103 -974h-176z" />
<glyph horiz-adv-x="292" d="M-3 -71h100l89 846h-100l7 64h177l-103 -974h-176z" />
<glyph unicode="{" horiz-adv-x="331" d="M225 -220q-34 0 -65.5 4.5t-56 17t-39 35t-14.5 59.5q0 22 6 49l42 199q3 15 -0.5 32t-13 30.5t-24.5 22.5t-34 9l7 70q19 0 36 8.5t29.5 22t20 30.5t7.5 34v206q0 49 16.5 80.5t44.5 50t64.5 26t77.5 7.5h20l-7 -64h-23q-60 0 -89.5 -24t-29.5 -81l1 -182 q0 -64 -27.5 -99.5t-72.5 -46.5v-2q33 -12 53.5 -36.5t20.5 -66.5q0 -18 -5 -43l-40 -184q-3 -15 -3 -28q0 -38 26.5 -55t74.5 -17h24l-7 -64h-20v0z" />
<glyph horiz-adv-x="344" d="M234 -140q-34 0 -65.5 4.5t-56 17t-39 35t-14.5 59.5q0 22 6 49l42 199q3 15 -0.5 32t-13 30.5t-24.5 22.5t-34 9l7 70q19 0 36 8.5t29.5 22t20 30.5t7.5 34v206q0 49 16.5 80.5t44.5 50t64.5 26t77.5 7.5h20l-7 -64h-23q-60 0 -89.5 -24t-29.5 -81l1 -182 q0 -64 -27.5 -99.5t-72.5 -46.5v-2q33 -12 53.5 -36.5t20.5 -66.5q0 -18 -5 -43l-40 -184q-3 -15 -3 -28q0 -38 26.5 -55t74.5 -17h24l-7 -64h-20v0z" />
<glyph unicode="}" horiz-adv-x="331" d="M-17 -156h23q57 0 88 24t31 76l-1 184q0 63 28 96.5t72 49.5v2q-35 9 -54.5 34t-19.5 67q0 10 1 21t4 24l40 182q3 18 3 33q0 38 -25.5 54.5t-75.5 16.5h-24l8 65h20q35 0 66.5 -5.5t55.5 -19t38 -36.5t14 -58q0 -11 -1.5 -22t-3.5 -23l-43 -206q-4 -17 -0.5 -34 t13.5 -30.5t25 -22t34 -8.5l-7 -70q-20 0 -36.5 -9t-29.5 -22.5t-20 -30.5t-7 -32l1 -199q0 -53 -17 -85.5t-45.5 -50t-65.5 -23.5t-76 -6h-20z" />
<glyph horiz-adv-x="342" d="M1 -76h23q57 0 88 24t31 76l-1 184q0 63 28 96.5t72 49.5v2q-35 9 -54.5 34t-19.5 67q0 10 1 21t4 24l40 182q3 18 3 33q0 38 -25.5 54.5t-75.5 16.5h-24l8 65h20q35 0 66.5 -5.5t55.5 -19t38 -36.5t14 -58q0 -11 -1.5 -22t-3.5 -23l-43 -206q-4 -17 -0.5 -34t13.5 -30.5 t25 -22t34 -8.5l-7 -70q-20 0 -36.5 -9t-29.5 -22.5t-20 -30.5t-7 -32l1 -199q0 -53 -17 -85.5t-45.5 -50t-65.5 -23.5t-76 -6h-20z" />
<glyph unicode="&#xa7;" horiz-adv-x="566" d="M107 -55q-64 0 -111 40l32 64q16 -13 40.5 -25t44.5 -12q19 0 31 12t18.5 29t9 36.5t2.5 33.5q0 23 -2.5 47t-5.5 48l-3 32q-2 17 -3 34t-1 34q0 61 16.5 113t49.5 89t82 58t113 21q39 0 75 -10.5t67 -33.5l-32 -60q-25 17 -56 28t-61 11q-19 0 -30 -10.5t-16.5 -25.5 t-7 -32.5t-1.5 -32.5q0 -22 3 -43l6 -50q3 -28 5.5 -55t2.5 -53q0 -61 -18.5 -113.5t-53 -91t-84 -60.5t-112.5 -22zM216 23q24 15 40.5 36t27 46t15.5 52.5t5 54.5q0 17 -1.5 35.5t-3.5 36.5l-6 63q-2 17 -3 32t-1 31q0 26 3.5 56t18.5 53l-2 3q-23 -14 -38 -34.5 t-23.5 -45t-11.5 -50.5t-3 -51q0 -30 3 -60l6 -62q2 -19 3 -37t1 -37q0 -36 -5.5 -63t-25.5 -57z" />
<glyph horiz-adv-x="438" d="M69 -216q-62 0 -111 39l32 64q17 -13 41 -25t45 -12q19 0 30.5 12t18 29t8.5 36.5t2 33.5q0 23 -2 47t-5 48l-40 353q-2 17 -3 34.5t-1 34.5q0 61 16.5 113t48.5 89t80.5 58t113.5 21q39 0 75 -10.5t67 -33.5l-33 -59q-25 16 -56 27.5t-60 11.5q-20 0 -31 -10.5t-16 -26 t-6.5 -33t-1.5 -31.5q0 -22 3 -44l46 -367q4 -28 6 -56.5t2 -56.5q0 -61 -18.5 -113t-53.5 -90.5t-84.5 -60.5t-112.5 -22zM178 -138q24 15 41 36t27.5 46t15 52t4.5 54q0 18 -1.5 36t-3.5 37l-46 384q-3 33 -3 63q0 27 3.5 57t17.5 53l-2 2q-23 -14 -37.5 -34.5t-23 -45 t-12 -50.5t-3.5 -51q0 -30 3 -60l46 -384q2 -18 3 -36.5t1 -38.5q0 -35 -5.5 -61.5t-25.5 -56.5z" />
<glyph unicode="&#x2022;" horiz-adv-x="388" d="M199 208q-30 0 -57 11t-46.5 30.5t-31 46t-11.5 56.5t11.5 56.5t31 46t46 31t56.5 11.5t56.5 -11.5t46 -31t31 -46t11.5 -56.5t-11.5 -56.5t-31 -46t-45.5 -30.5t-56 -11z" />
<glyph unicode="#" horiz-adv-x="596" d="M119 153h-89l8 64h92l21 131h-99l6 65h104l25 154h71l-24 -154h171l23 154h72l-24 -154h84l-6 -65h-89l-21 -131h96l-8 -64h-99l-24 -153h-72l25 153h-171l-24 -153h-72zM372 217l22 131h-171l-22 -131h171z" />
<glyph horiz-adv-x="617" d="M125 160h-88l8 67h91l41 253h-106l7 66h109l26 161h72l-25 -161h168l26 161h73l-27 -161h89l-7 -66h-92l-40 -253h106l-8 -67h-110l-25 -160h-72l25 160h-169l-26 -160h-72zM377 227l40 253h-168l-40 -253h168z" />
<glyph unicode="%" horiz-adv-x="782" d="M205 388q-63 0 -99 33t-36 98q0 38 11.5 73t34 62t54 43.5t72.5 16.5q66 0 101.5 -32t35.5 -99q0 -39 -11.5 -74.5t-34 -62t-55 -42.5t-73.5 -16zM211 445q27 0 46.5 11.5t32 29.5t18.5 41t6 47q0 38 -18 62t-59 24q-27 0 -46 -13t-31 -33t-17.5 -44t-5.5 -47 q0 -37 17.5 -57.5t56.5 -20.5zM548 -9q-63 0 -99 33t-36 98q0 38 11.5 73.5t34 62.5t54.5 43t73 16q65 0 101 -32t36 -99q0 -39 -11.5 -74.5t-34 -62t-55 -42.5t-74.5 -16zM554 48q27 0 46.5 11.5t32 29.5t18.5 41t6 47q0 38 -18 62t-59 24q-27 0 -46 -12.5t-31 -32.5 t-17.5 -44t-5.5 -47q0 -38 18 -58.5t56 -20.5zM73 103l587 531l38 -42l-586 -531z" />
<glyph unicode="&#x2030;" horiz-adv-x="1136" d="M205 388q-63 0 -99.5 33t-36.5 98q0 38 11.5 73t34 62t54 43.5t72.5 16.5q66 0 101.5 -32t35.5 -100q0 -39 -11.5 -74t-34 -61.5t-54.5 -42.5t-73 -16zM210 445q27 0 46.5 11.5t32 29.5t18.5 41t6 47q0 38 -18 62t-59 24q-27 0 -46 -13t-31 -33t-17.5 -44t-5.5 -47 q0 -37 17.5 -57.5t56.5 -20.5zM544 -9q-63 0 -99 33t-36 98q0 38 11.5 73.5t34 62.5t54 43t72.5 16q65 0 101.5 -32t36.5 -99q0 -39 -11.5 -74.5t-34 -62t-55 -42.5t-74.5 -16zM550 48q27 0 46.5 11.5t31.5 29.5t18 41t6 47q0 38 -17.5 62t-59.5 24q-27 0 -45.5 -12.5 t-30.5 -32.5t-17.5 -44t-5.5 -47q0 -38 17.5 -58.5t56.5 -20.5zM903 -9q-63 0 -99 33t-36 98q0 38 11.5 73.5t34 62.5t54 43t72.5 16q66 0 102 -32t36 -99q0 -39 -11.5 -74.5t-34 -62t-55 -42.5t-74.5 -16zM909 48q27 0 46.5 11.5t32 29.5t18.5 41t6 47q0 38 -18 62t-59 24 q-27 0 -46 -12.5t-31 -32.5t-17.5 -44t-5.5 -47q0 -38 17.5 -58.5t56.5 -20.5zM71 103l588 532l36 -43l-588 -533z" />
<glyph unicode="&#x2020;" horiz-adv-x="469" d="M224 517l-169 -7l8 72l167 -7l11 179h80l-25 -179l168 7l-7 -72l-166 7l-49 -517h-79z" />
<glyph unicode="'" horiz-adv-x="172" d="M102 764h69l-31 -204h-58z" />
<glyph unicode="&#x22;" horiz-adv-x="323" d="M102 764h69l-32 -204h-57zM253 763h69l-31 -203h-58z" />
<glyph unicode="&#x201c;" horiz-adv-x="344" d="M79 556q1 37 7 67t15 55t20.5 45.5t24.5 39.5h59q-24 -53 -34 -109t-13 -98h-79zM232 556q4 75 23 122t45 85h59q-25 -53 -35 -109t-12 -98h-80z" />
<glyph unicode="&#x201d;" horiz-adv-x="341" d="M71 556q24 54 34 110t13 97h80q-2 -37 -8 -66.5t-15 -54.5t-20.5 -46t-24.5 -40h-59zM225 556q24 54 33.5 110t12.5 97h80q-2 -37 -8 -66.5t-15 -54.5t-20.5 -46t-24.5 -40h-58z" />
<glyph unicode="&#x2018;" horiz-adv-x="191" d="M79 556q4 75 22.5 122t44.5 85h59q-24 -53 -33.5 -109t-13.5 -98h-79v0z" />
<glyph unicode="&#x2019;" horiz-adv-x="188" d="M71 556q24 54 34 110t13 97h79q-2 -37 -7.5 -66.5t-14.5 -54.5t-20.5 -46t-24.5 -40h-59v0z" />
<glyph unicode="&#x2039;" horiz-adv-x="257" d="M40 272l129 220l54 -22l-108 -198l65 -195l-57 -25z" />
<glyph horiz-adv-x="256" d="M36 149l106 195l-65 198l58 22l82 -220l-129 -220z" />
<glyph unicode="&#x203a;" horiz-adv-x="257" d="M29 77l106 195l-65 198l58 22l82 -220l-129 -220z" />
<glyph horiz-adv-x="256" d="M47 344l129 220l54 -22l-108 -198l65 -195l-57 -25z" />
<glyph unicode="&#xab;" horiz-adv-x="432" d="M40 272l129 220l54 -22l-108 -198l66 -195l-58 -25zM215 272l130 220l53 -22l-108 -198l66 -195l-58 -25z" />
<glyph horiz-adv-x="432" d="M47 344l129 220l54 -22l-108 -198l66 -195l-58 -25zM222 344l130 220l53 -22l-108 -198l66 -195l-58 -25z" />
<glyph unicode="&#xbb;" horiz-adv-x="432" d="M29 77l106 195l-66 198l59 22l82 -220l-129 -220zM204 77l106 195l-66 198l59 22l82 -220l-129 -220z" />
<glyph horiz-adv-x="431" d="M36 149l106 195l-66 198l59 22l82 -220l-129 -220zM211 149l106 195l-66 198l59 22l82 -220l-129 -220z" />
<glyph unicode="*" horiz-adv-x="427" d="M66 526l105 44l17 -38l-94 -66zM78 643l41 60l82 -65l-27 -40zM213 517h46l-1 -109h-69zM227 762h69l-23 -110h-45zM284 530l28 40l95 -43l-41 -61zM296 638l95 65l28 -59l-105 -44z" />
<glyph unicode="+" horiz-adv-x="575" d="M244 270h-215l8 66l214 -1l23 222h69l-25 -223l228 2l-8 -66h-227l-22 -216h-68z" />
<glyph unicode="&#x3c;" horiz-adv-x="503" d="M38 254l10 99l424 192l-8 -74l-370 -168l335 -164l-7 -75z" />
<glyph unicode="=" horiz-adv-x="697" d="M94 232h494l-7 -66h-494zM116 442h494l-7 -66h-494z" />
<glyph unicode="&#x3e;" horiz-adv-x="502" d="M38 139l369 164l-334 168l8 74l383 -192l-10 -99l-424 -190z" />
<glyph unicode="0" horiz-adv-x="611" d="M273 -10q-54 0 -97.5 16.5t-74.5 48t-48 77.5t-17 106q0 68 20.5 127t58.5 102t93 67.5t124 24.5q53 0 96.5 -16t74.5 -47.5t48 -78t17 -107.5q0 -69 -21 -127.5t-59.5 -101t-93 -67t-121.5 -24.5zM280 54q50 0 89.5 19.5t66.5 53.5t41.5 78t14.5 94q0 43 -10.5 79 t-31 62t-52 40.5t-73.5 14.5q-51 0 -90.5 -19t-66 -52t-40 -77.5t-13.5 -95.5q0 -43 9.5 -79t30 -62.5t51.5 -41t74 -14.5z" />
<glyph unicode="1" horiz-adv-x="340" d="M183 486h-142l6 59l219 7l-58 -552h-76z" />
<glyph unicode="2" horiz-adv-x="473" d="M28 62q42 34 93.5 73.5t97 83.5t76.5 92.5t31 101.5q0 44 -28.5 61.5t-67.5 17.5q-37 0 -68 -11.5t-52 -24.5l-26 54q26 20 68.5 35.5t89.5 15.5q45 0 76 -12.5t50.5 -32t28 -44.5t8.5 -49q0 -58 -26.5 -110t-67 -97t-90 -83t-94.5 -66h274l-7 -67h-373z" />
<glyph unicode="3" horiz-adv-x="463" d="M134 -169q-36 0 -73 7.5t-77 27.5l23 62q38 -17 68.5 -23.5t60.5 -6.5q42 0 75 14.5t55.5 38t34 53.5t11.5 62q0 57 -43 88t-120 37l-2 55q34 8 63.5 25.5t52 40.5t35.5 50t13 54q0 34 -23 56t-79 22q-31 0 -63.5 -6.5t-55.5 -15.5l-17 57q30 16 69.5 24t79.5 8 q74 0 119.5 -34.5t45.5 -100.5q0 -57 -36.5 -108.5t-99.5 -83.5q72 -23 105.5 -65t33.5 -99q0 -47 -18.5 -90t-52.5 -76t-81 -53t-104 -20z" />
<glyph unicode="4" horiz-adv-x="548" d="M287 35h-281l7 69l283 442h120l-47 -446h125l-6 -65h-125l-21 -195h-76zM294 100l41 393l-249 -393h208z" />
<glyph unicode="5" horiz-adv-x="497" d="M170 -171q-43 0 -83.5 7t-81.5 23l21 63q38 -12 73.5 -18.5t76.5 -6.5q81 0 127 43.5t46 118.5q0 44 -27.5 74.5t-69.5 50t-92.5 30t-96.5 14.5l33 318h334l-6 -64h-264l-19 -193q55 -8 106 -24.5t91 -43.5t64 -64.5t24 -87.5q0 -51 -19 -94.5t-52.5 -76t-80.5 -51 t-104 -18.5z" />
<glyph unicode="6" horiz-adv-x="542" d="M261 -11q-106 0 -157.5 60.5t-51.5 174.5q0 56 7 114t23 112.5t41.5 103t63 84.5t88 57t115.5 21q25 0 48 -3.5t45 -13.5l-22 -65q-37 14 -86 14q-56 0 -96.5 -24t-68.5 -64.5t-44.5 -92.5t-23.5 -107q-8 -39 -9.5 -72t-2.5 -69q0 -78 36 -122.5t105 -44.5 q37 0 63.5 16.5t43 42.5t24 59.5t7.5 67.5q0 37 -10 62.5t-28 41t-42.5 22.5t-52.5 7q-15 0 -31.5 -2.5t-33.5 -5.5q0 -1 -0.5 7.5t-0.5 19.5v21t1 12q20 6 41 9.5t42 3.5q40 0 75.5 -12t62 -36t41.5 -59.5t15 -82.5q0 -53 -14.5 -100t-43 -82t-71 -55t-98.5 -20z" />
<glyph unicode="7" horiz-adv-x="462" d="M34 -144l338 626h-324l7 64h400l-7 -66l-353 -655z" />
<glyph unicode="8" horiz-adv-x="528" d="M228 -10q-40 0 -75 10t-61.5 29.5t-41.5 47t-15 62.5q0 41 13.5 75t37 62.5t56 51.5t70.5 43q-22 16 -42 33t-35 37t-24 43.5t-9 53.5q0 43 17 76t46 55t67.5 33.5t82.5 11.5q31 0 61 -9t53.5 -26t37.5 -42.5t14 -58.5q0 -37 -13 -68t-34.5 -57t-49 -47t-57.5 -37 q25 -16 49 -35t43.5 -42t31.5 -50t12 -58q0 -49 -21 -85.5t-55 -60.5t-75.5 -36t-83.5 -12zM242 52q30 0 56.5 9t45.5 26t30 41.5t11 55.5q0 25 -13.5 48t-33 42.5t-42 35.5t-40.5 28q-25 -15 -50.5 -33t-46.5 -40.5t-34 -49.5t-13 -61q0 -50 37.5 -76t92.5 -26zM280 401 q24 14 46.5 31t39.5 38t27.5 46t10.5 54q0 41 -32 62t-74 21q-52 0 -87 -30t-35 -81q0 -23 10.5 -43t26 -37.5t33.5 -32.5t34 -28z" />
<glyph unicode="9" horiz-adv-x="544" d="M147 -167q-25 0 -48 3.5t-45 13.5l22 65q34 -14 86 -14q50 0 88 18.5t65 50.5t45 74.5t28.5 90t14.5 98t4 97.5q0 79 -36 123t-105 44q-38 0 -64 -16.5t-43 -42.5t-24.5 -59.5t-7.5 -67.5q0 -37 10 -62.5t28 -41t42.5 -22.5t53.5 -7q30 0 65 8v-61q-41 -12 -83 -12 q-41 0 -76 12t-61.5 36t-41.5 59.5t-15 82.5q0 53 14.5 100t43 82t71 55t98.5 20q106 0 157.5 -60.5t51.5 -175.5q0 -55 -7 -113t-23 -113t-41.5 -103t-63 -84t-88 -57t-115.5 -21z" />
<glyph horiz-adv-x="626" d="M274 -9q-62 0 -103.5 21t-66 57.5t-35 85t-10.5 103.5q0 49 6 102t20 103.5t37.5 95.5t57.5 79.5t80.5 54.5t106.5 20q61 0 101.5 -20.5t64.5 -55.5t34 -82t10 -101q0 -49 -5.5 -102t-19 -104.5t-36 -98t-56 -81.5t-79.5 -56t-107 -21zM286 57q46 0 79.5 19t57 50.5 t38 72.5t22.5 84t11 85t3 77q0 37 -5.5 73t-21.5 65t-43.5 47t-72.5 18q-46 0 -79.5 -18.5t-57.5 -49.5t-39 -70.5t-24 -82t-12 -84.5t-3 -77q0 -37 6 -74.5t22 -67.5t45 -48.5t74 -18.5z" />
<glyph horiz-adv-x="288" d="M162 642h-141l7 59l216 6l-74 -707h-75z" />
<glyph horiz-adv-x="501" d="M-2 63q31 26 70.5 60t81.5 73t82 81t71.5 85.5t50.5 86.5t19 83q0 116 -116 116q-39 0 -80 -11.5t-74 -32.5l-25 57q46 31 91 43.5t102 12.5q86 0 133 -44.5t47 -132.5q0 -47 -17 -92t-45 -88.5t-64.5 -84t-76 -77.5t-79.5 -70t-74 -61h352l-7 -67h-449z" />
<glyph horiz-adv-x="463" d="M157 -11q-20 0 -42.5 1.5t-45.5 5t-44.5 10t-39.5 15.5l27 64q34 -12 70 -19t73 -7q32 0 63.5 6t56 21.5t40 42.5t15.5 69q0 35 -16.5 60.5t-42.5 42t-57.5 25.5t-61.5 11l6 59q31 2 63.5 15t58 34.5t42 50t16.5 63.5q0 26 -9.5 43t-25 27.5t-36.5 15t-43 4.5 q-29 0 -61.5 -6t-59.5 -16l-18 58q15 7 34 13t40 10t41.5 6t38.5 2q37 0 68.5 -9t54.5 -28t36 -48t13 -68q0 -30 -12 -60.5t-33 -56.5t-48.5 -45t-58.5 -26q29 -8 55.5 -23.5t47 -37.5t32.5 -50t12 -60q0 -58 -19 -99t-53 -66.5t-79.5 -37.5t-97.5 -12z" />
<glyph horiz-adv-x="518" d="M300 191h-309l7 64l312 452h121l-47 -450h123l-7 -66h-123l-20 -191h-77zM308 257l41 398l-272 -398h231z" />
<glyph horiz-adv-x="466" d="M177 -11q-43 0 -84 6.5t-81 22.5l22 66q38 -12 73 -20t76 -8q81 0 127 44.5t46 119.5q0 44 -27.5 74.5t-69.5 50t-92.5 30t-95.5 14.5l33 318h333l-6 -64h-264l-19 -193q55 -8 106 -24.5t90.5 -43.5t63 -64.5t23.5 -88.5t-18.5 -94.5t-52 -76t-80 -51t-103.5 -18.5z" />
<glyph horiz-adv-x="528" d="M265 -11q-105 0 -156.5 62.5t-51.5 173.5q0 55 7 113t23 113t41.5 103t63 84t88 57t115.5 21q25 0 48 -3.5t45 -13.5l-22 -65q-37 14 -86 14q-50 0 -87 -18.5t-64.5 -50t-45.5 -73.5t-28.5 -89t-15 -97t-4.5 -97q0 -76 34.5 -123.5t103.5 -47.5q37 0 64 16.5t44 42.5 t25 59.5t8 67.5q0 37 -10 62.5t-28 41t-42.5 22.5t-52.5 7q-14 0 -31.5 -2.5t-33.5 -5.5l-1 60q20 6 42 9.5t42 3.5q40 0 75.5 -12t62 -36t41.5 -59.5t15 -82.5q0 -53 -14.5 -100t-43.5 -82t-71.5 -55t-98.5 -20z" />
<glyph horiz-adv-x="409" d="M9 19l361 620h-346l8 68h426l-7 -66l-377 -652z" />
<glyph horiz-adv-x="517" d="M222 -10q-39 0 -74 10t-61.5 29.5t-41.5 47t-15 62.5q0 41 13.5 75t37 62.5t55.5 51.5t70 43q-21 16 -41 33t-35.5 37t-24.5 43.5t-9 53.5q0 43 17 76t46 55t67.5 33.5t82.5 11.5q31 0 61 -9t53.5 -26t37.5 -42.5t14 -58.5q0 -37 -13 -68t-34.5 -57t-49 -47t-57.5 -37 q25 -16 49 -35t43.5 -42t31.5 -50t12 -58q0 -49 -21 -85.5t-55 -60.5t-75.5 -36t-83.5 -12zM237 52q30 0 56 9t45.5 26t30.5 41.5t11 55.5q0 25 -13.5 48t-33.5 42.5t-42.5 35.5t-40.5 28q-25 -15 -50.5 -33t-46 -40.5t-33.5 -49.5t-13 -61q0 -50 37 -76t93 -26zM274 401 q24 14 46.5 31t40 38t27.5 46t10 54q0 41 -32 62t-74 21q-52 0 -87 -30t-35 -81q0 -23 10.5 -43t26 -37.5t33.5 -32.5t34 -28z" />
<glyph horiz-adv-x="530" d="M145 -13q-24 0 -47 3.5t-45 13.5l22 65q34 -14 86 -14q75 0 122.5 40t75 102.5t37.5 137.5t10 145q0 76 -34.5 123.5t-103.5 47.5q-38 0 -65 -16.5t-44 -42.5t-25 -59.5t-8 -67.5q0 -37 10 -62.5t28 -41t42.5 -22.5t53.5 -7q31 0 66 8v-60q-20 -6 -42 -9.5t-42 -3.5 q-41 0 -76 12t-61.5 36t-41.5 59.5t-15 82.5q0 53 14.5 100t43 82t71.5 55t99 20q105 0 156 -62t51 -175q0 -55 -7 -113t-22.5 -112.5t-41.5 -102.5t-63.5 -84t-88 -57t-115.5 -21z" />
<glyph unicode="&#x2122;" horiz-adv-x="785" d="M389 707h64l71 -303l151 303h63l-6 -354h-58l8 255l-127 -255h-75l-62 259l-54 -259h-56zM172 654h-118l6 53h293l-6 -53h-117l-32 -301h-58z" />
<glyph unicode="&#xae;" horiz-adv-x="549" d="M298 311q-39 0 -80 11t-75 37t-56 68.5t-22 104.5q0 54 18 95.5t49.5 70t73.5 43.5t91 15q42 0 83 -12t74 -39t53.5 -69.5t20.5 -103.5q0 -53 -18 -94.5t-49 -69.5t-73 -42.5t-90 -14.5zM303 353q37 0 70 11.5t57 34.5t38 56t14 77q0 48 -16 82t-42 56.5t-59 33t-67 10.5 q-37 0 -71 -10t-59.5 -31.5t-40.5 -55.5t-15 -81q0 -59 21.5 -95t51.5 -55.5t62.5 -26t55.5 -6.5zM413 417q-23 1 -40.5 6.5t-31.5 20.5q-16 16 -29 36t-22 34h-34v-91h-47v242h90q38 0 61 -18t23 -57q0 -47 -45 -68q6 -8 15.5 -22.5t20.5 -25.5t21.5 -15t23.5 -9zM287 547 q26 0 38.5 9.5t12.5 32.5q0 22 -10 32t-36 10h-36v-84h31z" />
<glyph unicode="&#xa9;" horiz-adv-x="791" d="M393 55q-48 0 -84.5 13.5t-60.5 37.5t-36 57t-11 72q1 52 16.5 95.5t45.5 75.5t73 50t100 18q41 0 66.5 -6.5t50.5 -21.5l-25 -47q-25 11 -44.5 16t-52.5 5q-71 0 -118.5 -45t-49.5 -134q-1 -33 10.5 -57.5t32 -40.5t47.5 -24t57 -8q25 0 47.5 4t48.5 12l13 -48 q-34 -12 -62.5 -18t-63.5 -6zM343 -107q-72 0 -129 22.5t-96.5 63.5t-60.5 98.5t-21 127.5q0 90 29 166.5t82 132t127 87t165 31.5q74 0 131 -23.5t96 -65t59 -98.5t20 -125q0 -89 -28 -165t-80.5 -132t-126.5 -88t-167 -32zM352 -53q80 0 142 28.5t104 77t64 113t22 136.5 q0 58 -16 106.5t-48 84t-80 55.5t-112 20q-78 0 -139.5 -28t-103.5 -76t-64.5 -112t-22.5 -137q0 -55 15 -104t46.5 -85.5t79.5 -57.5t113 -21z" />
<glyph horiz-adv-x="828" d="M385 152q-48 0 -84.5 13.5t-60.5 37t-35.5 56.5t-10.5 72q1 52 16.5 96t45 76t72.5 50t100 18q41 0 66.5 -7t50.5 -21l-25 -47q-25 11 -44.5 16t-52.5 5q-71 0 -118.5 -45.5t-49.5 -133.5q-1 -34 10.5 -58.5t32 -40.5t47.5 -24t58 -8q24 0 46.5 4.5t48.5 12.5l13 -48 q-34 -13 -62 -18.5t-64 -5.5zM335 -10q-72 0 -129 22.5t-96.5 63.5t-60.5 98t-21 127q0 91 29 167.5t82 132t127.5 87t164.5 31.5q74 0 131 -23.5t96 -65t59 -98.5t20 -125q0 -89 -28 -165t-80.5 -132t-126.5 -88t-167 -32zM344 44q81 0 143 28.5t104 77t63.5 113 t21.5 136.5q0 58 -16 106.5t-48 83.5t-80 55t-112 20q-78 0 -139.5 -28t-103.5 -76t-64.5 -112t-22.5 -136q0 -55 15 -104t46.5 -85.5t79.5 -57.5t113 -21z" />
<glyph unicode="&#x20ac;" horiz-adv-x="581" d="M348 -10q-47 0 -89 11t-76 33.5t-58 58t-33 83.5h-64l6 54h53v11q0 39 11 80h-54l5 54h66q19 46 48.5 79.5t67 56t81.5 33.5t92 11q45 0 83 -7t80 -24l-28 -61q-35 12 -69 19t-72 7q-64 0 -118.5 -27.5t-84.5 -86.5h253l-5 -54h-268q-10 -39 -10 -83v-8h268l-6 -54h-252 q10 -33 29.5 -56t45.5 -38t56.5 -21.5t62.5 -6.5q35 0 68.5 6.5t66.5 16.5l13 -60q-41 -17 -83.5 -22t-85.5 -5z" />
<glyph unicode="$" horiz-adv-x="491" d="M175 -5q-42 2 -84.5 10.5t-80.5 27.5l31 63q41 -16 80.5 -25.5t83.5 -9.5q22 0 48 3.5t47.5 13.5t36 28t14.5 47q0 26 -20.5 43t-51.5 30.5t-66.5 27.5t-66.5 32.5t-51.5 45.5t-20.5 68q0 35 13.5 61t35.5 44t50.5 28t59.5 15l9 96h70l-12 -93q40 -1 75 -7.5t71 -22.5 l-26 -58q-37 11 -70.5 18t-71.5 7q-19 0 -41 -3t-41 -11t-31.5 -23.5t-12.5 -39.5q0 -27 20.5 -45t51.5 -33.5t67.5 -30t67.5 -33t51.5 -43.5t20.5 -61q0 -41 -16 -71.5t-42.5 -51t-60.5 -31.5t-70 -14l-7 -96h-71z" />
<glyph unicode="&#xa2;" horiz-adv-x="467" d="M214 32q-91 10 -137 55t-46 139q0 57 14 106t42.5 87t72.5 62t104 30l5 82h79l-10 -80q23 -2 52 -8t49 -20l-28 -56q-28 12 -58 17t-60 5q-50 0 -85 -17t-57.5 -46.5t-32.5 -69.5t-10 -86q0 -44 12.5 -71t35 -42t54 -20.5t70.5 -5.5q27 0 56 4.5t57 9.5l4 -60 q-24 -7 -52.5 -11.5t-56.5 -5.5l-5 -75h-81z" />
<glyph unicode="&#xa3;" horiz-adv-x="463" d="M26 65q20 8 36.5 23.5t29 34.5t20.5 40.5t10 42.5h-95l6 62h97q3 22 4.5 43.5t3.5 43.5q6 63 29 101t59 59t83 28.5t101 9.5l-2 -65q-38 -3 -72 -8t-60 -19t-42.5 -40t-19.5 -71q-1 -20 -3 -40.5t-4 -41.5h177l-6 -62h-182q-5 -42 -27 -79t-56 -62h288l-7 -65h-375z" />
<glyph unicode="&#xa5;" horiz-adv-x="614" d="M38 145h208l1 11l-39 98h-158l6 65h123l-97 227h85l128 -320l206 320h81l-151 -227h129l-7 -65h-166l-64 -97l-1 -12h220l-7 -65h-220l-9 -80h-75l9 80h-209z" />
<glyph unicode="&#xa4;" horiz-adv-x="546" d="M65 177l70 69q-16 19 -26 47t-10 59t9 59t26 47l-68 68l38 38l70 -70q21 13 48.5 22.5t55.5 9.5t55 -7t50 -23l68 69l40 -40l-67 -67q17 -19 25.5 -47t8.5 -59t-9.5 -59.5t-26.5 -47.5l68 -68l-38 -39l-69 69q-23 -12 -50 -20t-55 -8q-58 0 -102 30l-72 -71zM278 242 q58 0 84.5 32t26.5 78t-27.5 78.5t-83.5 32.5t-83.5 -32.5t-27.5 -78.5t28.5 -78t82.5 -32z" />
<glyph horiz-adv-x="630" d="M390 -10q-66 0 -113 21t-78 55t-47.5 77.5t-22.5 88.5h-91l7 61h80q0 31 2.5 60.5t8.5 58.5h-79l6 62h89q16 49 43 93t65.5 76.5t89 51.5t115.5 19q32 0 56 -3t41 -7.5t29 -9.5t20 -9l-27 -60q-8 3 -18 6.5t-24.5 6.5t-35 5t-49.5 2q-45 0 -81 -14t-64 -37t-48.5 -54.5 t-33.5 -65.5h245l-6 -62h-258q-9 -42 -9 -87q-1 -8 -0.5 -16t0.5 -16h254l-6 -61h-239q6 -36 19.5 -67t37 -54.5t57.5 -37t81 -13.5q20 0 41.5 2.5t41 5.5t34.5 6.5t23 6.5l17 -64q-20 -8 -61 -17.5t-112 -9.5z" />
<glyph horiz-adv-x="489" d="M186 -11q-26 1 -53 5t-52 10.5t-46 15t-36 17.5l32 66q36 -17 79.5 -30.5t90.5 -13.5q35 0 65 7t52.5 22.5t35.5 40.5t13 62q0 33 -21.5 57.5t-54 47t-71 44.5t-71 49.5t-53.5 63.5t-20 85q1 39 15.5 69t39.5 51.5t58 34t71 16.5l8 90h76l-11 -88q47 -3 85.5 -14 t60.5 -24l-25 -60q-30 14 -70.5 22.5t-84.5 8.5q-30 0 -56 -5t-45.5 -17.5t-31.5 -33t-12 -51.5q-1 -33 21 -59t54.5 -48.5t70.5 -45.5t70.5 -50.5t54 -62t20.5 -80.5q-1 -44 -15.5 -78t-39 -58t-58.5 -39t-74 -21l-8 -93h-76z" />
<glyph horiz-adv-x="452" d="M206 92q-8 -1 -15 -1.5t-14 -0.5q-38 1 -63 20t-39 47.5t-19.5 63.5t-5.5 67q0 68 14 129.5t41.5 110.5t67.5 83t92 46l7 97h76l-12 -92q34 -4 60 -15.5t48 -34.5l-38 -49q-16 14 -39.5 24.5t-53.5 10.5q-54 0 -89 -31t-55.5 -76t-29 -97t-8.5 -94q0 -69 16.5 -105 t38.5 -36q51 0 96.5 18.5t85.5 39.5l27 -55q-23 -16 -54 -31t-63 -26l-8 -105h-76z" />
<glyph horiz-adv-x="513" d="M32 67q22 7 40 32.5t30.5 55.5t20 58t9.5 40h-96l7 62h101q7 41 11.5 91t9.5 103q8 77 41 117.5t75.5 58.5t86.5 20.5t74 3.5l-4 -68q-33 -3 -66 -5.5t-60 -15t-45.5 -39t-23.5 -76.5q-5 -51 -9 -100t-12 -90h180l-8 -62h-185q-29 -131 -84 -186h325l-8 -67h-418z" />
<glyph horiz-adv-x="631" d="M380 322h189l-7 -67h-218l-12 -100h219l-7 -67h-218l-10 -88h-78l9 88h-207l7 67h206l12 100h-207l7 67h178l-161 385h88l146 -367l235 367h84z" />
</font>
</defs>
</svg>
