<?xml version="1.0" standalone="no"?>
<!DOCTYPE svg PUBLIC "-//W3C//DTD SVG 1.1//EN" "http://www.w3.org/Graphics/SVG/1.1/DTD/svg11.dtd" >
<svg xmlns="http://www.w3.org/2000/svg" xmlns:xlink="http://www.w3.org/1999/xlink" version="1.1">
<metadata>
This is a custom SVG webfont generated by Typotheque.
</metadata>
<defs>
<font id="typotheque_webfonts_service" horiz-adv-x="689" >
<font-face units-per-em="1000" ascent="780" descent="-220" />
<missing-glyph horiz-adv-x="239" />
<glyph unicode=" "  horiz-adv-x="239" />
<glyph unicode="&#x09;" horiz-adv-x="239" />
<glyph unicode="&#xa0;" horiz-adv-x="239" />
<glyph unicode="A" horiz-adv-x="721" d="M710 53q0 -14 -1 -27.5t-5 -25.5h-299q-5 14 -6 27t-1 30l60 20q16 5 24 17t8 28q0 9 -2 16.5t-5 16.5l-39 120h-233l-46 -119q-6 -17 -6 -29q0 -23 12.5 -34.5t29.5 -16.5l66 -19q0 -11 -1 -28t-4 -29h-260q-3 12 -4 26t-1 28q20 17 33 31t23 37l246 575l129 24 l225 -596q8 -20 24 -38.5t33 -33.5zM363 523l-22 83h-7l-27 -81l-66 -174h178z" />
<glyph unicode="B" horiz-adv-x="711" d="M676 217q0 -47 -16.5 -86.5t-51.5 -68.5t-88.5 -45.5t-127.5 -16.5h-350q-4 14 -5 28t-1 29l49 14q17 5 31 18.5t14 36.5l3 152v315q0 21 -14.5 32.5t-30.5 16.5l-47 15q0 16 1 27.5t4 22.5h316q124 0 193.5 -42.5t69.5 -136.5q0 -32 -11 -56t-28.5 -41t-38.5 -28.5 t-40 -18.5v-4q19 -2 48 -10.5t56 -27.5t46 -49t19 -76zM473 517q0 59 -31.5 84.5t-102.5 25.5h-67v-224h77q39 0 63 9t37.5 24.5t18.5 36t5 44.5zM524 202q0 63 -43 92t-146 29h-63v-47l4 -195h98q75 0 112.5 29t37.5 92z" />
<glyph unicode="C" d="M650 30q-21 -8 -43 -15t-48.5 -12t-58.5 -8t-73 -3q-92 0 -164.5 21t-122.5 64.5t-76.5 111t-26.5 159.5q0 78 28.5 145.5t79.5 117.5t122 78.5t156 28.5q43 0 73.5 -3t55.5 -8.5t46.5 -13.5t45.5 -18v-164q-8 -2 -26 -2.5t-31 1.5q-21 57 -61 88t-107 31 q-50 0 -93 -14.5t-74.5 -47t-49.5 -84t-18 -125.5q0 -64 19 -112t53.5 -80.5t82 -48.5t104.5 -16q59 0 100.5 6.5t78.5 14.5l28 -92v0z" />
<glyph unicode="D" horiz-adv-x="806" d="M767 368q0 -92 -30.5 -161t-85 -115t-131 -69t-168.5 -23h-309q-2 13 -4 27.5t-2 30.5l54 15q18 5 28 16.5t11 34.5l3 155v292q0 26 -11.5 41t-28.5 23l-50 19q-1 11 -0.5 25.5t4.5 27.5h299q89 0 166 -14.5t133.5 -52.5t89 -103.5t32.5 -168.5zM614 347 q0 133 -68.5 205.5t-202.5 72.5h-69v-347l6 -197h83q128 0 189.5 68.5t61.5 197.5z" />
<glyph unicode="E" horiz-adv-x="664" d="M610 0h-570q-3 15 -4 30.5t0 28.5l52 13q17 5 29.5 15.5t12.5 27.5l3 164v298q0 25 -8 35t-20 15l-63 26v25q1 8 1.5 15t3.5 14h549v-164q-13 -2 -32.5 -3t-30.5 -1q-10 48 -29.5 65t-52.5 17l-178 5v-230l271 5v-92l-271 5v-36l5 -197l151 4q54 2 90.5 25.5t54.5 73.5 l61 -13z" />
<glyph unicode="F" horiz-adv-x="618" d="M595 541q-15 -3 -31 -4t-30 0q-9 43 -30.5 62t-59.5 20l-172 7v-251l275 6v-93l-275 5v-17l3 -150q1 -17 5.5 -27.5t19.5 -13.5l109 -22q0 -14 -1 -31t-6 -32h-359q-3 13 -4 27.5t-1 28.5l55 16q16 5 26 20t10 34l3 153v302q0 16 -6 28.5t-23 19.5l-61 22q0 10 0.5 26.5 t3.5 29.5h549v-166v0z" />
<glyph unicode="G" horiz-adv-x="719" d="M427 -8q-92 0 -164.5 21t-122.5 64.5t-76.5 111t-26.5 159.5q0 78 28.5 145.5t79.5 117.5t122 78.5t156 28.5q43 0 75 -3t59 -9t51.5 -14.5t51.5 -19.5v-165q-8 -1 -25.5 -1t-31.5 1q-21 57 -66 90t-118 33q-50 0 -93 -15.5t-74.5 -49t-49.5 -86.5t-18 -127 q0 -70 22 -119t59.5 -80.5t88.5 -46t110 -15.5q5 0 13.5 0.5l17 1t16.5 1.5t11 2v200h140v-264q-54 -22 -112.5 -31t-122.5 -9z" />
<glyph unicode="H" horiz-adv-x="875" d="M844 55q0 -16 -1.5 -30.5t-4.5 -24.5h-320q-2 11 -3.5 23.5t-1.5 29.5l56 20q20 7 29 21.5t9 40.5l2 143v36h-341v-36l3 -164q1 -20 8.5 -28.5t27.5 -13.5l72 -18q0 -14 -1.5 -29.5t-4.5 -24.5h-328q-2 12 -3.5 25t-0.5 27l50 19q21 8 28.5 20.5t8.5 41.5l1 145v312 q0 21 -7.5 33t-25.5 18l-52 18q0 13 0.5 24.5t4.5 23.5h297q6 -23 4 -49l-50 -15q-17 -5 -24.5 -16.5t-7.5 -34.5v-197h341v190q0 28 -9.5 40.5t-27.5 17.5l-47 16q-3 27 1 48h296q2 -14 2 -26.5t-1 -22.5l-46 -15q-14 -5 -21.5 -13.5t-7.5 -28.5v-323l3 -154q0 -43 22 -48 l71 -21v0z" />
<glyph unicode="I" horiz-adv-x="403" d="M367 61q0 -14 -0.5 -30t-5.5 -31h-314q-6 24 -4 54l43 15q17 6 30 20.5t14 40.5l3 148v294q0 25 -15 41.5t-36 24.5l-37 16q-1 12 -1 25.5t3 27.5h308q2 -17 2 -31.5t-2 -27.5l-43 -10q-23 -6 -31 -24t-8 -39v-297l2 -170q1 -16 6 -22t19 -10l67 -15v0z" />
<glyph unicode="J" horiz-adv-x="384" d="M310 639q-23 -6 -30.5 -14t-7.5 -30v-501q0 -56 -21 -98t-55 -75t-76.5 -57.5t-85.5 -43.5l-44 78q42 26 69.5 48t43.5 49t22 62.5t6 88.5v419q0 25 -12 45.5t-36 28.5l-44 15q0 13 1 29t4 24h310q2 -11 3 -28.5t0 -27.5z" />
<glyph unicode="K" horiz-adv-x="753" d="M41 0q-3 14 -3.5 27t0.5 27l47 15q17 6 30 22t14 39l3 148v298q0 23 -14 38.5t-29 21.5l-45 18q-1 13 -1 26t4 27h307q4 -32 0 -57l-46 -14q-21 -6 -28.5 -23t-7.5 -37v-295l2 -171q0 -16 4.5 -22.5t17.5 -9.5l63 -17q0 -14 -1 -30t-6 -31h-311zM746 -16q-21 0 -50 3.5 t-60 12.5t-61.5 25t-53.5 42l-246 270v29l215 202q9 8 13 16.5t4 16.5q0 28 -19 35l-36 15q0 14 0.5 27.5t4.5 28.5h264v-47l-315 -271l183 -189q40 -42 83 -80.5t88 -64.5z" />
<glyph unicode="L" horiz-adv-x="617" d="M584 0h-542q-5 26 -3 56l47 13q16 5 29.5 19.5t13.5 37.5l3 151v299q0 23 -14 38.5t-28 21.5l-47 18q0 13 0.5 27t3.5 26h308q1 -17 1 -31.5t-2 -27.5l-45 -11q-21 -5 -29 -18t-8 -30v-311l4 -196l153 9q22 1 41.5 13t35.5 29.5t27.5 38t18.5 38.5l64 -11z" />
<glyph unicode="M" horiz-adv-x="1051" d="M959 707q2 -11 3.5 -27t0.5 -26l-49 -13q-18 -5 -30 -23.5t-6 -51.5l81 -451q6 -31 34 -41l51 -22v-10t-0.5 -15t-1.5 -15.5t-2 -11.5h-309q-2 11 -3 25.5t-1 24.5l32 11q14 4 23 15t13.5 24.5t6 28.5t0.5 29q0 2 -1 9t-2 15t-2 15t-1 9l-35 254l-10 85h-5l-185 -534 l-115 -30l-185 569h-6l-9 -81l-55 -354q-5 -28 11 -32l88 -30v-10.5t-0.5 -15.5t-1.5 -15.5t-2 -11.5h-272q-2 11 -3.5 25.5t-0.5 24.5l36 18q21 11 35 33t18 45l82 437q4 17 -5 30.5t-23 18.5l-64 21v10.5t0.5 15.5t1.5 16t2 12h266l123 -374l39 -132h9l43 136l133 370h253 z" />
<glyph unicode="N" horiz-adv-x="844" d="M768 638q-17 -8 -29 -27t-12 -42v-563l-108 -29l-397 552h-7l6 -80v-176l3 -155q0 -18 3.5 -25.5t20.5 -12.5l85 -25v-10.5t-1 -16t-2 -16.5t-2 -12h-293q-2 11 -3.5 27t-0.5 26l51 15q23 6 35 32t13 55l2 118v308q0 17 -8 30.5t-21 20.5l-61 27v23.5t2 24.5h221 l374 -512h7l-7 105v268q0 23 -11 39.5t-26 24.5l-63 27q0 7 0.5 23.5t3.5 24.5h274q2 -11 3 -23.5t1 -22.5z" />
<glyph unicode="O" horiz-adv-x="821" d="M783 382q0 -81 -26.5 -152.5t-76.5 -125.5t-122 -85t-162 -31q-177 0 -267.5 87t-90.5 248q0 84 28.5 156t80 125t123 83.5t158.5 30.5q91 0 158 -23.5t110.5 -67.5t65 -106t21.5 -139zM624 358q0 57 -11.5 106t-36.5 85t-65.5 57t-97.5 21q-61 0 -102 -22t-66.5 -59.5 t-36.5 -87.5t-11 -106q0 -55 10.5 -104t35 -86t64.5 -59t99 -22q63 0 104.5 22t67 59.5t36 88t10.5 107.5z" />
<glyph unicode="P" horiz-adv-x="695" d="M677 497q0 -51 -19 -94.5t-56 -76t-90 -50.5t-121 -18h-56v72l31 1q83 2 120 40t37 110q0 63 -36 103t-119 42l-95 2v-355l3 -152q0 -17 4 -26.5t18 -11.5l102 -24v-11.5t-1 -17.5t-2 -17.5t-2 -12.5h-352q-2 11 -3 28t0 27l51 14q17 4 27.5 21.5t11.5 40.5l3 142v315 q0 12 -5.5 23.5t-18.5 16.5l-68 26v10t0.5 15t1.5 15.5t3 12.5h389q53 0 97.5 -12t76.5 -37.5t50 -65.5t18 -95z" />
<glyph unicode="Q" horiz-adv-x="820" d="M728 -194q-58 0 -122 48l-173 136q-5 -1 -18.5 -1.5t-18.5 -0.5q-177 0 -267.5 87t-90.5 248q0 84 28.5 156t80 125t123 83.5t158.5 30.5q91 0 158 -23.5t110.5 -67.5t65 -106t21.5 -139q0 -63 -16 -120.5t-47 -105.5t-75 -85t-101 -58l105 -62q52 -35 107 -35q11 0 38 3 t72 14l15 -72q-43 -31 -83.5 -43t-69.5 -12zM406 81q63 0 104.5 22t67 59.5t36 88t10.5 107.5t-11.5 106t-36.5 85t-65.5 57t-97.5 21q-61 0 -102 -22t-66.5 -59.5t-36.5 -87.5t-11 -106q0 -55 10.5 -104t35 -86t64.5 -59t99 -22z" />
<glyph unicode="R" horiz-adv-x="778" d="M783 -13q-10 -1 -20.5 -1.5t-21.5 0.5q-49 2 -103.5 18.5t-103.5 61.5q-23 21 -44 47.5t-40.5 56.5t-36 60.5t-29.5 59.5q-3 -1 -16 -1.5t-17 -0.5h-78l4 -175q0 -14 4 -21.5t15 -10.5l70 -20v-11.5t-0.5 -18t-1.5 -18.5t-2 -13h-315q-2 11 -3 28t0 27l48 14 q19 5 28.5 22.5t10.5 39.5l3 142v319q0 11 -6.5 21t-17.5 15l-68 26v10t0.5 15t1.5 15.5t3 12.5h356q53 0 100 -10.5t82.5 -34.5t56 -62t20.5 -93q0 -28 -8 -55.5t-24 -52.5t-39 -45.5t-54 -33.5q17 -33 45.5 -77.5t60.5 -82.5q38 -43 72 -68.5t76 -35.5zM506 495 q0 68 -43 100t-127 32l-63 1v-264h81q81 1 116.5 32t35.5 99z" />
<glyph unicode="S" horiz-adv-x="606" d="M569 203q0 -56 -26.5 -96.5t-69 -66.5t-95.5 -38.5t-105 -12.5q-27 0 -58 3t-63 9.5t-62.5 16.5t-55.5 24l15 176h65q3 -36 18.5 -63.5t39.5 -46.5t55 -29t66 -10q28 0 52 5t41.5 15.5t27.5 27.5t10 41q0 21 -11.5 36.5t-32 29t-47.5 25t-57 24.5q-36 15 -74 34t-68.5 45 t-50 60t-19.5 81q0 48 21.5 88.5t57.5 70t83 46.5t98 17q24 0 53 -3t58 -8.5t56 -13.5t49 -19v-156h-56q-6 29 -22.5 51t-39 36.5t-49.5 22t-54 7.5q-51 0 -87.5 -20.5t-36.5 -64.5q0 -21 10.5 -37t30 -29.5t48 -26.5t65.5 -28q39 -17 78 -35.5t70.5 -44t51.5 -60.5t20 -83z " />
<glyph unicode="T" horiz-adv-x="699" d="M686 522q-5 -2 -13 -2.5t-16.5 -1t-16 -0.5t-11.5 1q-9 47 -30.5 73.5t-63.5 28.5l-116 4v-352l5 -159q0 -17 3.5 -25t17.5 -11l89 -18v-11.5t-0.5 -18t-1.5 -18t-2 -12.5h-359q-2 11 -3.5 30.5t-0.5 29.5l68 19q17 5 28.5 27t12.5 42l3 125v352l-125 -4q-37 -2 -56 -30 t-27 -72q-3 -1 -11 -1.5t-16.5 0t-17 1.5t-13.5 3v185h673v-185z" />
<glyph unicode="U" horiz-adv-x="811" d="M740 636q-10 -4 -18.5 -10.5t-8.5 -29.5v-327q0 -82 -29.5 -136t-74 -86t-97.5 -45t-100 -13q-51 0 -105.5 8t-99.5 34.5t-73.5 76.5t-28.5 134v339q0 17 -7.5 32t-21.5 20l-57 21v10.5t0.5 15.5t1.5 15.5t2 11.5h317q2 -11 2.5 -29.5t-0.5 -28.5l-63 -12 q-15 -3 -20.5 -10.5t-5.5 -21.5v-343q0 -57 17.5 -93t44.5 -56.5t59.5 -28t63.5 -7.5q33 0 62.5 9.5t52 33t36 64t13.5 102.5v287q0 20 -10.5 39t-45.5 29l-43 13q0 3 -0.5 10.5t-0.5 15.5t0.5 15.5t1.5 11.5h282q2 -11 3.5 -28t0.5 -27z" />
<glyph unicode="V" horiz-adv-x="715" d="M71 584q-6 15 -13 29t-21 23l-34 21q0 13 1 25.5t4 24.5h301q7 -27 7 -58q-3 -2 -12 -4l-18 -4q-11 -3 -23 -5q-32 -9 -32 -39q0 -15 6 -31l144 -403l162 381q4 9 5 18.5t1 17.5q-1 20 -11 33t-22 18l-50 21v26t5 29h258q4 -14 4.5 -26t-0.5 -26l-31 -17q-14 -8 -25 -23 t-19 -34l-252 -575l-104 -27z" />
<glyph unicode="W" horiz-adv-x="1083" d="M1095 707q6 -24 4 -52l-26 -14q-15 -8 -25.5 -23t-18.5 -34l-223 -579l-103 -26l-157 421l-186 -395l-101 -26l-185 612q-3 11 -11 22.5t-19 19.5l-41 24q0 14 0.5 26t4.5 24h296q2 -14 3 -27t0 -28l-48 -16q-17 -6 -23 -18.5t-6 -29.5q1 -14 6 -31l109 -395l161 345 l-26 81q-2 3 -6 11t-7 10q-2 5 -7 11.5t-11.5 13l-12.5 12.5t-9 11q0 14 0.5 26t2.5 24h274q4 -14 5 -27.5t0 -27.5l-37 -16q-30 -16 -30 -47q0 -16 6 -32l134 -396l137 389q7 18 7 35q0 19 -8.5 31.5t-19.5 17.5l-44 18q0 11 0.5 26t5.5 29h235z" />
<glyph unicode="X" horiz-adv-x="714" d="M709 50v-10t-1 -14.5t-2 -14.5t-2 -11h-294q-2 11 -3 25.5t0 24.5l37 23q14 8 14 21.5t-11 30.5l-106 152l-119 -145q-6 -7 -8.5 -15t-2.5 -16t3 -14.5t10 -9.5l54 -27v-10t-1 -14.5t-2 -14.5t-2 -11h-265q-2 11 -3 25.5t0 24.5l29 18q24 16 43.5 35.5t39.5 42.5l170 204 l-173 222q-21 26 -43.5 46.5t-42.5 37.5q-2 11 -2 25.5t2 25.5h275q2 -11 3 -26t0 -25l-37 -18q-9 -5 -11 -18t11 -30l100 -142l112 136q11 13 10.5 29t-11.5 22l-40 22v10v14.5t0.5 14.5t2.5 11h244q2 -11 2 -25.5t-1 -24.5q-29 -12 -54 -32t-45 -45l-165 -203l188 -236 q11 -14 21.5 -25.5t21.5 -22t24 -21t30 -22.5z" />
<glyph unicode="Y" horiz-adv-x="679" d="M681 707q3 -14 4 -26t1 -26q-21 -11 -37.5 -24.5t-31.5 -35.5l-208 -313l3 -166q0 -15 7.5 -26t21.5 -14l66 -17q0 -14 -1 -29t-6 -30h-321q-4 15 -5 29t-1 28l50 13q17 5 30 19t13 37l3 148l-207 316q-17 26 -32.5 40t-30.5 27q-1 10 -1 24t3 26h288q2 -12 3.5 -25.5 t1.5 -29.5l-43 -17q-14 -5 -21 -16t-7 -25q0 -9 2.5 -18.5t8.5 -18.5l133 -208l131 205q10 16 9 31q0 17 -11 28t-21 16l-48 23q-1 12 -0.5 26t3.5 29h251z" />
<glyph unicode="Z" horiz-adv-x="649" d="M595 0h-541l-23 72l375 550l-200 -4q-22 -2 -36.5 -10t-23.5 -21.5t-15 -32t-10 -41.5q-10 -2 -18 -2.5t-16 -0.5q-8 1 -15.5 1.5t-18.5 2.5v193h531l17 -54l-386 -565l229 9q22 2 39.5 12.5t31 27t23.5 36t17 39.5l64 -12z" />
<glyph unicode="&#xc1;" horiz-adv-x="721" d="M0 0zM710 53q0 -14 -1 -27.5t-5 -25.5h-299q-5 14 -6 27t-1 30l60 20q16 5 24 17t8 28q0 9 -2 16.5t-5 16.5l-39 120h-233l-46 -119q-6 -17 -6 -29q0 -23 12.5 -34.5t29.5 -16.5l66 -19q0 -11 -1 -28t-4 -29h-260q-3 12 -4 26t-1 28q20 17 33 31t23 37l246 575l129 24 l225 -596q8 -20 24 -38.5t33 -33.5zM363 523l-22 83h-7l-27 -81l-66 -174h178zM265 806q67 23 133 50t128 62l43 -96q-29 -12 -63.5 -23.5t-72 -21.5t-76 -19t-74.5 -16z" />
<glyph unicode="&#xc2;" horiz-adv-x="721" d="M0 0zM710 53q0 -14 -1 -27.5t-5 -25.5h-299q-5 14 -6 27t-1 30l60 20q16 5 24 17t8 28q0 9 -2 16.5t-5 16.5l-39 120h-233l-46 -119q-6 -17 -6 -29q0 -23 12.5 -34.5t29.5 -16.5l66 -19q0 -11 -1 -28t-4 -29h-260q-3 12 -4 26t-1 28q20 17 33 31t23 37l246 575l129 24 l225 -596q8 -20 24 -38.5t33 -33.5zM363 523l-22 83h-7l-27 -81l-66 -174h178zM183 785q29 18 53.5 34.5t47 34t44.5 36t46 41.5q38 -35 85 -71t92 -66l-39 -61q-40 17 -80 38.5t-70 42.5q-29 -18 -66.5 -39.5t-82.5 -41.5z" />
<glyph unicode="&#xc0;" horiz-adv-x="721" d="M0 0zM443 742q-36 7 -74.5 16t-76 19t-72.5 21.5t-64 23.5l44 96q62 -35 128 -62t133 -50l-18 -64v0zM710 53q0 -14 -1 -27.5t-5 -25.5h-299q-5 14 -6 27t-1 30l60 20q16 5 24 17t8 28q0 9 -2 16.5t-5 16.5l-39 120h-233l-46 -119q-6 -17 -6 -29q0 -23 12.5 -34.5 t29.5 -16.5l66 -19q0 -11 -1 -28t-4 -29h-260q-3 12 -4 26t-1 28q20 17 33 31t23 37l246 575l129 24l225 -596q8 -20 24 -38.5t33 -33.5zM363 523l-22 83h-7l-27 -81l-66 -174h178z" />
<glyph unicode="&#xc3;" horiz-adv-x="721" d="M0 0zM710 53q0 -14 -1 -27.5t-5 -25.5h-299q-5 14 -6 27t-1 30l60 20q16 5 24 17t8 28q0 9 -2 16.5t-5 16.5l-39 120h-233l-46 -119q-6 -17 -6 -29q0 -23 12.5 -34.5t29.5 -16.5l66 -19q0 -11 -1 -28t-4 -29h-260q-3 12 -4 26t-1 28q20 17 33 31t23 37l246 575l129 24 l225 -596q8 -20 24 -38.5t33 -33.5zM363 523l-22 83h-7l-27 -81l-66 -174h178zM448 753q-15 0 -40.5 6t-52.5 13.5t-51 14t-37 6.5q-20 0 -36.5 -6.5t-33.5 -17.5l-28 35q12 13 24.5 27.5t27 26.5t32 19.5t39.5 7.5q19 0 45.5 -6t52.5 -13t48 -13t33 -6q29 0 45 7.5t21 12.5 l29 -33q-9 -14 -20 -28.5t-25 -26t-32 -19t-41 -7.5z" />
<glyph unicode="&#xc7;" d="M37 0zM650 30q-21 -8 -43 -15t-48.5 -12t-58.5 -8t-73 -3q-92 0 -164.5 21t-122.5 64.5t-76.5 111t-26.5 159.5q0 78 28.5 145.5t79.5 117.5t122 78.5t156 28.5q43 0 73.5 -3t55.5 -8.5t46.5 -13.5t45.5 -18v-164q-8 -2 -26 -2.5t-31 1.5q-21 57 -61 88t-107 31 q-50 0 -93 -14.5t-74.5 -47t-49.5 -84t-18 -125.5q0 -64 19 -112t53.5 -80.5t82 -48.5t104.5 -16q59 0 100.5 6.5t78.5 14.5l28 -92v0zM526 -169q0 -23 -12 -45.5t-31.5 -40.5t-44.5 -29t-52 -11q-49 0 -101 34l40 71q20 -14 45 -21.5t46 -7.5q18 0 30 6t12 18q0 15 -11 25 t-30.5 17.5t-45 13t-53.5 10.5l59 138h72l-42 -75q60 -14 89.5 -36t29.5 -67z" />
<glyph unicode="&#xc9;" horiz-adv-x="664" d="M35 0zM220 806q67 23 133 50t128 62l43 -96q-29 -12 -63.5 -23.5t-72 -21.5t-76 -19t-74.5 -16zM610 0h-570q-3 15 -4 30.5t0 28.5l52 13q17 5 29.5 15.5t12.5 27.5l3 164v298q0 25 -8 35t-20 15l-63 26v25q1 8 1.5 15t3.5 14h549v-164q-13 -2 -32.5 -3t-30.5 -1 q-10 48 -29.5 65t-52.5 17l-178 5v-230l271 5v-92l-271 5v-36l5 -197l151 4q54 2 90.5 25.5t54.5 73.5l61 -13z" />
<glyph unicode="&#xca;" horiz-adv-x="664" d="M35 0zM610 0h-570q-3 15 -4 30.5t0 28.5l52 13q17 5 29.5 15.5t12.5 27.5l3 164v298q0 25 -8 35t-20 15l-63 26v25q1 8 1.5 15t3.5 14h549v-164q-13 -2 -32.5 -3t-30.5 -1q-10 48 -29.5 65t-52.5 17l-178 5v-230l271 5v-92l-271 5v-36l5 -197l151 4q54 2 90.5 25.5 t54.5 73.5l61 -13zM161 785q29 18 53.5 34.5t47 34t44.5 36t46 41.5q38 -35 85 -71t92 -66l-39 -61q-40 17 -80 38.5t-70 42.5q-29 -18 -66.5 -39.5t-82.5 -41.5z" />
<glyph unicode="&#xcb;" horiz-adv-x="664" d="M35 0zM224 756q-6 0 -18 9.5t-24 21.5t-21 24t-9 18t9.5 18t21.5 24.5t24 21.5t17 9q6 0 18.5 -9.5t24.5 -22t21.5 -24.5t9.5 -17t-9 -16.5t-21 -24.5t-24.5 -22.5t-19.5 -9.5zM457 756q-6 0 -18 9.5t-24.5 21.5t-21.5 24t-9 18t9.5 18t21.5 24.5t24 21.5t18 9t18 -9.5 t24.5 -22t22 -24.5t9.5 -17t-9 -16.5t-21 -24.5t-24.5 -22.5t-19.5 -9.5zM610 0h-570q-3 15 -4 30.5t0 28.5l52 13q17 5 29.5 15.5t12.5 27.5l3 164v298q0 25 -8 35t-20 15l-63 26v25q1 8 1.5 15t3.5 14h549v-164q-13 -2 -32.5 -3t-30.5 -1q-10 48 -29.5 65t-52.5 17l-178 5 v-230l271 5v-92l-271 5v-36l5 -197l151 4q54 2 90.5 25.5t54.5 73.5l61 -13z" />
<glyph unicode="&#xc8;" horiz-adv-x="664" d="M35 0zM426 742q-36 7 -74.5 16t-76 19t-72.5 21.5t-64 23.5l44 96q62 -35 128 -62t133 -50l-18 -64v0zM610 0h-570q-3 15 -4 30.5t0 28.5l52 13q17 5 29.5 15.5t12.5 27.5l3 164v298q0 25 -8 35t-20 15l-63 26v25q1 8 1.5 15t3.5 14h549v-164q-13 -2 -32.5 -3t-30.5 -1 q-10 48 -29.5 65t-52.5 17l-178 5v-230l271 5v-92l-271 5v-36l5 -197l151 4q54 2 90.5 25.5t54.5 73.5l61 -13z" />
<glyph unicode="&#xcd;" horiz-adv-x="403" d="M41 0zM367 61q0 -14 -0.5 -30t-5.5 -31h-314q-6 24 -4 54l43 15q17 6 30 20.5t14 40.5l3 148v294q0 25 -15 41.5t-36 24.5l-37 16q-1 12 -1 25.5t3 27.5h308q2 -17 2 -31.5t-2 -27.5l-43 -10q-23 -6 -31 -24t-8 -39v-297l2 -170q1 -16 6 -22t19 -10l67 -15v0zM74 806 q67 23 133 50t128 62l43 -96q-29 -12 -63.5 -23.5t-72 -21.5t-76 -19t-74.5 -16z" />
<glyph unicode="&#xce;" horiz-adv-x="403" d="M23 0zM367 61q0 -14 -0.5 -30t-5.5 -31h-314q-6 24 -4 54l43 15q17 6 30 20.5t14 40.5l3 148v294q0 25 -15 41.5t-36 24.5l-37 16q-1 12 -1 25.5t3 27.5h308q2 -17 2 -31.5t-2 -27.5l-43 -10q-23 -6 -31 -24t-8 -39v-297l2 -170q1 -16 6 -22t19 -10l67 -15v0zM23 785 q29 18 53.5 34.5t47 34t44.5 36t46 41.5q38 -35 85 -71t92 -66l-39 -61q-40 17 -80 38.5t-70 42.5q-29 -18 -66.5 -39.5t-82.5 -41.5z" />
<glyph unicode="&#xcf;" horiz-adv-x="403" d="M96 756q-6 0 -18 9.5t-24 21.5t-21 24t-9 18t9.5 18t21.5 24.5t24 21.5t17 9q6 0 18 -9.5t24.5 -22t22 -24.5t9.5 -17t-9 -16.5t-21.5 -24.5t-25 -22.5t-18.5 -9.5zM307 756q-6 0 -18 9.5t-24.5 21.5t-21.5 24t-9 18t9.5 18t21.5 24.5t24 21.5t18 9q5 0 17 -9.5t24.5 -22 t22 -24.5t9.5 -17t-9 -16.5t-21 -24.5t-24.5 -22.5t-18.5 -9.5zM367 61q0 -14 -0.5 -30t-5.5 -31h-314q-6 24 -4 54l43 15q17 6 30 20.5t14 40.5l3 148v294q0 25 -15 41.5t-36 24.5l-37 16q-1 12 -1 25.5t3 27.5h308q2 -17 2 -31.5t-2 -27.5l-43 -10q-23 -6 -31 -24t-8 -39 v-297l2 -170q1 -16 6 -22t19 -10l67 -15v0z" />
<glyph unicode="&#xd1;" horiz-adv-x="844" d="M30 0zM522 753q-15 0 -40.5 6t-52.5 13.5t-51 14t-37 6.5q-20 0 -36.5 -6.5t-33.5 -17.5l-28 35q12 13 24.5 27.5t27 26.5t32 19.5t39.5 7.5q19 0 45.5 -6t52.5 -13t48 -13t33 -6q29 0 45 7.5t21 12.5l29 -33q-9 -14 -20 -28.5t-25 -26t-32 -19t-41 -7.5zM768 638 q-17 -8 -29 -27t-12 -42v-563l-108 -29l-397 552h-7l6 -80v-176l3 -155q0 -18 3.5 -25.5t20.5 -12.5l85 -25v-10.5t-1 -16t-2 -16.5t-2 -12h-293q-2 11 -3.5 27t-0.5 26l51 15q23 6 35 32t13 55l2 118v308q0 17 -8 30.5t-21 20.5l-61 27v23.5t2 24.5h221l374 -512h7l-7 105 v268q0 23 -11 39.5t-26 24.5l-63 27q0 7 0.5 23.5t3.5 24.5h274q2 -11 3 -23.5t1 -22.5z" />
<glyph unicode="&#xd6;" horiz-adv-x="821" d="M38 0zM300 756q-6 0 -18 9.5t-24 21.5t-21 24t-9 18t9.5 18t21.5 24.5t24 21.5t17 9q6 0 18.5 -9.5t24.5 -22t21.5 -24.5t9.5 -17t-9 -16.5t-21 -24.5t-24.5 -22.5t-19.5 -9.5zM533 756q-6 0 -18 9.5t-24.5 21.5t-21.5 24t-9 18t9.5 18t21.5 24.5t24 21.5t18 9t18 -9.5 t24.5 -22t22 -24.5t9.5 -17t-9 -16.5t-21 -24.5t-24.5 -22.5t-19.5 -9.5zM783 382q0 -81 -26.5 -152.5t-76.5 -125.5t-122 -85t-162 -31q-177 0 -267.5 87t-90.5 248q0 84 28.5 156t80 125t123 83.5t158.5 30.5q91 0 158 -23.5t110.5 -67.5t65 -106t21.5 -139zM624 358 q0 57 -11.5 106t-36.5 85t-65.5 57t-97.5 21q-61 0 -102 -22t-66.5 -59.5t-36.5 -87.5t-11 -106q0 -55 10.5 -104t35 -86t64.5 -59t99 -22q63 0 104.5 22t67 59.5t36 88t10.5 107.5z" />
<glyph unicode="&#xd5;" horiz-adv-x="821" d="M38 0zM511 753q-15 0 -40.5 6t-52.5 13.5t-51 14t-37 6.5q-20 0 -36.5 -6.5t-33.5 -17.5l-28 35q12 13 24.5 27.5t27 26.5t32 19.5t39.5 7.5q19 0 45.5 -6t52.5 -13t48 -13t33 -6q29 0 45 7.5t21 12.5l29 -33q-9 -14 -20 -28.5t-25 -26t-32 -19t-41 -7.5zM783 382 q0 -81 -26.5 -152.5t-76.5 -125.5t-122 -85t-162 -31q-177 0 -267.5 87t-90.5 248q0 84 28.5 156t80 125t123 83.5t158.5 30.5q91 0 158 -23.5t110.5 -67.5t65 -106t21.5 -139zM624 358q0 57 -11.5 106t-36.5 85t-65.5 57t-97.5 21q-61 0 -102 -22t-66.5 -59.5t-36.5 -87.5 t-11 -106q0 -55 10.5 -104t35 -86t64.5 -59t99 -22q63 0 104.5 22t67 59.5t36 88t10.5 107.5z" />
<glyph unicode="&#xd3;" horiz-adv-x="821" d="M38 0zM318 806q67 23 133 50t128 62l43 -96q-29 -12 -63.5 -23.5t-72 -21.5t-76 -19t-74.5 -16zM783 382q0 -81 -26.5 -152.5t-76.5 -125.5t-122 -85t-162 -31q-177 0 -267.5 87t-90.5 248q0 84 28.5 156t80 125t123 83.5t158.5 30.5q91 0 158 -23.5t110.5 -67.5t65 -106 t21.5 -139zM624 358q0 57 -11.5 106t-36.5 85t-65.5 57t-97.5 21q-61 0 -102 -22t-66.5 -59.5t-36.5 -87.5t-11 -106q0 -55 10.5 -104t35 -86t64.5 -59t99 -22q63 0 104.5 22t67 59.5t36 88t10.5 107.5z" />
<glyph unicode="&#xd4;" horiz-adv-x="821" d="M38 0zM243 785q29 18 53.5 34.5t47 34t44.5 36t46 41.5q38 -35 85 -71t92 -66l-39 -61q-40 17 -80 38.5t-70 42.5q-29 -18 -66.5 -39.5t-82.5 -41.5zM783 382q0 -81 -26.5 -152.5t-76.5 -125.5t-122 -85t-162 -31q-177 0 -267.5 87t-90.5 248q0 84 28.5 156t80 125 t123 83.5t158.5 30.5q91 0 158 -23.5t110.5 -67.5t65 -106t21.5 -139zM624 358q0 57 -11.5 106t-36.5 85t-65.5 57t-97.5 21q-61 0 -102 -22t-66.5 -59.5t-36.5 -87.5t-11 -106q0 -55 10.5 -104t35 -86t64.5 -59t99 -22q63 0 104.5 22t67 59.5t36 88t10.5 107.5z" />
<glyph unicode="&#xda;" horiz-adv-x="811" d="M19 0zM320 806q67 23 133 50t128 62l43 -96q-29 -12 -63.5 -23.5t-72 -21.5t-76 -19t-74.5 -16zM740 636q-10 -4 -18.5 -10.5t-8.5 -29.5v-327q0 -82 -29.5 -136t-74 -86t-97.5 -45t-100 -13q-51 0 -105.5 8t-99.5 34.5t-73.5 76.5t-28.5 134v339q0 17 -7.5 32t-21.5 20 l-57 21v10.5t0.5 15.5t1.5 15.5t2 11.5h317q2 -11 2.5 -29.5t-0.5 -28.5l-63 -12q-15 -3 -20.5 -10.5t-5.5 -21.5v-343q0 -57 17.5 -93t44.5 -56.5t59.5 -28t63.5 -7.5q33 0 62.5 9.5t52 33t36 64t13.5 102.5v287q0 20 -10.5 39t-45.5 29l-43 13q0 3 -0.5 10.5t-0.5 15.5 t0.5 15.5t1.5 11.5h282q2 -11 3.5 -28t0.5 -27z" />
<glyph unicode="&#xdb;" horiz-adv-x="811" d="M19 0zM740 636q-10 -4 -18.5 -10.5t-8.5 -29.5v-327q0 -82 -29.5 -136t-74 -86t-97.5 -45t-100 -13q-51 0 -105.5 8t-99.5 34.5t-73.5 76.5t-28.5 134v339q0 17 -7.5 32t-21.5 20l-57 21v10.5t0.5 15.5t1.5 15.5t2 11.5h317q2 -11 2.5 -29.5t-0.5 -28.5l-63 -12 q-15 -3 -20.5 -10.5t-5.5 -21.5v-343q0 -57 17.5 -93t44.5 -56.5t59.5 -28t63.5 -7.5q33 0 62.5 9.5t52 33t36 64t13.5 102.5v287q0 20 -10.5 39t-45.5 29l-43 13q0 3 -0.5 10.5t-0.5 15.5t0.5 15.5t1.5 11.5h282q2 -11 3.5 -28t0.5 -27zM250 785q29 18 53.5 34.5t47 34 t44.5 36t46 41.5q38 -35 85 -71t92 -66l-39 -61q-40 17 -80 38.5t-70 42.5q-29 -18 -66.5 -39.5t-82.5 -41.5z" />
<glyph unicode="&#xd9;" horiz-adv-x="811" d="M19 0zM522 742q-36 7 -74.5 16t-76 19t-72.5 21.5t-64 23.5l44 96q62 -35 128 -62t133 -50l-18 -64v0zM740 636q-10 -4 -18.5 -10.5t-8.5 -29.5v-327q0 -82 -29.5 -136t-74 -86t-97.5 -45t-100 -13q-51 0 -105.5 8t-99.5 34.5t-73.5 76.5t-28.5 134v339q0 17 -7.5 32 t-21.5 20l-57 21v10.5t0.5 15.5t1.5 15.5t2 11.5h317q2 -11 2.5 -29.5t-0.5 -28.5l-63 -12q-15 -3 -20.5 -10.5t-5.5 -21.5v-343q0 -57 17.5 -93t44.5 -56.5t59.5 -28t63.5 -7.5q33 0 62.5 9.5t52 33t36 64t13.5 102.5v287q0 20 -10.5 39t-45.5 29l-43 13q0 3 -0.5 10.5 t-0.5 15.5t0.5 15.5t1.5 11.5h282q2 -11 3.5 -28t0.5 -27z" />
<glyph unicode="&#xdc;" horiz-adv-x="811" d="M19 0zM311 756q-6 0 -18 9.5t-24 21.5t-21 24t-9 18t9.5 18t21.5 24.5t24 21.5t17 9q6 0 18.5 -9.5t24.5 -22t21.5 -24.5t9.5 -17t-9 -16.5t-21 -24.5t-24.5 -22.5t-19.5 -9.5zM544 756q-6 0 -18 9.5t-24.5 21.5t-21.5 24t-9 18t9.5 18t21.5 24.5t24 21.5t18 9t18 -9.5 t24.5 -22t22 -24.5t9.5 -17t-9 -16.5t-21 -24.5t-24.5 -22.5t-19.5 -9.5zM740 636q-10 -4 -18.5 -10.5t-8.5 -29.5v-327q0 -82 -29.5 -136t-74 -86t-97.5 -45t-100 -13q-51 0 -105.5 8t-99.5 34.5t-73.5 76.5t-28.5 134v339q0 17 -7.5 32t-21.5 20l-57 21v10.5t0.5 15.5 t1.5 15.5t2 11.5h317q2 -11 2.5 -29.5t-0.5 -28.5l-63 -12q-15 -3 -20.5 -10.5t-5.5 -21.5v-343q0 -57 17.5 -93t44.5 -56.5t59.5 -28t63.5 -7.5q33 0 62.5 9.5t52 33t36 64t13.5 102.5v287q0 20 -10.5 39t-45.5 29l-43 13q0 3 -0.5 10.5t-0.5 15.5t0.5 15.5t1.5 11.5h282 q2 -11 3.5 -28t0.5 -27z" />
<glyph unicode="&#x178;" horiz-adv-x="679" d="M0 0zM681 707q3 -14 4 -26t1 -26q-21 -11 -37.5 -24.5t-31.5 -35.5l-208 -313l3 -166q0 -15 7.5 -26t21.5 -14l66 -17q0 -14 -1 -29t-6 -30h-321q-4 15 -5 29t-1 28l50 13q17 5 30 19t13 37l3 148l-207 316q-17 26 -32.5 40t-30.5 27q-1 10 -1 24t3 26h288 q2 -12 3.5 -25.5t1.5 -29.5l-43 -17q-14 -5 -21 -16t-7 -25q0 -9 2.5 -18.5t8.5 -18.5l133 -208l131 205q10 16 9 31q0 17 -11 28t-21 16l-48 23q-1 12 -0.5 26t3.5 29h251zM248 756q-6 0 -18 9.5t-24 21.5t-21 24t-9 18t9.5 18t21.5 24.5t24 21.5t17 9q6 0 18.5 -9.5 t24.5 -22t21.5 -24.5t9.5 -17t-9 -16.5t-21 -24.5t-24.5 -22.5t-19.5 -9.5zM481 756q-6 0 -18 9.5t-24.5 21.5t-21.5 24t-9 18t9.5 18t21.5 24.5t24 21.5t18 9t18 -9.5t24.5 -22t22 -24.5t9.5 -17t-9 -16.5t-21 -24.5t-24.5 -22.5t-19.5 -9.5z" />
<glyph unicode="&#xc6;" horiz-adv-x="999" d="M947 0h-572q-3 15 -4 30.5t0 28.5q1 0 8.5 2t16.5 4q11 3 23 7q17 5 29.5 15.5t13.5 27.5l2 164v29h-198l-90 -156q-5 -10 -7 -17.5t-2 -13.5q0 -17 10.5 -26.5t21.5 -12.5l82 -22q0 -11 -0.5 -28.5t-5.5 -31.5h-290q-4 13 -4.5 26.5t0.5 27.5l24 16q29 21 49 52l351 585 h522v-164q-14 -4 -31 -5t-32 1q-9 48 -29 65t-53 17l-179 5v-236l292 5v-92l-292 5v-30l5 -197l159 4q54 2 90 25.5t54 73.5l60 -13zM313 390h151v221q0 7 0.5 22.5t1.5 20.5z" />
<glyph unicode="&#x152;" horiz-adv-x="1059" d="M1007 0h-497q-50 -12 -107 -12q-88 0 -156 26.5t-114.5 74t-70.5 114t-24 146.5q0 84 27.5 152t78 116t121 74.5t157.5 26.5q55 0 105 -11h460v-164q-14 -4 -31.5 -5t-31.5 1q-10 48 -30 65t-53 17l-177 5v-230l283 5v-92l-283 5v-36l4 -197l158 4q54 2 90.5 25.5 t53.5 73.5l61 -13zM524 577q0 6 -1 11.5t-2 10.5q-45 28 -108 28q-61 0 -102 -21.5t-66.5 -58t-36.5 -86t-11 -105.5q0 -55 10.5 -105t35 -87.5t64.5 -60t99 -22.5q42 0 72 9.5t43 35.5l3 153v298z" />
<glyph unicode="a" horiz-adv-x="573" d="M570 47q-12 -11 -29 -21t-35.5 -17.5t-36.5 -12t-33 -4.5q-28 0 -46 5.5t-28.5 16t-15.5 26.5t-6 38q-11 -11 -28 -26t-39.5 -28.5t-49.5 -23t-57 -9.5q-63 0 -103 30.5t-40 95.5q0 45 18 76t47.5 51.5t67 32t76.5 17.5q33 5 62.5 8t42.5 4v63q0 42 -23.5 61t-89.5 19 q-27 0 -63.5 -5t-78.5 -16l-24 95q50 19 97.5 27.5t95.5 8.5q21 0 45.5 -0.5t49 -5t47.5 -14t40.5 -26.5t28 -42.5t10.5 -62.5v-135l7 -183h84zM337 239q-7 -1 -32 -3.5t-49 -7.5q-45 -9 -70 -27t-25 -52q0 -22 14.5 -36.5t46.5 -14.5q16 0 33.5 4t33.5 9t29 10t19 7v111z " />
<glyph unicode="b" horiz-adv-x="618" d="M582 290q0 -65 -22 -119.5t-61.5 -94.5t-93.5 -62t-117 -22q-47 0 -80.5 2t-59 6t-44 8.5t-34.5 9.5l6 262v398h-93v61q42 9 88.5 17t88.5 8q29 0 39.5 -10t10.5 -40v-435l5 -188q14 -2 30.5 -4.5t45.5 -2.5q37 0 64.5 15.5t45.5 42.5t26.5 63t8.5 78q0 40 -6 73.5 t-20.5 57.5t-38 37.5t-59.5 13.5q-16 0 -32 -1t-28 -3l-14 66q7 4 19 8.5t26.5 8.5t29.5 7t29 3q58 0 103 -12.5t75.5 -42.5t46 -81t15.5 -128z" />
<glyph unicode="c" horiz-adv-x="530" d="M502 464q0 -23 -14 -47t-44 -37q-17 19 -33.5 36t-33.5 30t-36 20.5t-41 7.5q-26 0 -48.5 -10.5t-39.5 -33.5t-27 -58.5t-10 -85.5q0 -93 40.5 -141.5t125.5 -48.5q31 0 65 5.5t66 11.5l23 -72q-35 -23 -81.5 -38t-115.5 -15q-72 0 -122.5 18t-81.5 52t-45 82t-14 107 q0 72 19.5 130t57 98.5t92.5 62t127 21.5q26 0 56 -4t55.5 -15t42.5 -29.5t17 -46.5z" />
<glyph unicode="d" horiz-adv-x="644" d="M634 41q-32 -18 -72 -33.5t-96 -15.5q-19 0 -31.5 7.5t-20 19.5t-10.5 26.5t-3 28.5q-13 -15 -28 -29.5t-33 -26t-40 -18.5t-47 -7q-41 0 -79.5 10.5t-69.5 39t-49.5 79t-18.5 130.5q0 69 22 124t60 94t89 59.5t110 20.5q29 0 49 -1.5t38 -3.5v133h-93v65q20 4 43.5 8 t47 7t45.5 4.5t40 1.5q29 0 40.5 -10t11.5 -40v-435l4 -188h81zM404 464q-17 4 -38.5 7.5t-51.5 3.5q-39 0 -65 -15.5t-41.5 -43.5t-22 -67t-6.5 -85q0 -83 32 -121.5t92 -38.5q28 0 51 6.5t46 17.5l4 152v184z" />
<glyph unicode="e" horiz-adv-x="568" d="M176 257q2 -50 16 -80.5t36.5 -48t53.5 -23.5t67 -6q29 0 67.5 3.5t84.5 14.5l23 -75q-52 -28 -103.5 -40.5t-113.5 -12.5q-54 0 -103.5 11t-87 39.5t-60 77.5t-22.5 125q0 69 19 127.5t55 100.5t87 65.5t116 23.5q60 0 102.5 -20t69.5 -55t39.5 -82.5t12.5 -103.5v-41 h-359zM389 324q0 71 -21.5 115t-73.5 44q-28 0 -50 -12.5t-37.5 -34t-24 -50.5t-9.5 -62h216z" />
<glyph unicode="f" horiz-adv-x="410" d="M511 689q0 -31 -14.5 -50.5t-41.5 -31.5q-12 15 -25.5 29t-27 25.5t-26 18.5t-21.5 7q-57 0 -80 -29t-23 -77v-37h119v-73h-119v-191l5 -164q0 -17 8.5 -25t23.5 -11l108 -21q0 -13 -1.5 -28.5t-5.5 -30.5h-354q-3 15 -4 28t-1 26q2 1 9.5 4t15.5 5q10 3 21 6 q19 7 27 23.5t8 39.5l3 148v191h-80v58l80 16v17q0 41 20 78.5t52 65.5t72.5 44.5t81.5 16.5q30 0 60.5 -4t55 -13t39.5 -24t15 -37z" />
<glyph unicode="g" horiz-adv-x="610" d="M497 450q5 -10 9 -27.5t4 -43.5q0 -41 -17 -75t-47 -58t-72.5 -37t-93.5 -13q-29 0 -59 4t-56 14v-89h180q67 0 111 -10t69.5 -28t35.5 -44t10 -59q0 -50 -26 -89t-70 -65t-102.5 -39.5t-123.5 -13.5q-41 0 -80.5 5.5t-71 20t-50.5 38.5t-19 60q0 22 8 40.5t21 33.5 t28.5 26t30.5 18q-8 0 -18 3.5t-19 11t-15.5 19.5t-6.5 29q0 35 19.5 73.5t47.5 76.5q-33 20 -52 52.5t-19 80.5q0 37 14 72t42.5 62t71 43t99.5 16q55 0 98 -12.5t66 -29.5l158 36v-102h-105zM370 372q0 50 -22.5 82t-67.5 32q-29 0 -47.5 -9.5t-30 -25.5t-16 -36t-4.5 -41 q0 -23 5 -43t16 -34.5t29.5 -22.5t44.5 -8q47 0 70 29t23 77zM435 -43q0 30 -24 42t-73 12h-168q-11 -11 -20 -27t-9 -34q0 -38 34 -63.5t115 -25.5q69 0 107 26t38 70z" />
<glyph unicode="h" horiz-adv-x="697" d="M683 58q0 -38 -7 -58h-271q-2 14 -3.5 27t0.5 29l38 17q13 6 17.5 17t5.5 28l2 156v64q0 27 -2 49.5t-11 38t-26.5 24t-48.5 8.5q-20 0 -40.5 -2.5t-40 -7t-35.5 -9.5t-26 -9v-156l3 -158q0 -16 3 -25.5t14 -14.5l58 -18q0 -19 -1 -32.5t-4 -25.5h-282q-7 28 -5 53l48 18 q27 9 27 50l3 153v406h-87v63q20 4 44.5 8t49 7t47 5t40.5 2q22 0 30.5 -8.5t8.5 -26.5v-241q15 11 33.5 23t42.5 22.5t52.5 17t62.5 6.5q64 0 100 -13.5t53 -37.5t21 -57.5t4 -72.5v-103l3 -173q1 -13 4 -19.5t12 -8.5l63 -15v0z" />
<glyph unicode="i" horiz-adv-x="363" d="M35 0q-4 19 -4 56l61 19q14 4 20.5 16t6.5 28l3 154v197h-92v65q20 4 44 8t48.5 7t47 5t40.5 2q24 0 36 -9t12 -35v-240l2 -161q1 -19 5 -26.5t12 -9.5l74 -18q0 -14 -1 -30t-5 -28h-310zM187 636q-8 0 -22.5 11.5t-29 26.5t-25.5 29.5t-11 20.5q0 8 11 22.5t26 29 t29.5 25.5t21.5 11q6 0 20.5 -11t30 -26t27 -29.5t11.5 -21.5q0 -5 -11 -19.5t-26 -29.5t-30 -27t-22 -12z" />
<glyph unicode="j" horiz-adv-x="312" d="M18 -225q-26 0 -49 4.5t-41 13.5l33 106q16 -8 34.5 -13t41.5 -5q35 0 50.5 23t15.5 77v489h-89v65q20 4 44 8t48 7t46 5t40 2q24 0 35.5 -9t11.5 -35v-240l1 -229q0 -54 -21 -102.5t-53.5 -85.5t-72 -59t-75.5 -22zM170 636q-7 0 -21.5 11.5t-29 26.5t-25.5 29.5 t-11 21.5t11 22t25.5 29.5t29 25.5t21.5 11q6 0 21 -11t30 -26t26.5 -29.5t11.5 -21.5q0 -5 -11 -19.5t-26 -30t-30 -27.5t-22 -12z" />
<glyph unicode="k" horiz-adv-x="631" d="M615 -17q-43 2 -78.5 10t-65.5 23t-56 38t-50 56l-123 163l2 -147q1 -17 5.5 -30.5t16.5 -21.5l30 -20q0 -19 -1 -30.5t-5 -23.5h-269q-3 15 -3.5 25.5t0.5 27.5l56 18q17 5 23 18t6 31l3 154v404h-90v65q20 4 44 8t48 7t46.5 4.5t40.5 1.5q23 0 35 -9t12 -35v-403v-28 l157 144q14 11 14 26q0 8 -4 15.5t-12 9.5l-37 17q0 8 0.5 21t3.5 24h218v-47l-210 -180l113 -142q38 -48 76 -80.5t68 -43.5z" />
<glyph unicode="l" horiz-adv-x="348" d="M335 58q0 -19 -1 -32.5t-4 -25.5h-309q-2 14 -3 25t-1 28l57 17q16 5 22 16.5t6 29.5l4 158v404h-90v65q17 4 40.5 8t48.5 7t48.5 4.5t41.5 1.5q23 0 35 -9t12 -35v-446l3 -163q1 -14 3 -23.5t11 -11.5l76 -18v0z" />
<glyph unicode="m" horiz-adv-x="1061" d="M1049 57q0 -37 -7 -57h-270q-6 25 -4 57l36 17q22 12 22 43l3 156v65q0 27 -2 49.5t-10.5 38t-26 24t-48.5 8.5q-36 0 -74 -8t-61 -17v-10.5t0.5 -16.5t0.5 -17v-12v-103l3 -172q0 -25 14 -29l70 -16q0 -20 -1 -33t-5 -24h-272q-2 14 -3.5 27t-0.5 29l36 16q11 6 15.5 17 t5.5 22l3 162v65q0 27 -2 49.5t-10.5 38t-25.5 24t-48 8.5q-39 0 -77 -9.5t-58 -19.5v-155l2 -159q0 -14 2.5 -25t12.5 -13l63 -18q0 -19 -1 -33t-4 -26h-287q-4 14 -4 25v28l47 17q14 5 22 16t8 32l2 156v196h-85v65q20 4 44 8t48 7t46.5 4.5t40.5 1.5q22 0 30.5 -8.5 t8.5 -27.5v-31q15 11 32.5 23t40 22.5t50 17t61.5 6.5q77 0 113.5 -19t49.5 -52q15 11 34 23.5t43 23t52.5 17.5t63.5 7q64 0 99.5 -13.5t53 -37.5t21 -57.5t3.5 -72.5v-103l3 -172q0 -14 3 -20.5t13 -8.5l65 -16v0z" />
<glyph unicode="n" horiz-adv-x="711" d="M698 57q0 -20 -1 -33t-5 -24h-268q-2 14 -3.5 27t0.5 29l32 17q14 8 18.5 19.5t4.5 24.5l3 157v63q0 27 -2 49.5t-11 38t-27 24t-49 8.5q-19 0 -39 -2.5t-39 -6.5t-34.5 -9t-25.5 -10v-155l2 -161q0 -14 2 -23.5t13 -13.5l62 -18q0 -19 -0.5 -32.5t-4.5 -25.5h-285 q-2 11 -3 25.5t0 27.5l47 18q15 6 21.5 18t6.5 29l3 156v196h-87v65q20 4 44.5 8t49 7t47 4.5t40.5 1.5q22 0 30 -8.5t8 -27.5v-31q15 11 33 23t41.5 22.5t51.5 17t62 6.5q64 0 100.5 -13.5t53.5 -37.5t21 -57.5t4 -72.5v-103l3 -176q1 -12 3 -17.5t11 -7.5l66 -16v0z" />
<glyph unicode="o" horiz-adv-x="608" d="M575 277q0 -54 -21 -106t-58.5 -92.5t-88 -65t-110.5 -24.5q-124 0 -194 67t-70 210q0 55 21.5 107.5t58 93.5t86.5 66.5t107 25.5q269 0 269 -282zM428 274q0 35 -5 70.5t-19 64t-40.5 46.5t-68.5 18q-40 0 -63 -19.5t-35 -48.5t-15.5 -64.5t-3.5 -66.5q0 -38 6 -73.5 t21 -62.5t41 -43t67 -16q36 0 58.5 16t35 43t17 62t4.5 74z" />
<glyph unicode="p" horiz-adv-x="646" d="M610 284q0 -86 -25 -142.5t-66.5 -89.5t-94.5 -46.5t-108 -13.5q-24 0 -39.5 0.5t-29.5 2.5l3 -98q0 -18 8 -27t25 -14l74 -15q0 -15 -1.5 -30t-6.5 -31h-321q-4 17 -5.5 31.5t-1.5 25.5l37 13q23 8 32.5 25t9.5 36l4 360v199h-91v63q15 3 36.5 7t46 7.5t50 6t49.5 2.5 q42 0 42 -41v-19q26 26 61.5 43t74.5 17q55 0 98.5 -13.5t74.5 -45.5t47.5 -84t16.5 -129zM464 265q0 41 -7 77.5t-22 64t-38.5 43.5t-56.5 16q-31 0 -58 -9.5t-41 -16.5v-171l3 -195q7 -2 13.5 -3t14.5 -2.5t19.5 -2t28.5 -0.5q37 0 64.5 15.5t45 42.5t26 63t8.5 78z" />
<glyph unicode="q" horiz-adv-x="611" d="M624 -160v-27t-4 -33h-314q-3 14 -3 31v26l51 14q26 8 33 28.5t8 43.5l3 138q-13 -11 -27.5 -23t-32 -21.5t-37 -16t-42.5 -6.5q-41 0 -81 10t-71.5 38.5t-51 81t-19.5 138.5q0 69 22 123.5t60 93t89 59t110 20.5q62 0 118 -8t104 -23v-306l5 -333q2 -19 8 -25.5 t20 -10.5zM402 465q-16 4 -36.5 8.5t-50.5 4.5q-40 0 -66.5 -16.5t-42 -45.5t-22 -68.5t-6.5 -84.5q0 -88 31 -125t92 -37q30 0 54 5t44 13l3 155v191z" />
<glyph unicode="r" horiz-adv-x="490" d="M455 415q-22 12 -44 17t-44 5q-40 0 -68.5 -8t-43.5 -20v-134l4 -162q0 -14 2.5 -18.5t10.5 -6.5l120 -25q0 -15 -0.5 -33.5t-5.5 -29.5h-347q-3 14 -4 29t-1 26l45 17q18 7 27.5 18t10.5 38l2 147v196h-90v65q37 7 86.5 14t91.5 7q18 0 31.5 -8t13.5 -31v-40 q10 14 25 28t33.5 25.5t40.5 18.5t46 7q33 0 56.5 -6.5t40.5 -15.5z" />
<glyph unicode="s" horiz-adv-x="500" d="M464 161q0 -49 -21.5 -82t-56 -53.5t-76.5 -29t-83 -8.5q-55 0 -103.5 12t-90.5 31l9 149l54 -1q7 -55 45 -84t94 -29q43 0 68 13.5t25 42.5q0 16 -8 27.5t-23 21t-37.5 19.5t-51.5 22q-27 11 -54.5 25.5t-49 35t-35 49t-13.5 67.5q0 43 17 75t46.5 53t68 31t81.5 10 q38 0 86 -9t99 -32l-19 -140l-49 6q-3 16 -12 33t-24 31t-37 22.5t-53 8.5q-46 0 -64 -16t-18 -36q0 -17 8.5 -28.5t24 -21.5t38 -19t49.5 -21q32 -13 62 -28t53 -35t37 -47.5t14 -64.5z" />
<glyph unicode="t" horiz-adv-x="458" d="M442 43q-30 -21 -77.5 -37.5t-108.5 -16.5q-42 0 -72.5 8.5t-50 28.5t-28.5 53t-9 82l3 298h-80v53l190 146h29v-112h183v-87h-183v-183l4 -113q1 -35 20 -49.5t61 -14.5q45 0 101 15z" />
<glyph unicode="u" d="M680 33q-27 -14 -65 -27t-83 -13q-38 0 -60 18t-24 62q-38 -35 -82 -59.5t-99 -24.5q-60 0 -94 13.5t-50.5 37t-20 55t-3.5 66.5v309h-85v60q41 9 82.5 17.5t76.5 8.5q30 0 46.5 -13t16.5 -42v-210l1 -104q0 -22 3 -39.5t10 -30t19.5 -19t32.5 -6.5q34 0 71 13t69 30 l4 138v197h-83v60q35 11 77 18.5t78 7.5q29 0 46.5 -13t17.5 -42v-229l5 -181h83z" />
<glyph unicode="v" horiz-adv-x="546" d="M53 426q-7 20 -18 32.5t-29 25.5q0 17 0.5 29.5t4.5 32.5h242v-13t-0.5 -23t-1 -22t-0.5 -11h-65l110 -334l112 274q5 10 2.5 21t-7.5 16q-5 11 -15 16.5t-18 8.5q-1 3 -7 10.5t-6 13.5q0 11 1 22.5t4 20.5h189v-10.5v-18t-0.5 -18t-0.5 -9.5q-13 -13 -27 -32t-28 -54 l-174 -400l-102 -28z" />
<glyph unicode="w" horiz-adv-x="860" d="M425 340l-129 -338l-105 -22l-134 442q-8 28 -19 39t-28 22q0 17 0.5 30t5.5 33h243v-13.5t-0.5 -22t-1 -21t-1.5 -12.5h-69l83 -330l130 383l95 25l141 -408l85 283q3 13 -3 26.5t-20 19.5l-30 11q0 3 -0.5 9.5t-0.5 14.5q0 9 1 18t3 17h190v-10v-17v-17v-9 q-14 -11 -29 -30t-28 -56l-144 -407l-100 -20z" />
<glyph unicode="x" horiz-adv-x="600" d="M582 60q0 -10 -1 -28t-6 -32h-240q-3 15 -4 29t-1 24l9 5q7 3 12 10.5t5 18.5q0 12 -10 25l-70 92l-86 -113q-5 -8 -5 -12q0 -7 10 -9l53 -12q0 -13 -1.5 -29.5t-6.5 -28.5h-215q-3 15 -4 28t-1 26q7 3 25 14t32 26l153 167l-130 169q-17 21 -31 32.5t-40 24.5 q0 6 -0.5 13t-0.5 14q0 17 3 32h248v-12.5t-0.5 -22.5t-1 -22t-1.5 -12h-52l103 -137l77 92q10 13 10 25q0 13 -11 19l-24 16q0 13 1 26.5t4 27.5h190q0 -15 -0.5 -27t-4.5 -24q-8 -2 -26.5 -16t-33.5 -31l-142 -159l153 -182q7 -9 13.5 -15.5t13 -11t15 -9.5t20.5 -11z" />
<glyph unicode="y" horiz-adv-x="559" d="M560 546v-11.5v-18.5t-0.5 -18t-0.5 -10q-17 -10 -31 -28t-29 -54l-215 -513q-20 -49 -55.5 -80t-75.5 -50l-78 112q26 11 51.5 25.5t45.5 31.5q18 14 29.5 28t18.5 28l-157 440q-7 20 -24 32.5t-43 24.5v28.5t5 32.5h260v-13.5v-22t-0.5 -21.5t-0.5 -12h-68l114 -348 l107 288q6 16 1 32.5t-19 22.5q-5 5 -17 7.5t-16 4.5q0 2 -0.5 9.5t-0.5 15.5q0 9 1 19t3 18h195v0z" />
<glyph unicode="z" horiz-adv-x="552" d="M497 0h-448l-22 58l330 384h-200q-26 0 -44.5 -21t-37.5 -47q-14 5 -24.5 9t-15.5 9l41 154h410l6 -77l-309 -364h190q16 0 33 8t31.5 20.5t26.5 27.5t19 28q22 -4 32 -8l15 -6z" />
<glyph unicode="&#xe1;" horiz-adv-x="573" d="M23 0zM570 47q-12 -11 -29 -21t-35.5 -17.5t-36.5 -12t-33 -4.5q-28 0 -46 5.5t-28.5 16t-15.5 26.5t-6 38q-11 -11 -28 -26t-39.5 -28.5t-49.5 -23t-57 -9.5q-63 0 -103 30.5t-40 95.5q0 45 18 76t47.5 51.5t67 32t76.5 17.5q33 5 62.5 8t42.5 4v63q0 42 -23.5 61 t-89.5 19q-27 0 -63.5 -5t-78.5 -16l-24 95q50 19 97.5 27.5t95.5 8.5q21 0 45.5 -0.5t49 -5t47.5 -14t40.5 -26.5t28 -42.5t10.5 -62.5v-135l7 -183h84zM337 239q-7 -1 -32 -3.5t-49 -7.5q-45 -9 -70 -27t-25 -52q0 -22 14.5 -36.5t46.5 -14.5q16 0 33.5 4t33.5 9t29 10 t19 7v111zM440 760q-32 -24 -61 -44.5t-58 -38.5t-59 -34t-63 -31l-34 52q31 22 58 43t51 42t47.5 43.5t48.5 48.5z" />
<glyph unicode="&#xe0;" horiz-adv-x="573" d="M23 0zM570 47q-12 -11 -29 -21t-35.5 -17.5t-36.5 -12t-33 -4.5q-28 0 -46 5.5t-28.5 16t-15.5 26.5t-6 38q-11 -11 -28 -26t-39.5 -28.5t-49.5 -23t-57 -9.5q-63 0 -103 30.5t-40 95.5q0 45 18 76t47.5 51.5t67 32t76.5 17.5q33 5 62.5 8t42.5 4v63q0 42 -23.5 61 t-89.5 19q-27 0 -63.5 -5t-78.5 -16l-24 95q50 19 97.5 27.5t95.5 8.5q21 0 45.5 -0.5t49 -5t47.5 -14t40.5 -26.5t28 -42.5t10.5 -62.5v-135l7 -183h84zM337 239q-7 -1 -32 -3.5t-49 -7.5q-45 -9 -70 -27t-25 -52q0 -22 14.5 -36.5t46.5 -14.5q16 0 33.5 4t33.5 9t29 10 t19 7v111zM191 840q25 -26 49 -48.5t48.5 -43.5t51.5 -41.5t59 -42.5l-34 -52q-67 30 -123.5 65t-119.5 82z" />
<glyph unicode="&#xe2;" horiz-adv-x="573" d="M23 0zM83 660q58 45 105 90.5t89 93.5q18 -20 40.5 -44.5t47 -49t48.5 -46.5t44 -37l-48 -54q-39 23 -77.5 53t-66.5 55q-25 -21 -62.5 -50t-79.5 -58zM570 47q-12 -11 -29 -21t-35.5 -17.5t-36.5 -12t-33 -4.5q-28 0 -46 5.5t-28.5 16t-15.5 26.5t-6 38q-11 -11 -28 -26 t-39.5 -28.5t-49.5 -23t-57 -9.5q-63 0 -103 30.5t-40 95.5q0 45 18 76t47.5 51.5t67 32t76.5 17.5q33 5 62.5 8t42.5 4v63q0 42 -23.5 61t-89.5 19q-27 0 -63.5 -5t-78.5 -16l-24 95q50 19 97.5 27.5t95.5 8.5q21 0 45.5 -0.5t49 -5t47.5 -14t40.5 -26.5t28 -42.5 t10.5 -62.5v-135l7 -183h84zM337 239q-7 -1 -32 -3.5t-49 -7.5q-45 -9 -70 -27t-25 -52q0 -22 14.5 -36.5t46.5 -14.5q16 0 33.5 4t33.5 9t29 10t19 7v111z" />
<glyph unicode="&#xe3;" horiz-adv-x="573" d="M23 0zM570 47q-12 -11 -29 -21t-35.5 -17.5t-36.5 -12t-33 -4.5q-28 0 -46 5.5t-28.5 16t-15.5 26.5t-6 38q-11 -11 -28 -26t-39.5 -28.5t-49.5 -23t-57 -9.5q-63 0 -103 30.5t-40 95.5q0 45 18 76t47.5 51.5t67 32t76.5 17.5q33 5 62.5 8t42.5 4v63q0 42 -23.5 61 t-89.5 19q-27 0 -63.5 -5t-78.5 -16l-24 95q50 19 97.5 27.5t95.5 8.5q21 0 45.5 -0.5t49 -5t47.5 -14t40.5 -26.5t28 -42.5t10.5 -62.5v-135l7 -183h84zM337 239q-7 -1 -32 -3.5t-49 -7.5q-45 -9 -70 -27t-25 -52q0 -22 14.5 -36.5t46.5 -14.5q16 0 33.5 4t33.5 9t29 10 t19 7v111zM466 732l-22 -28t-25 -26t-31.5 -19.5t-40.5 -7.5q-15 0 -39.5 6t-49.5 13.5t-48 14t-35 6.5q-20 0 -37 -5.5t-33 -19.5l-29 36q12 13 24.5 27.5t27 26.5t32.5 19.5t40 7.5q19 0 44 -6t50 -13t45.5 -13t30.5 -6q17 0 29 3t20 7q10 4 17 10l30 -33v0z" />
<glyph unicode="&#xe7;" horiz-adv-x="530" d="M35 0zM502 464q0 -23 -14 -47t-44 -37q-17 19 -33.5 36t-33.5 30t-36 20.5t-41 7.5q-26 0 -48.5 -10.5t-39.5 -33.5t-27 -58.5t-10 -85.5q0 -93 40.5 -141.5t125.5 -48.5q31 0 65 5.5t66 11.5l23 -72q-35 -23 -81.5 -38t-115.5 -15q-72 0 -122.5 18t-81.5 52t-45 82 t-14 107q0 72 19.5 130t57 98.5t92.5 62t127 21.5q26 0 56 -4t55.5 -15t42.5 -29.5t17 -46.5zM415 -169q0 -23 -12 -45.5t-31.5 -40.5t-44.5 -29t-52 -11q-49 0 -101 34l40 71q20 -14 45 -21.5t46 -7.5q18 0 30 6t12 18q0 15 -11 25t-30.5 17.5t-45 13t-53.5 10.5l59 138h72 l-42 -75q60 -14 89.5 -36t29.5 -67z" />
<glyph unicode="&#xe9;" horiz-adv-x="568" d="M34 0zM462 760q-32 -24 -61 -44.5t-58 -38.5t-59 -34t-63 -31l-34 52q31 22 58 43t51 42t47.5 43.5t48.5 48.5zM176 257q2 -50 16 -80.5t36.5 -48t53.5 -23.5t67 -6q29 0 67.5 3.5t84.5 14.5l23 -75q-52 -28 -103.5 -40.5t-113.5 -12.5q-54 0 -103.5 11t-87 39.5 t-60 77.5t-22.5 125q0 69 19 127.5t55 100.5t87 65.5t116 23.5q60 0 102.5 -20t69.5 -55t39.5 -82.5t12.5 -103.5v-41h-359zM389 324q0 71 -21.5 115t-73.5 44q-28 0 -50 -12.5t-37.5 -34t-24 -50.5t-9.5 -62h216z" />
<glyph unicode="&#xe8;" horiz-adv-x="568" d="M34 0zM176 257q2 -50 16 -80.5t36.5 -48t53.5 -23.5t67 -6q29 0 67.5 3.5t84.5 14.5l23 -75q-52 -28 -103.5 -40.5t-113.5 -12.5q-54 0 -103.5 11t-87 39.5t-60 77.5t-22.5 125q0 69 19 127.5t55 100.5t87 65.5t116 23.5q60 0 102.5 -20t69.5 -55t39.5 -82.5t12.5 -103.5 v-41h-359zM389 324q0 71 -21.5 115t-73.5 44q-28 0 -50 -12.5t-37.5 -34t-24 -50.5t-9.5 -62h216zM210 840q25 -26 49 -48.5t48.5 -43.5t51.5 -41.5t59 -42.5l-34 -52q-67 30 -123.5 65t-119.5 82z" />
<glyph unicode="&#xea;" horiz-adv-x="568" d="M34 0zM116 660q58 45 105 90.5t89 93.5q18 -20 40.5 -44.5t47 -49t48.5 -46.5t44 -37l-48 -54q-39 23 -77.5 53t-66.5 55q-25 -21 -62.5 -50t-79.5 -58zM176 257q2 -50 16 -80.5t36.5 -48t53.5 -23.5t67 -6q29 0 67.5 3.5t84.5 14.5l23 -75q-52 -28 -103.5 -40.5 t-113.5 -12.5q-54 0 -103.5 11t-87 39.5t-60 77.5t-22.5 125q0 69 19 127.5t55 100.5t87 65.5t116 23.5q60 0 102.5 -20t69.5 -55t39.5 -82.5t12.5 -103.5v-41h-359zM389 324q0 71 -21.5 115t-73.5 44q-28 0 -50 -12.5t-37.5 -34t-24 -50.5t-9.5 -62h216z" />
<glyph unicode="&#xeb;" horiz-adv-x="568" d="M34 0zM181 643q-6 0 -18 9.5t-24 21.5t-21 24t-9 18t9.5 18t21.5 24.5t24 21.5t17 9q6 0 18.5 -9.5t24.5 -21.5t21.5 -24t9.5 -18q0 -5 -9 -16.5t-21 -24.5t-24.5 -22.5t-19.5 -9.5zM409 643q-6 0 -18 9.5t-24 21.5t-21 24t-9 18t9.5 18t21.5 24.5t24 21.5t17 9 q6 0 18 -9.5t24.5 -21.5t22 -24t9.5 -18q0 -5 -9 -16.5t-21 -24.5t-24.5 -22.5t-19.5 -9.5zM176 257q2 -50 16 -80.5t36.5 -48t53.5 -23.5t67 -6q29 0 67.5 3.5t84.5 14.5l23 -75q-52 -28 -103.5 -40.5t-113.5 -12.5q-54 0 -103.5 11t-87 39.5t-60 77.5t-22.5 125 q0 69 19 127.5t55 100.5t87 65.5t116 23.5q60 0 102.5 -20t69.5 -55t39.5 -82.5t12.5 -103.5v-41h-359zM389 324q0 71 -21.5 115t-73.5 44q-28 0 -50 -12.5t-37.5 -34t-24 -50.5t-9.5 -62h216z" />
<glyph unicode="&#xed;" horiz-adv-x="362" d="M29 0zM353 760q-32 -24 -61 -44.5t-58 -38.5t-59 -34t-63 -31l-34 52q31 22 58 43t51 42t47.5 43.5t48.5 48.5zM350 58q0 -14 -1 -30t-4 -28h-310q-4 19 -4 56l60 19q14 4 20.5 16t7.5 28l3 154v199h-93v65q21 4 45 8t48.5 7t47 4.5t40.5 1.5q23 0 35.5 -8.5t12.5 -34.5 v-242l2 -161q0 -19 4 -26.5t12 -9.5l74 -18v0z" />
<glyph unicode="&#xee;" horiz-adv-x="362" d="M0 0zM-5 660q58 45 105 90.5t89 93.5q18 -20 40.5 -44.5t47 -49t48.5 -46.5t44 -37l-48 -54q-39 23 -77.5 53t-66.5 55q-25 -21 -62.5 -50t-79.5 -58zM350 58q0 -14 -1 -30t-4 -28h-310q-4 19 -4 56l60 19q14 4 20.5 16t7.5 28l3 154v199h-93v65q21 4 45 8t48.5 7t47 4.5 t40.5 1.5q23 0 35.5 -8.5t12.5 -34.5v-242l2 -161q0 -19 4 -26.5t12 -9.5l74 -18v0z" />
<glyph unicode="&#xef;" horiz-adv-x="362" d="M70 640q-6 0 -18 9.5t-24 21.5t-21.5 24t-9.5 17q0 6 9.5 18.5t21.5 24.5t24 21t18 9t18 -9.5t24.5 -21.5t22 -24t9.5 -18q0 -5 -9 -16.5t-21.5 -24t-25 -22t-18.5 -9.5zM284 640q-6 0 -18 9.5t-24 21.5t-21 24t-9 17q0 6 9.5 18.5t21.5 24.5t24 21t17 9q6 0 18 -9.5 t24.5 -21.5t22 -24t9.5 -18q0 -5 -9 -16.5t-21 -24t-24.5 -22t-19.5 -9.5zM350 58q0 -14 -1 -30t-4 -28h-310q-4 19 -4 56l60 19q14 4 20.5 16t7.5 28l3 154v199h-93v65q21 4 45 8t48.5 7t47 4.5t40.5 1.5q23 0 35.5 -8.5t12.5 -34.5v-242l2 -161q0 -19 4 -26.5t12 -9.5 l74 -18v0z" />
<glyph horiz-adv-x="362" d="M350 58q0 -14 -1 -30t-4 -28h-310q-4 19 -4 56l60 19q14 4 20.5 16t7.5 28l3 154v199h-93v65q21 4 45 8t48.5 7t47 4.5t40.5 1.5q23 0 35.5 -8.5t12.5 -34.5v-242l2 -161q0 -19 4 -26.5t12 -9.5l74 -18v0z" />
<glyph unicode="&#xf1;" horiz-adv-x="711" d="M29 0zM561 732l-22 -28t-25 -26t-31.5 -19.5t-40.5 -7.5q-15 0 -39.5 6t-49.5 13.5t-48 14t-35 6.5q-20 0 -37 -5.5t-33 -19.5l-29 36q12 13 24.5 27.5t27 26.5t32.5 19.5t40 7.5q19 0 44 -6t50 -13t45.5 -13t30.5 -6q17 0 29 3t20 7q10 4 17 10l30 -33v0zM698 57 q0 -20 -1 -33t-5 -24h-268q-2 14 -3.5 27t0.5 29l32 17q14 8 18.5 19.5t4.5 24.5l3 157v63q0 27 -2 49.5t-11 38t-27 24t-49 8.5q-19 0 -39 -2.5t-39 -6.5t-34.5 -9t-25.5 -10v-155l2 -161q0 -14 2 -23.5t13 -13.5l62 -18q0 -19 -0.5 -32.5t-4.5 -25.5h-285q-2 11 -3 25.5 t0 27.5l47 18q15 6 21.5 18t6.5 29l3 156v196h-87v65q20 4 44.5 8t49 7t47 4.5t40.5 1.5q22 0 30 -8.5t8 -27.5v-31q15 11 33 23t41.5 22.5t51.5 17t62 6.5q64 0 100.5 -13.5t53.5 -37.5t21 -57.5t4 -72.5v-103l3 -176q1 -12 3 -17.5t11 -7.5l66 -16v0z" />
<glyph unicode="&#xf3;" horiz-adv-x="608" d="M33 0zM466 760q-32 -24 -61 -44.5t-58 -38.5t-59 -34t-63 -31l-34 52q31 22 58 43t51 42t47.5 43.5t48.5 48.5zM575 277q0 -54 -21 -106t-58.5 -92.5t-88 -65t-110.5 -24.5q-124 0 -194 67t-70 210q0 55 21.5 107.5t58 93.5t86.5 66.5t107 25.5q269 0 269 -282zM428 274 q0 35 -5 70.5t-19 64t-40.5 46.5t-68.5 18q-40 0 -63 -19.5t-35 -48.5t-15.5 -64.5t-3.5 -66.5q0 -38 6 -73.5t21 -62.5t41 -43t67 -16q36 0 58.5 16t35 43t17 62t4.5 74z" />
<glyph unicode="&#xf4;" horiz-adv-x="608" d="M33 0zM123 660q58 45 105 90.5t89 93.5q18 -20 40.5 -44.5t47 -49t48.5 -46.5t44 -37l-48 -54q-39 23 -77.5 53t-66.5 55q-25 -21 -62.5 -50t-79.5 -58zM575 277q0 -54 -21 -106t-58.5 -92.5t-88 -65t-110.5 -24.5q-124 0 -194 67t-70 210q0 55 21.5 107.5t58 93.5 t86.5 66.5t107 25.5q269 0 269 -282zM428 274q0 35 -5 70.5t-19 64t-40.5 46.5t-68.5 18q-40 0 -63 -19.5t-35 -48.5t-15.5 -64.5t-3.5 -66.5q0 -38 6 -73.5t21 -62.5t41 -43t67 -16q36 0 58.5 16t35 43t17 62t4.5 74z" />
<glyph unicode="&#xf6;" horiz-adv-x="608" d="M33 0zM189 643q-6 0 -18 9.5t-24 21.5t-21 24t-9 18t9.5 18t21.5 24.5t24 21.5t17 9q6 0 18.5 -9.5t24.5 -21.5t21.5 -24t9.5 -18q0 -5 -9 -16.5t-21 -24.5t-24.5 -22.5t-19.5 -9.5zM417 643q-6 0 -18 9.5t-24 21.5t-21 24t-9 18t9.5 18t21.5 24.5t24 21.5t17 9 q6 0 18 -9.5t24.5 -21.5t22 -24t9.5 -18q0 -5 -9 -16.5t-21 -24.5t-24.5 -22.5t-19.5 -9.5zM575 277q0 -54 -21 -106t-58.5 -92.5t-88 -65t-110.5 -24.5q-124 0 -194 67t-70 210q0 55 21.5 107.5t58 93.5t86.5 66.5t107 25.5q269 0 269 -282zM428 274q0 35 -5 70.5t-19 64 t-40.5 46.5t-68.5 18q-40 0 -63 -19.5t-35 -48.5t-15.5 -64.5t-3.5 -66.5q0 -38 6 -73.5t21 -62.5t41 -43t67 -16q36 0 58.5 16t35 43t17 62t4.5 74z" />
<glyph unicode="&#xf5;" horiz-adv-x="608" d="M33 0zM575 277q0 -54 -21 -106t-58.5 -92.5t-88 -65t-110.5 -24.5q-124 0 -194 67t-70 210q0 55 21.5 107.5t58 93.5t86.5 66.5t107 25.5q269 0 269 -282zM428 274q0 35 -5 70.5t-19 64t-40.5 46.5t-68.5 18q-40 0 -63 -19.5t-35 -48.5t-15.5 -64.5t-3.5 -66.5 q0 -38 6 -73.5t21 -62.5t41 -43t67 -16q36 0 58.5 16t35 43t17 62t4.5 74zM499 732l-22 -28t-25 -26t-31.5 -19.5t-40.5 -7.5q-15 0 -39.5 6t-49.5 13.5t-48 14t-35 6.5q-20 0 -37 -5.5t-33 -19.5l-29 36q12 13 24.5 27.5t27 26.5t32.5 19.5t40 7.5q19 0 44 -6t50 -13 t45.5 -13t30.5 -6q17 0 29 3t20 7q10 4 17 10l30 -33v0z" />
<glyph unicode="&#xfa;" d="M14 0zM516 760q-32 -24 -61 -44.5t-58 -38.5t-59 -34t-63 -31l-34 52q31 22 58 43t51 42t47.5 43.5t48.5 48.5zM680 33q-27 -14 -65 -27t-83 -13q-38 0 -60 18t-24 62q-38 -35 -82 -59.5t-99 -24.5q-60 0 -94 13.5t-50.5 37t-20 55t-3.5 66.5v309h-85v60q41 9 82.5 17.5 t76.5 8.5q30 0 46.5 -13t16.5 -42v-210l1 -104q0 -22 3 -39.5t10 -30t19.5 -19t32.5 -6.5q34 0 71 13t69 30l4 138v197h-83v60q35 11 77 18.5t78 7.5q29 0 46.5 -13t17.5 -42v-229l5 -181h83z" />
<glyph unicode="&#xf9;" d="M14 0zM680 33q-27 -14 -65 -27t-83 -13q-38 0 -60 18t-24 62q-38 -35 -82 -59.5t-99 -24.5q-60 0 -94 13.5t-50.5 37t-20 55t-3.5 66.5v309h-85v60q41 9 82.5 17.5t76.5 8.5q30 0 46.5 -13t16.5 -42v-210l1 -104q0 -22 3 -39.5t10 -30t19.5 -19t32.5 -6.5q34 0 71 13 t69 30l4 138v197h-83v60q35 11 77 18.5t78 7.5q29 0 46.5 -13t17.5 -42v-229l5 -181h83zM224 844q25 -26 49 -48.5t48.5 -43.5t51.5 -41.5t59 -42.5l-34 -52q-67 30 -123.5 65t-119.5 82z" />
<glyph unicode="&#xfb;" d="M14 0zM144 660q58 45 105 90.5t89 93.5q18 -20 40.5 -44.5t47 -49t48.5 -46.5t44 -37l-48 -54q-39 23 -77.5 53t-66.5 55q-25 -21 -62.5 -50t-79.5 -58zM680 33q-27 -14 -65 -27t-83 -13q-38 0 -60 18t-24 62q-38 -35 -82 -59.5t-99 -24.5q-60 0 -94 13.5t-50.5 37 t-20 55t-3.5 66.5v309h-85v60q41 9 82.5 17.5t76.5 8.5q30 0 46.5 -13t16.5 -42v-210l1 -104q0 -22 3 -39.5t10 -30t19.5 -19t32.5 -6.5q34 0 71 13t69 30l4 138v197h-83v60q35 11 77 18.5t78 7.5q29 0 46.5 -13t17.5 -42v-229l5 -181h83z" />
<glyph unicode="&#xfc;" d="M14 0zM214 643q-6 0 -18 9.5t-24 21.5t-21 24t-9 18t9.5 18t21.5 24.5t24 21.5t17 9q6 0 18.5 -9.5t24.5 -21.5t21.5 -24t9.5 -18q0 -5 -9 -16.5t-21 -24.5t-24.5 -22.5t-19.5 -9.5zM442 643q-6 0 -18 9.5t-24 21.5t-21 24t-9 18t9.5 18t21.5 24.5t24 21.5t17 9 q6 0 18 -9.5t24.5 -21.5t22 -24t9.5 -18q0 -5 -9 -16.5t-21 -24.5t-24.5 -22.5t-19.5 -9.5zM680 33q-27 -14 -65 -27t-83 -13q-38 0 -60 18t-24 62q-38 -35 -82 -59.5t-99 -24.5q-60 0 -94 13.5t-50.5 37t-20 55t-3.5 66.5v309h-85v60q41 9 82.5 17.5t76.5 8.5 q30 0 46.5 -13t16.5 -42v-210l1 -104q0 -22 3 -39.5t10 -30t19.5 -19t32.5 -6.5q34 0 71 13t69 30l4 138v197h-83v60q35 11 77 18.5t78 7.5q29 0 46.5 -13t17.5 -42v-229l5 -181h83z" />
<glyph unicode="&#xff;" horiz-adv-x="559" d="M0 0zM181 643q-6 0 -18 9.5t-24 21.5t-21 24t-9 18t9.5 18t21.5 24.5t24 21.5t17 9q6 0 18.5 -9.5t24.5 -21.5t21.5 -24t9.5 -18q0 -5 -9 -16.5t-21 -24.5t-24.5 -22.5t-19.5 -9.5zM409 643q-6 0 -18 9.5t-24 21.5t-21 24t-9 18t9.5 18t21.5 24.5t24 21.5t17 9 q6 0 18 -9.5t24.5 -21.5t22 -24t9.5 -18q0 -5 -9 -16.5t-21 -24.5t-24.5 -22.5t-19.5 -9.5zM560 546v-11.5v-18.5t-0.5 -18t-0.5 -10q-17 -10 -31 -28t-29 -54l-215 -513q-20 -49 -55.5 -80t-75.5 -50l-78 112q26 11 51.5 25.5t45.5 31.5q18 14 29.5 28t18.5 28l-157 440 q-7 20 -24 32.5t-43 24.5v28.5t5 32.5h260v-13.5v-22t-0.5 -21.5t-0.5 -12h-68l114 -348l107 288q6 16 1 32.5t-19 22.5q-5 5 -17 7.5t-16 4.5q0 2 -0.5 9.5t-0.5 15.5q0 9 1 19t3 18h195v0z" />
<glyph unicode="&#xe6;" horiz-adv-x="867" d="M474 244q2 -45 15.5 -73t36.5 -43.5t53.5 -21t66.5 -5.5q28 0 68 2.5t85 13.5l24 -75q-43 -24 -98 -37t-104 -13q-43 0 -79.5 4t-67.5 14t-55 27t-41 43q-19 -16 -41.5 -32t-48 -28.5t-54.5 -20t-60 -7.5q-32 0 -59.5 6.5t-47.5 21.5t-32 39t-12 59q0 45 18.5 76.5 t48.5 51.5t68.5 31.5t77.5 16.5q25 3 52 5t49 3v74q0 21 -4.5 35.5t-17 23t-34.5 12.5t-57 4q-27 0 -62.5 -5t-79.5 -17l-24 95q50 20 97.5 28t95.5 8q22 0 49 -2t53 -8.5t48.5 -20t37.5 -36.5q32 32 72.5 49.5t91.5 17.5q63 0 107 -20.5t71.5 -56.5t40 -84.5t12.5 -104.5 v-35zM688 328q0 32 -4.5 60t-15 48.5t-28.5 32t-45 11.5q-60 0 -90 -45t-33 -123zM352 136q-14 45 -16 103q-20 -2 -45.5 -3.5t-47.5 -6.5q-51 -11 -69.5 -31.5t-18.5 -49.5q0 -19 14.5 -35.5t44.5 -16.5q29 0 64 11t74 29z" />
<glyph unicode="&#x153;" horiz-adv-x="966" d="M573 253q2 -49 16 -79t36.5 -46t53 -21.5t66.5 -5.5q28 0 68 2.5t85 13.5l24 -75q-43 -24 -98 -37t-104 -13q-82 0 -141.5 16.5t-94.5 64.5q-35 -37 -82 -59t-104 -22q-124 0 -194 67t-70 210q0 55 21.5 106.5t58 92t86.5 65t107 24.5q143 0 208 -86q33 40 80 63t107 23 q63 0 107 -20t71 -55.5t39.5 -83.5t12.5 -104v-41h-359zM786 320q1 71 -22 115.5t-70 44.5q-59 0 -90.5 -44t-33.5 -116h216zM430 280q0 35 -5 69.5t-20 61.5t-41 44t-68 17q-40 0 -63.5 -20t-36 -50.5t-16 -66.5t-3.5 -67q0 -38 6 -72.5t21.5 -60t42 -40.5t67.5 -15 q36 0 58.5 17t35 44.5t17.5 63.5t5 75z" />
<glyph unicode="," horiz-adv-x="257" d="M227 25q0 -28 -15 -61t-38.5 -65.5t-52.5 -60.5t-57 -46l-42 38q10 11 22.5 25.5t24 30.5t21 32.5t12.5 31.5q-11 8 -23.5 20.5t-23.5 25.5t-18.5 24t-7.5 16q0 9 12.5 25.5t29 32t33 27.5t23.5 12q9 0 25.5 -12t33 -28.5t29 -35.5t12.5 -32z" />
<glyph unicode="." horiz-adv-x="252" d="M223 35q0 -7 -12 -23.5t-28.5 -33t-32.5 -29t-24 -12.5t-24 12.5t-32 29t-28.5 32.5t-12.5 24t12.5 24t28.5 32t32 28t24 12q7 0 23.5 -12t32.5 -28t28.5 -32t12.5 -24z" />
<glyph unicode=":" horiz-adv-x="286" d="M240 485q0 -7 -12.5 -23.5t-29 -33t-32.5 -29t-24 -12.5t-23.5 12.5t-32 29t-28.5 32.5t-12 24t12.5 24t28.5 32t32 28t23 12t23.5 -12t33 -28t29 -32t12.5 -24zM240 35q0 -7 -12.5 -23.5t-29 -33t-32.5 -29t-24 -12.5t-23.5 12.5t-32 29t-28.5 32.5t-12 24t12.5 24 t28.5 32t32 28t23 12t23.5 -12t33 -28t29 -32t12.5 -24z" />
<glyph unicode=";" horiz-adv-x="289" d="M236 484q0 -7 -12.5 -23.5t-29 -33t-32.5 -29t-24 -12.5t-23.5 12.5t-32 29t-28.5 32.5t-12 24t12.5 24t28.5 32t32 28t23 12t23.5 -12t33 -28t29 -32t12.5 -24zM250 25q0 -28 -15 -61t-39 -65.5t-53 -60.5t-57 -46l-42 38q10 11 23 25.5t24.5 30.5t20.5 32.5t12 31.5 q-11 8 -23.5 20.5t-23 25.5t-18 24t-7.5 16q0 9 12.5 25.5t29 32t32.5 27.5t24 12q9 0 25.5 -12t33 -28.5t29 -35.5t12.5 -32z" />
<glyph unicode="?" horiz-adv-x="379" d="M380 547q0 -44 -15 -77.5t-38 -60t-49.5 -48t-49.5 -40.5t-38 -38.5t-15 -41.5q0 -11 2 -19.5t5 -17.5l-87 -20q-10 21 -18 40q-7 17 -12 33.5t-5 25.5q0 29 15.5 55t38.5 49.5t49.5 45.5t49.5 43t38.5 41.5t15.5 41.5q0 6 -4.5 17t-15.5 21.5t-30 18t-47 7.5 q-20 0 -36.5 -3t-32 -8t-32 -11t-36.5 -12q-20 31 -20 54q0 24 12 39t31.5 23.5t42.5 11.5t46 3q49 0 92 -15t75 -39.5t50 -55.5t18 -63zM238 35q0 -7 -11.5 -22t-27 -30.5t-31 -27t-22.5 -11.5t-22 11.5t-30 26.5t-26.5 30t-11.5 23t11.5 23t26.5 30t30 26t22 11 t22.5 -11.5t31 -26.5t27 -30t11.5 -22z" />
<glyph unicode="&#xbf;" horiz-adv-x="387" d="M329 509q0 -8 -11.5 -23t-26.5 -30t-30 -26t-22 -11t-22 11t-30.5 26t-27 30t-11.5 23q0 6 11.5 21t27 30.5t30.5 27.5t22 12t22 -11.5t30 -27t26.5 -30.5t11.5 -22zM372 -99q0 -24 -12 -39t-31.5 -23.5t-43 -11.5t-45.5 -3q-50 0 -92.5 15t-74.5 39.5t-50 55t-18 62.5 q0 44 15 77.5t38 60t49.5 48t49.5 40.5t38 38.5t15 41.5q0 11 -2 20t-5 18l87 20q9 -22 17 -41q7 -17 12.5 -33.5t5.5 -25.5q0 -29 -15.5 -54.5t-38 -49.5t-49.5 -46t-49.5 -43t-38 -41.5t-15.5 -41.5q0 -6 4.5 -17t15.5 -21.5t29.5 -18t46.5 -7.5q20 0 36.5 3t32.5 8.5 t32 11.5t36 12q20 -33 20 -54z" />
<glyph horiz-adv-x="379" d="M324 651q0 -8 -11.5 -23t-26.5 -30t-30 -26.5t-22 -11.5t-22 11.5t-30.5 26.5t-27 30t-11.5 23q0 6 11.5 21t26.5 30.5t30 27.5t23 12q7 0 22 -11.5t30 -27t26.5 -30.5t11.5 -22zM367 43q0 -24 -12.5 -39t-31.5 -23.5t-42.5 -11.5t-45.5 -3q-50 0 -93 15t-75 39.5t-50 55 t-18 62.5q0 44 15.5 77.5t38 60t49.5 48t49.5 40.5t38 38.5t15.5 41.5q0 11 -2.5 20t-4.5 17l87 20q9 -22 17 -41q7 -17 12.5 -33t5.5 -25q0 -29 -15.5 -54.5t-38 -49.5t-49.5 -46t-49.5 -43t-38 -41.5t-15.5 -41.5q0 -6 4.5 -17t15.5 -21.5t29.5 -18t46.5 -7.5 q39 0 68.5 11.5t68.5 23.5q20 -33 20 -54z" />
<glyph unicode="!" horiz-adv-x="284" d="M192 211h-98l-32 494l80 41l81 -41zM231 41q0 -7 -11.5 -22t-27 -30.5t-31 -27t-22.5 -11.5t-21.5 11.5t-29.5 26.5t-26.5 30t-11.5 23t11.5 23t26.5 30t30 26t21 11q7 0 22.5 -11.5t31 -26.5t27 -30t11.5 -22z" />
<glyph unicode="&#xa1;" horiz-adv-x="277" d="M230 505q0 -8 -11.5 -23t-26.5 -30t-29.5 -26.5t-21.5 -11.5q-8 0 -23 11.5t-30.5 26.5t-27 30t-11.5 23q0 7 11.5 22t27 30.5t30.5 27t23 11.5q7 0 22 -11.5t30 -27t26 -30.5t11 -22zM138 -201l-81 41l32 495h98l31 -495z" />
<glyph horiz-adv-x="283" d="M233 655q0 -8 -11.5 -23.5t-26.5 -30.5t-29.5 -26t-21.5 -11q-8 0 -23 11.5t-30.5 26.5t-27 30t-11.5 23q0 6 11.5 21t27 30.5t30.5 27t23 11.5q7 0 22 -11.5t30 -26.5t26 -30t11 -22zM141 -51l-81 41l32 494h98l31 -494z" />
<glyph unicode="-" horiz-adv-x="439" d="M79 254v74l281 14v-88h-281z" />
<glyph horiz-adv-x="433" d="M77 315v73l281 14v-88z" />
<glyph unicode="&#x2013;" horiz-adv-x="603" d="M81 243v79h440v-79h-440z" />
<glyph horiz-adv-x="593" d="M76 336v78h440v-78h-440z" />
<glyph unicode="&#x2014;" horiz-adv-x="1049" d="M81 243v79h886v-79h-886z" />
<glyph horiz-adv-x="1037" d="M76 336v78h884v-78h-884z" />
<glyph unicode="_" horiz-adv-x="500" d="M0 -164v79h500v-79h-500z" />
<glyph unicode="@" horiz-adv-x="724" d="M341 -137q-150 0 -229.5 83.5t-79.5 249.5q0 121 34 208t90.5 143t130.5 82t155 26q59 0 109 -15.5t86 -50t56 -89.5t20 -133t-18 -133t-48.5 -89.5t-70.5 -50.5t-84 -16q-17 0 -32 4.5t-26.5 14.5t-17 24t-3.5 34q-20 -29 -50.5 -49.5t-60.5 -20.5q-21 0 -41 8 t-35.5 24.5t-25 42t-9.5 60.5q0 49 17.5 90.5t46.5 71.5t68 46.5t83 16.5q39 0 74.5 -8.5t52.5 -15.5l-26 -229q-6 -45 13 -45q15 0 36 8.5t40 32t32 66t13 111.5q0 67 -16 111.5t-43.5 71t-64 37.5t-78.5 11q-64 0 -124 -19t-106.5 -64.5t-74.5 -120t-28 -185.5 q0 -80 16.5 -133.5t48 -86.5t76.5 -47t103 -14q38 0 78.5 5.5t69.5 12.5l14 -55q-40 -17 -80 -21.5t-91 -4.5zM340 170q26 0 43 12.5t31 24.5l20 167q-3 1 -12.5 2.5t-13.5 1.5q-32 2 -54.5 -9t-36 -31.5t-19.5 -48t-6 -57.5q0 -34 15 -48t33 -14z" />
<glyph unicode="&#x26;" horiz-adv-x="759" d="M785 36q-20 -24 -51 -38t-66 -14q-59 0 -120.5 24.5t-115.5 59.5q-17 -17 -38.5 -31t-46.5 -24.5t-51 -16t-51 -5.5q-38 0 -74.5 9t-65 28.5t-46.5 51.5t-18 78q0 30 11.5 57.5t30.5 50.5t43.5 41.5t49.5 32.5q-23 35 -34.5 76t-11.5 83q0 45 18 84.5t48 69t68 47 t77 17.5q85 0 129 -35.5t44 -98.5q0 -38 -19 -71t-48 -59.5t-63.5 -47t-65.5 -33.5q31 -48 75.5 -96.5t97.5 -88.5q9 16 13 31t4 25q0 27 -14 47.5t-40 37.5q0 11 0.5 21.5t4.5 21.5h188v-27q-7 -21 -21.5 -46t-32 -49.5t-36.5 -46.5t-35 -37q44 -31 89.5 -52t87.5 -26 q17 -5 36.5 -6.5t34.5 1.5zM392 572q0 34 -18.5 54.5t-51.5 20.5q-35 0 -56.5 -24t-21.5 -67q0 -33 13.5 -74t36.5 -73q45 33 71.5 72.5t26.5 90.5zM384 104q-24 18 -48.5 41t-48 48t-44 50.5t-37.5 49.5q-38 -33 -38 -88q0 -34 11 -57.5t29.5 -37.5t41.5 -20.5t47 -6.5 q26 0 47.5 6t39.5 15z" />
<glyph unicode="/" horiz-adv-x="315" d="M84 -62h-90l238 831h88z" />
<glyph unicode="\" horiz-adv-x="315" d="M-5 769h88l237 -831h-89z" />
<glyph unicode="|" horiz-adv-x="245" d="M76 -220v974h92v-974h-92z" />
<glyph unicode="(" horiz-adv-x="298" d="M237 -222q-9 8 -28 30t-42.5 57.5t-48.5 82.5t-45.5 105t-34 125.5t-13.5 143.5t13.5 142.5t34 122t45.5 100t49 77t43.5 52t29.5 26.5l49 -50q-14 -11 -44.5 -49.5t-62 -99.5t-55 -142t-23.5 -178q0 -65 11.5 -125t29 -112t39 -95.5t42 -76.5t37.5 -55t26 -30l-52 -51v0 z" />
<glyph horiz-adv-x="296" d="M238 -135q-9 8 -28 27t-42.5 49.5t-48.5 72t-45.5 94.5t-34 117.5t-13.5 140.5t13.5 139t34 113.5t46 89.5t49.5 66.5t43.5 44t28.5 23.5l49 -51q-14 -11 -44.5 -42.5t-61.5 -84t-54.5 -126.5t-23.5 -171q0 -98 24 -175.5t55 -134.5t61.5 -92t43.5 -47l-52 -53v0z" />
<glyph unicode=")" horiz-adv-x="298" d="M9 -171q9 8 26 30t37.5 55t42 76.5t39 95.5t29 112t11.5 125q0 97 -23.5 178t-55 142t-62 99.5t-44.5 49.5l50 50q9 -7 28.5 -26.5t43.5 -52t49.5 -77t46 -100t34 -122t13.5 -142.5t-13.5 -143.5t-34 -125.5t-46 -105t-49 -82.5t-42.5 -57.5t-28 -30z" />
<glyph horiz-adv-x="296" d="M270 366q0 -76 -13.5 -140.5t-34 -117.5t-45.5 -94.5t-48.5 -72t-43 -49.5t-28.5 -27l-51 53q13 12 43 47t61.5 92t55.5 134.5t24 175.5q0 64 -11 118.5t-28.5 99.5t-39 79.5t-42 60.5t-37.5 42t-26 24l49 51q9 -7 28.5 -23.5t43.5 -44t49.5 -66.5t46 -89.5t34 -113.5 t13.5 -139z" />
<glyph unicode="[" horiz-adv-x="290" d="M76 -220v1044h180v-77h-92v-890h92v-77h-180z" />
<glyph horiz-adv-x="292" d="M78 -113v937h180v-77h-92v-783h92v-77h-180z" />
<glyph unicode="]" horiz-adv-x="290" d="M34 -220v77h93v890h-93v77h180v-1044h-180z" />
<glyph horiz-adv-x="292" d="M33 -112v77h93v782h-93v77h180v-936h-180z" />
<glyph unicode="{" horiz-adv-x="324" d="M284 -220q-40 -1 -78.5 6.5t-68 27t-45 53t-9.5 86.5l20 220q2 16 -2 32t-14 28.5t-27 20t-42 7.5v78q24 0 41 10.5t27.5 26.5t15 35.5t2.5 36.5l-20 209q-5 51 10 83.5t43 50.5t65.5 24.5t77.5 6.5h35l-1 -71h-32q-60 0 -91 -23t-25 -74l20 -194q6 -59 -14.5 -101 t-53.5 -56q33 -15 52 -50t14 -89l-21 -213q-5 -48 25 -71.5t93 -23.5h32l1 -76h-30z" />
<glyph horiz-adv-x="320" d="M285 -111q-40 -1 -78.5 6.5t-68 27t-45 53t-9.5 86.5l20 165q2 16 -2 32t-14 28.5t-27 20t-42 7.5v79q48 0 68.5 27t16.5 62l-20 174q-5 51 10 83.5t43.5 51t66 25t77.5 6.5h35l-1 -71h-32q-60 0 -91 -23.5t-25 -74.5l20 -160q1 -8 1.5 -15t0.5 -13q0 -45 -17 -71.5 t-46 -38.5q28 -13 44 -40.5t16 -70.5v-12.5t-1 -13.5l-21 -158q-5 -48 25 -72t93 -24h32l1 -76h-30z" />
<glyph unicode="}" horiz-adv-x="324" d="M306 261q-25 0 -42 -7.5t-27 -20t-14 -28.5t-2 -32l20 -220q6 -53 -10 -86.5t-45 -53t-67.5 -27t-78.5 -6.5h-30l1 76h32q63 0 93 23.5t25 71.5l-21 213q-5 54 14 89.5t52 49.5q-33 14 -53.5 56t-14.5 101l20 194q5 51 -25.5 74t-90.5 23h-32l-1 71h34q40 0 78 -6.5 t66 -24.5t43 -50.5t10 -83.5l-20 -209q-2 -17 2.5 -36.5t15 -35.5t27.5 -26.5t41 -10.5v-78v0z" />
<glyph horiz-adv-x="319" d="M301 315q-25 0 -42 -7.5t-27 -20t-14 -28.5t-2 -32l20 -165q6 -53 -10 -86.5t-45 -53t-67.5 -27t-78.5 -6.5h-30l1 76h32q63 0 93 24t25 72l-21 158q-1 7 -1 13.5v13.5q0 42 15.5 69.5t44.5 40.5q-29 13 -46 39t-17 71q0 6 0.5 13t1.5 15l20 160q5 51 -25.5 74.5 t-90.5 23.5h-32l-1 71h34q40 0 78 -7t66.5 -25t43.5 -50.5t10 -83.5l-20 -174q-4 -35 16.5 -62t68.5 -27v-79v0z" />
<glyph unicode="&#xa7;" horiz-adv-x="524" d="M492 547q0 -23 -10.5 -41.5t-21.5 -29.5q-9 7 -20.5 16t-22.5 17t-22 13.5t-18 5.5q-23 0 -37.5 -15.5t-14.5 -43.5q0 -7 8 -30t19.5 -54.5t25.5 -67.5t25.5 -68.5t19.5 -57.5t8 -34q0 -49 -21.5 -93t-60 -77.5t-90 -53t-111.5 -19.5q-19 0 -38.5 4t-36 12t-27 21.5 t-10.5 32.5q0 22 9 36t24 23q3 -2 13.5 -10t23 -17t24.5 -16.5t17 -7.5q13 0 21.5 8.5t12.5 21t5.5 26t1.5 23.5q0 11 -7.5 33t-18.5 50.5t-23.5 60t-23.5 62t-18.5 56.5t-7.5 43q0 50 22.5 92.5t62 74t93.5 49t116 17.5q16 0 35 -2t35.5 -8.5t27.5 -19t11 -32.5zM339 124 q0 15 -8 40.5t-20.5 57t-26.5 65.5t-26.5 66t-20.5 58.5t-8 43.5q0 14 1.5 30.5t9.5 29.5l-3 3q-31 -19 -44 -43t-13 -60q0 -14 8 -39.5t20.5 -57.5t26.5 -67.5t26.5 -67.5t20.5 -58.5t8 -41.5q0 -19 -2 -39.5t-16 -46.5l2 -2q35 25 50 56.5t15 72.5z" />
<glyph horiz-adv-x="524" d="M31 0zM503 712q0 -22 -11 -41t-22 -30q-8 7 -20 16t-25.5 16.5t-27 13t-24.5 5.5q-27 0 -36.5 -18.5t-9.5 -41.5q0 -20 3.5 -40t6.5 -37l69 -350q9 -45 13.5 -86.5t4.5 -73.5q0 -60 -19 -110.5t-55 -86.5t-89 -56t-120 -20q-19 0 -38.5 3.5t-35.5 12.5t-26 23.5t-10 36.5 q0 21 8.5 35t22.5 24q3 -2 13.5 -10t23 -17t24.5 -16t17 -7q13 0 21.5 8.5t12.5 20.5t5.5 25.5t1.5 23.5q0 29 -4 57t-9 56l-68 361q-5 24 -7.5 48.5t-2.5 49.5q0 62 21 112t60 85t93.5 53.5t121.5 18.5q16 0 36 -2t38 -8.5t30.5 -19.5t12.5 -34zM328 12q0 26 -3 50.5 t-8 49.5l-72 397q-4 21 -6 44t-2 46q0 18 2 38t9 38l-2 2q-35 -25 -47 -66t-12 -82q-1 -23 1.5 -44t6.5 -38l73 -407q3 -18 5.5 -38t2.5 -42q0 -21 -3 -44t-12 -46l2 -2q18 12 30 30t20 38t11.5 40t3.5 36z" />
<glyph horiz-adv-x="600" d="M538 712q0 -22 -11 -41t-22 -30q-8 7 -20 16t-25.5 16.5t-27 13t-24.5 5.5q-27 0 -36.5 -18.5t-9.5 -41.5q0 -20 3.5 -40t6.5 -37l69 -350q9 -45 13.5 -86.5t4.5 -73.5q0 -60 -19 -110.5t-55 -86.5t-89 -56t-120 -20q-19 0 -38.5 3.5t-35.5 12.5t-26 23.5t-10 36.5 q0 21 8.5 35t22.5 24q3 -2 13.5 -10t23 -17t24.5 -16t17 -7q13 0 21.5 8.5t12.5 20.5t5.5 25.5t1.5 23.5q0 29 -4 57t-9 56l-68 361q-5 24 -7.5 48.5t-2.5 49.5q0 62 21 112t60 85t93.5 53.5t121.5 18.5q16 0 36 -2t38 -8.5t30.5 -19.5t12.5 -34zM363 12q0 26 -3 50.5 t-8 49.5l-72 397q-4 21 -6 44t-2 46q0 18 2 38t9 38l-2 2q-35 -25 -47 -66t-12 -82q-1 -23 1.5 -44t6.5 -38l73 -407q3 -18 5.5 -38t2.5 -42q0 -21 -3 -44t-12 -46l2 -2q18 12 30 30t20 38t11.5 40t3.5 36z" />
<glyph unicode="&#x2022;" horiz-adv-x="363" d="M327 352q0 -32 -11.5 -58.5t-31 -45.5t-46 -29.5t-56.5 -10.5t-56.5 10.5t-46 30t-31 45.5t-11.5 58q0 31 11.5 58t31 46t46 30t56.5 11t56.5 -11t46 -30t31 -46t11.5 -58z" />
<glyph unicode="#" horiz-adv-x="584" d="M440 134l-9 -166h-83l8 166h-146l-8 -166h-83l8 166h-90v83h95l7 130h-102v82h105l9 154h83l-8 -154h146l8 154h84l-9 -154h93v-82h-97l-7 -130h104v-83h-108zM222 347l-6 -130h144l7 130h-145z" />
<glyph unicode="%" horiz-adv-x="617" d="M173 368q-25 0 -48 6t-41 20t-28.5 36.5t-10.5 55.5q0 30 11 53.5t29 39t41.5 24t48.5 8.5t48.5 -6t42 -20t29.5 -37t11 -57q0 -30 -11 -53t-29.5 -38.5t-42.5 -23.5t-50 -8zM174 427q26 0 39 18.5t13 46.5t-12.5 44t-39.5 16q-25 0 -37 -18.5t-12 -48.5 q0 -27 11.5 -42.5t37.5 -15.5zM448 -19q-25 0 -48 6t-41 20t-28.5 36.5t-10.5 55.5q0 30 11 53.5t29 39t41.5 24t48.5 8.5t49 -6t42.5 -20t29.5 -37t11 -57q0 -30 -11 -53t-29.5 -38.5t-43 -23.5t-50.5 -8zM449 40q26 0 39 18.5t13 45.5q0 28 -12 44t-39 16 q-26 0 -37.5 -18.5t-11.5 -47.5q0 -28 11 -43t37 -15zM32 119l501 405l46 -60l-501 -407z" />
<glyph unicode="&#x2030;" horiz-adv-x="913" d="M188 368q-25 0 -48 6t-40.5 20t-28 36.5t-10.5 55.5q0 30 10.5 53.5t28.5 39t41.5 24t48.5 8.5t49 -6t42.5 -20t29.5 -37t11 -57q0 -30 -11 -53t-29.5 -38.5t-43 -23.5t-50.5 -8zM189 427q26 0 39 18.5t13 46.5t-12 44t-39 16q-25 0 -37 -18.5t-12 -48.5q0 -27 11 -42.5 t37 -15.5zM464 -19q-25 0 -48 6t-41 20t-28.5 36.5t-10.5 55.5q0 30 10.5 53.5t28.5 39t41.5 24t49.5 8.5q25 0 48.5 -6t42 -20t29.5 -37t11 -57q0 -30 -11 -53t-29.5 -38.5t-42.5 -23.5t-50 -8zM464 40q26 0 39.5 18.5t13.5 45.5q0 28 -12.5 44t-39.5 16q-25 0 -37 -18.5 t-12 -47.5q0 -28 11 -43t37 -15zM760 -19q-25 0 -48 6t-41 20t-28.5 36.5t-10.5 55.5q0 30 11 53.5t29 39t41.5 24t48.5 8.5t48.5 -6t42 -20t29.5 -37t11 -57q0 -30 -11 -53t-29.5 -38.5t-42.5 -23.5t-50 -8zM761 40q26 0 39 18.5t13 45.5q0 28 -12.5 44t-39.5 16 q-25 0 -37 -18.5t-12 -47.5q0 -28 11.5 -43t37.5 -15zM48 119l501 405l45 -60l-501 -407z" />
<glyph unicode="&#x2020;" horiz-adv-x="549" d="M493 336l-176 27l27 -391l-69 -22l-70 22l27 391l-176 -27l-22 55l22 57l176 -27l-27 182l69 22l70 -22l-27 -182l176 27l22 -57z" />
<glyph unicode="'" horiz-adv-x="210" d="M48 755h135l-33 -252h-102v252z" />
<glyph unicode="&#x22;" horiz-adv-x="443" d="M48 755h134l-32 -252h-102v252zM281 755h135l-33 -252h-102v252z" />
<glyph unicode="&#x201c;" horiz-adv-x="487" d="M462 711q-9 -10 -21 -23t-22.5 -28t-18.5 -30t-10 -30q10 -8 21.5 -19.5t21.5 -23.5t17 -22.5t7 -15.5q0 -9 -11.5 -24.5t-26.5 -30.5t-30.5 -26t-23.5 -11q-11 0 -27.5 11.5t-31.5 27.5t-25.5 33.5t-10.5 29.5q0 30 13.5 61.5t35 60.5t49 53.5t55.5 41.5zM218 711 q-10 -10 -21.5 -23t-22 -28t-18.5 -30t-10 -30q10 -8 21.5 -19.5t21.5 -23.5t16.5 -22.5t6.5 -15.5q0 -9 -11.5 -24.5t-26.5 -30.5t-30.5 -26t-23.5 -11q-11 0 -27 11.5t-31 27.5t-25.5 33.5t-10.5 29.5q0 30 13.5 61.5t35 60.5t48.5 53.5t55 41.5z" />
<glyph unicode="&#x201d;" horiz-adv-x="491" d="M472 633q0 -30 -13.5 -61.5t-35 -60.5t-48.5 -54t-55 -41l-40 36q10 10 21.5 23t22.5 27.5t19 29.5t10 30q-10 7 -22 19t-22 24t-16.5 22.5t-6.5 15.5q0 10 11.5 25.5t26.5 30.5t30.5 25.5t23.5 10.5q11 0 27 -11t31 -27t25.5 -33.5t10.5 -30.5zM228 633 q0 -30 -13.5 -61.5t-35 -60.5t-49 -54t-55.5 -41l-39 36q10 10 21.5 23t22 27.5t18.5 29.5t10 30q-10 7 -21.5 19t-21.5 24t-17 22.5t-7 15.5q0 10 11.5 25.5t26.5 30.5t30.5 25.5t23.5 10.5q11 0 27.5 -11t31.5 -27t25.5 -33.5t10.5 -30.5z" />
<glyph unicode="&#x2018;" horiz-adv-x="242" d="M218 711q-10 -10 -21.5 -23t-22 -27.5t-18.5 -29.5t-10 -30q10 -8 21.5 -19.5t21.5 -23.5t16.5 -22.5t6.5 -15.5q0 -10 -11.5 -25.5t-26.5 -30.5t-30.5 -25.5t-23.5 -10.5q-11 0 -27 11.5t-31 27.5t-25.5 33.5t-10.5 29.5q0 30 13.5 61.5t35 60.5t48.5 53.5t55 41.5 l40 -36v0z" />
<glyph unicode="&#x2019;" horiz-adv-x="246" d="M228 633q0 -30 -13.5 -61.5t-35 -60.5t-49 -54t-55.5 -41l-39 36q10 10 21.5 23t22 27.5t18.5 29.5t10 30q-10 7 -21.5 19t-21.5 24t-17 22.5t-7 15.5q0 10 11.5 25.5t26.5 30.5t30.5 25.5t23.5 10.5q11 0 27.5 -11t31.5 -27t25.5 -33.5t10.5 -30.5z" />
<glyph unicode="&#x2039;" horiz-adv-x="271" d="M230 483q-17 -52 -41 -110.5t-53 -101.5q12 -23 24.5 -50t24 -55t21.5 -55.5t17 -52.5q-13 -2 -26 -5q-11 -2 -24 -5t-24 -5q-8 24 -21.5 52t-29.5 58t-34.5 60t-36.5 59q45 62 79.5 120.5t54.5 106.5q12 -2 23 -5q10 -2 22 -5z" />
<glyph horiz-adv-x="281" d="M246 362q-19 -29 -37.5 -59t-34.5 -60t-29 -58t-21 -52q-11 2 -23.5 5.5t-23.5 5.5q-13 3 -26 5q7 25 16.5 52.5t21 55.5t23.5 55t24 50q-14 21 -27.5 47t-25 54t-22 56.5t-18.5 54.5q11 2 23.5 5t22.5 5q11 3 23 5q20 -48 54.5 -106.5t79.5 -120.5z" />
<glyph unicode="&#x203a;" horiz-adv-x="271" d="M244 272q-18 -29 -36.5 -59t-34.5 -60t-29.5 -58t-21.5 -52q-11 2 -23.5 5t-23.5 5q-13 3 -26 5q7 25 16.5 52.5t21 55.5t23.5 55t24 50q-29 43 -52.5 101.5t-40.5 110.5q11 3 23.5 6t22.5 5q11 3 23 5q20 -48 54.5 -106.5t79.5 -120.5z" />
<glyph horiz-adv-x="281" d="M239 574q-8 -26 -18.5 -54.5t-22.5 -56.5t-25 -54t-28 -47q12 -23 24.5 -50t24 -55t21 -55.5t16.5 -52.5q-13 -2 -26 -5q-11 -2 -23.5 -5.5t-23.5 -5.5q-8 24 -21.5 52t-29.5 58t-34.5 60t-36.5 59q45 62 79 120.5t54 106.5q11 -2 23 -5q10 -2 22.5 -5t24.5 -5z" />
<glyph unicode="&#xab;" horiz-adv-x="471" d="M435 469q-17 -52 -38 -104t-50 -94q23 -45 45 -98.5t36 -102.5q-13 -2 -26 -5q-11 -2 -23.5 -5.5t-23.5 -5.5q-17 48 -49 104.5t-69 113.5q45 62 77 113.5t52 99.5q12 -2 23 -5q10 -2 22 -5zM230 483q-17 -52 -40.5 -110.5t-52.5 -101.5q12 -23 24 -50t23.5 -55 t21.5 -55.5t17 -52.5q-13 -2 -26 -5q-11 -2 -24 -5t-24 -5q-8 24 -21 52t-29.5 58t-35 60t-36.5 59q45 62 79.5 120.5t54.5 106.5q12 -2 23 -5q10 -2 22 -5z" />
<glyph horiz-adv-x="479" d="M443 560q-17 -52 -38 -104t-50 -94q23 -46 45 -99t36 -103q-13 -2 -26 -5q-11 -2 -23.5 -5.5t-23.5 -5.5q-17 48 -49 104.5t-69 113.5q45 62 77 113.5t52 99.5q11 -2 22 -5q10 -2 22.5 -5t24.5 -5zM238 574q-8 -26 -18.5 -54.5t-22 -56.5t-25 -54t-27.5 -47 q12 -23 24 -50t23.5 -55t21.5 -55.5t17 -52.5q-13 -2 -26 -5q-11 -2 -24 -5.5t-24 -5.5q-8 24 -21 52t-29.5 58t-35 60t-36.5 59q45 62 79.5 120.5t54.5 106.5q11 -2 22 -5q10 -2 22.5 -5t24.5 -5z" />
<glyph unicode="&#xbb;" horiz-adv-x="471" d="M444 272q-19 -29 -37.5 -59t-34.5 -60t-29 -58t-21 -52q-11 2 -23.5 5t-23.5 5q-13 3 -26 5q6 25 16 52.5t21.5 55.5t23.5 55t24 50q-29 43 -53 101.5t-40 110.5q11 3 23.5 6t22.5 5q11 3 23 5q20 -48 54.5 -106.5t79.5 -120.5zM234 272q-38 -57 -69.5 -113.5 t-47.5 -104.5q-11 2 -24 5.5t-24 5.5q-13 3 -26 5q14 49 36 102.5t45 98.5q-29 42 -50 94t-38 104q11 3 23.5 6t23.5 5q12 3 23 5q19 -48 51 -99.5t77 -113.5z" />
<glyph horiz-adv-x="479" d="M444 363q-19 -29 -37.5 -59t-34.5 -60t-29 -58t-21 -52q-11 2 -24 5t-24 5q-13 3 -26 5q7 25 17 52.5t21.5 55.5t23.5 55t24 50q-29 43 -53 101.5t-41 110.5q26 6 47 11q11 3 23 5q20 -48 54.5 -106.5t79.5 -120.5zM234 363q-38 -57 -69.5 -113.5t-47.5 -104.5 q-11 2 -24 5.5t-24 5.5q-13 3 -26 5q14 49 36 102.5t45 98.5q-29 42 -50.5 94t-38.5 104q26 6 47 11q12 3 24 5q19 -48 51 -99.5t77 -113.5z" />
<glyph unicode="*" horiz-adv-x="399" d="M363 493l-28 -27l-95 52l-7 -110l-34 -10l-35 10v112l-102 -54l-24 24l-9 36l95 57l-95 60l7 36l27 24l102 -55v114l34 10l35 -10l8 -111l94 52l28 -23l6 -36l-99 -58l99 -59z" />
<glyph unicode="+" horiz-adv-x="509" d="M301 259l2 -224h-98l2 224l-193 -2v86l193 -2l-2 224h98l-2 -224l193 2v-86z" />
<glyph unicode="&#x3c;" horiz-adv-x="519" d="M485 121l-42 -79l-438 234v48l438 234l42 -79l-335 -179z" />
<glyph unicode="=" horiz-adv-x="644" d="M82 355v87h480v-87h-480zM82 161v86h480v-86h-480z" />
<glyph unicode="&#x3e;" horiz-adv-x="519" d="M369 300l-335 179l42 79l438 -234v-48l-438 -234l-42 79z" />
<glyph horiz-adv-x="573" d="M434 759q-32 -24 -61 -44.5t-58 -38.5t-59 -34t-63 -31l-34 52q31 22 58 43t51 42t47.5 43.5t48.5 48.5z" />
<glyph horiz-adv-x="573" d="M223 839q25 -26 49 -48.5t48.5 -43.5t51.5 -41.5t59 -42.5l-34 -52q-67 30 -123.5 65t-119.5 82z" />
<glyph horiz-adv-x="556" d="M87 660q58 45 105 90.5t89 93.5q18 -20 40.5 -44.5t47 -49t48.5 -46.5t44 -37l-48 -54q-39 23 -77.5 53t-66.5 55q-25 -21 -62.5 -50t-79.5 -58z" />
<glyph horiz-adv-x="512" d="M142 643q-6 0 -18 9.5t-24 21.5t-21 24t-9 18t9.5 18t21.5 24.5t24 21.5t17 9q6 0 18.5 -9.5t24.5 -21.5t21.5 -24t9.5 -18q0 -5 -9 -16.5t-21 -24.5t-24.5 -22.5t-19.5 -9.5zM370 643q-6 0 -18 9.5t-24 21.5t-21 24t-9 18t9.5 18t21.5 24.5t24 21.5t17 9q6 0 18 -9.5 t24.5 -21.5t22 -24t9.5 -18q0 -5 -9 -16.5t-21 -24.5t-24.5 -22.5t-19.5 -9.5z" />
<glyph horiz-adv-x="556" d="M470 731l-22 -28t-25 -26t-31.5 -19.5t-40.5 -7.5q-15 0 -39.5 6t-49.5 13.5t-48 14t-35 6.5q-20 0 -37 -5.5t-33 -19.5l-29 36q12 13 24.5 27.5t27 26.5t32.5 19.5t40 7.5q19 0 44 -6t50 -13t45.5 -13t30.5 -6q17 0 29 3t20 7q10 4 17 10l30 -33v0z" />
<glyph horiz-adv-x="453" d="M360 -169q0 -23 -12 -45.5t-31.5 -40.5t-44.5 -29t-52 -11q-49 0 -101 34l40 71q20 -14 45 -21.5t46 -7.5q18 0 30 6t12 18q0 15 -11 25t-30.5 17.5t-45 13t-53.5 10.5l59 138h72l-42 -75q60 -14 89.5 -36t29.5 -67z" />
<glyph horiz-adv-x="833" d="M310 806q67 23 133 50t128 62l43 -96q-29 -12 -63.5 -23.5t-72 -21.5t-76 -19t-74.5 -16z" />
<glyph horiz-adv-x="825" d="M243 785q29 18 53.5 34.5t47 34t44.5 36t46 41.5q38 -35 85 -71t92 -66l-39 -61q-40 17 -80 38.5t-70 42.5q-29 -18 -66.5 -39.5t-82.5 -41.5z" />
<glyph horiz-adv-x="623" d="M197 756q-6 0 -18 9.5t-24 21.5t-21 24t-9 18t9.5 18t21.5 24.5t24 21.5t17 9q6 0 18.5 -9.5t24.5 -22t21.5 -24.5t9.5 -17t-9 -16.5t-21 -24.5t-24.5 -22.5t-19.5 -9.5zM430 756q-6 0 -18 9.5t-24.5 21.5t-21.5 24t-9 18t9.5 18t21.5 24.5t24 21.5t18 9t18 -9.5 t24.5 -22t22 -24.5t9.5 -17t-9 -16.5t-21 -24.5t-24.5 -22.5t-19.5 -9.5z" />
<glyph horiz-adv-x="817" d="M550 742q-36 7 -74.5 16t-76 19t-72.5 21.5t-64 23.5l44 96q62 -35 128 -62t133 -50l-18 -64v0z" />
<glyph horiz-adv-x="828" d="M511 753q-15 0 -40.5 6t-52.5 13.5t-51 14t-37 6.5q-20 0 -36.5 -6.5t-33.5 -17.5l-28 35q12 13 24.5 27.5t27 26.5t32 19.5t39.5 7.5q19 0 45.5 -6t52.5 -13t48 -13t33 -6q29 0 45 7.5t21 12.5l29 -33q-9 -14 -20 -28.5t-25 -26t-32 -19t-41 -7.5z" />
<glyph unicode="0" horiz-adv-x="693" d="M645 276q0 -67 -26 -120t-69.5 -90t-101 -56.5t-119.5 -19.5t-113.5 16t-88.5 49t-58 83.5t-21 120.5q0 67 25.5 122t69 94.5t100 61t118.5 21.5t114.5 -18t90 -53t58.5 -88t21 -123zM491 269q0 43 -10 79.5t-29 63t-46.5 41.5t-63.5 15q-143 0 -143 -189q0 -41 10.5 -77 t30 -62.5t48 -42t65.5 -15.5q73 0 105.5 49t32.5 138z" />
<glyph unicode="1" horiz-adv-x="490" d="M469 65q0 -19 -1 -35.5t-5 -29.5h-400q-3 12 -4.5 32t-0.5 31l91 28q14 4 25 17t12 35l5 136v178h-140v76l280 40v-295l2 -151q1 -33 38 -40l98 -22v0z" />
<glyph unicode="2" horiz-adv-x="554" d="M67 0l-22 75q12 10 38 28.5t57.5 42.5t65 52.5t61 58t45 58t17.5 53.5q0 77 -98 77q-44 0 -84 -9t-64 -19l-30 84q15 9 38 19.5t51 19t59 14.5t63 6q109 0 164 -40.5t55 -128.5q0 -42 -23 -80.5t-59.5 -73t-81.5 -64.5t-90 -57l272 17v-133h-434z" />
<glyph unicode="3" horiz-adv-x="507" d="M466 65q0 -54 -24 -97t-63 -73t-88 -46.5t-99 -16.5q-57 0 -99 9t-82 24l27 100q35 -14 72 -23.5t81 -9.5q57 0 90.5 24.5t33.5 81.5q0 34 -13 57.5t-35 38.5t-51.5 23.5t-63.5 11.5l-11 63q27 5 52.5 16.5t46 28.5t32.5 40t12 52q0 50 -29 68.5t-72 18.5 q-35 0 -66.5 -7.5t-58.5 -17.5l-27 77q36 23 89 38t107 15q41 0 78 -9t64.5 -28.5t44 -50.5t16.5 -76q0 -27 -13 -53t-32.5 -47t-41 -36t-39.5 -22q25 -4 53.5 -18t52.5 -37t40 -53t16 -66z" />
<glyph unicode="4" horiz-adv-x="605" d="M464 24l5 -185h-147l4 185h-257l-42 81l211 441h78l-181 -398h191v398h138v-398h100v-124h-100z" />
<glyph unicode="5" horiz-adv-x="529" d="M484 77q0 -49 -23 -94t-62 -79.5t-90 -55t-107 -20.5q-63 0 -107.5 8.5t-89.5 24.5l29 100q41 -14 83.5 -24.5t90.5 -10.5q60 0 90.5 22.5t30.5 79.5q0 47 -28.5 74.5t-70.5 42.5t-90.5 20.5t-88.5 8.5l37 372h378l-9 -131l-286 23l-12 -131q57 -5 115 -17t104.5 -37.5 t76 -67.5t29.5 -108z" />
<glyph unicode="6" horiz-adv-x="597" d="M566 252q0 -52 -20 -99.5t-54 -83.5t-80.5 -57.5t-98.5 -21.5q-77 0 -128 21.5t-81 61t-42.5 97t-12.5 129.5q0 79 25.5 155t73 135.5t115.5 96t153 36.5q25 0 53 -3t48 -10l-26 -99q-17 5 -44 9t-48 4q-68 0 -108.5 -29.5t-61.5 -75.5t-27 -102.5t-6 -110.5 q0 -30 4.5 -69.5t18.5 -75.5t38.5 -60.5t65.5 -24.5q30 0 49.5 13.5t30.5 34.5t15.5 46.5t4.5 49.5q0 27 -7 52.5t-21.5 46t-36.5 32.5t-51 12q-11 0 -23.5 -1t-25.5 -3l-12 77q26 8 52 13.5t60 5.5q100 0 154 -50t54 -152z" />
<glyph unicode="7" horiz-adv-x="525" d="M149 -206l-106 48l326 586l-332 -12l-1 130h448l30 -58z" />
<glyph unicode="8" horiz-adv-x="607" d="M561 207q0 -48 -21 -88.5t-57 -69t-84.5 -44.5t-103.5 -16q-53 0 -98 12t-78.5 36t-52.5 60t-19 83q0 29 9.5 54.5t26 46.5t38.5 38.5t47 31.5q-41 30 -68.5 70t-27.5 96q0 32 16 67.5t46 65t72 49t93 19.5q52 0 95.5 -11.5t75 -33.5t49.5 -54t18 -72q0 -61 -35 -100 t-88 -66q27 -15 53.5 -32.5t47.5 -38.5t33.5 -46.5t12.5 -56.5zM411 535q0 15 -6 33t-19 34.5t-34 27.5t-52 11q-48 0 -74.5 -26t-26.5 -68q0 -23 15 -42.5t38 -36t52 -31.5t58 -29q26 25 37.5 54.5t11.5 72.5zM420 167q0 24 -17.5 42.5t-45 36t-62.5 34t-70 35.5 q-22 -27 -36 -58t-14 -69q0 -21 9 -42.5t26 -39t40.5 -28t53.5 -10.5q60 0 88 26.5t28 72.5z" />
<glyph unicode="9" horiz-adv-x="595" d="M550 247q0 -80 -25.5 -155.5t-73.5 -134t-116 -94.5t-153 -36q-24 0 -52.5 3t-48.5 10l26 99q18 -5 44.5 -9t48.5 -4q68 0 108.5 29.5t61.5 75.5t27 102.5t6 110.5q0 30 -4.5 69.5t-18.5 75.5t-39 60.5t-66 24.5q-30 0 -49.5 -13t-30.5 -34t-15.5 -46.5t-4.5 -50.5 q0 -27 7.5 -52.5t22 -46t36.5 -32.5t51 -12q11 0 23 1t25 3l12 -77q-25 -8 -51 -13t-60 -5q-100 0 -154 51t-54 153q0 52 19.5 99t54 82.5t80.5 56.5t99 21q77 0 128 -22t81 -62.5t42.5 -98t12.5 -129.5z" />
<glyph horiz-adv-x="636" d="M582 363q0 -74 -14.5 -141.5t-46.5 -118.5t-84 -81.5t-127 -30.5q-80 0 -129.5 28t-77.5 76t-38 112t-10 136q0 67 13.5 133t45.5 118.5t84 85.5t129 33q85 0 135.5 -31t77 -81t34.5 -112.5t8 -125.5zM429 350q0 42 -3.5 89.5t-16 88t-36.5 67.5t-64 27q-42 0 -64 -27.5 t-31.5 -68t-10.5 -86t-1 -82.5q0 -46 4 -94.5t17 -89t38 -66.5t66 -26q35 0 55.5 21t30.5 52.5t13 68t3 67.5v59z" />
<glyph horiz-adv-x="463" d="M452 65q0 -19 -1 -35.5t-5 -29.5h-401q-3 12 -4.5 32t-0.5 31l91 28q14 4 25 17t13 35l5 136v324h-138v72l278 50v-447l2 -151q0 -33 38 -40l98 -22v0z" />
<glyph horiz-adv-x="546" d="M49 0l-21 78q15 16 42.5 44t59.5 63.5t65 76.5t60 83t44 82.5t17 75.5q0 88 -107 88q-43 0 -74 -6.5t-62 -16.5l-30 86q16 10 37.5 20.5t47.5 19.5t55 15t60 6q65 0 109.5 -13t72 -38.5t39.5 -62t12 -83.5q0 -60 -27.5 -114.5t-71 -104t-97.5 -95t-106 -88.5l329 19v-135 h-454z" />
<glyph horiz-adv-x="526" d="M481 222q0 -54 -24.5 -97t-63.5 -73t-88 -46.5t-98 -16.5q-57 0 -99.5 9t-82.5 24l28 100q35 -14 72 -23.5t80 -9.5q57 0 91 24t34 81q0 34 -13 58t-35 39t-52 23t-64 12l-11 63q27 4 53 15.5t46 29t32.5 40.5t12.5 51q0 50 -29.5 69t-71.5 19q-35 0 -67 -7.5t-59 -17.5 l-27 77q37 23 89.5 37.5t106.5 14.5q42 0 79 -8.5t64.5 -28t44 -50.5t16.5 -76q0 -27 -13 -53t-32.5 -47t-41 -36t-39.5 -22q25 -4 53.5 -18.5t52.5 -37t40 -52.5t16 -66z" />
<glyph horiz-adv-x="584" d="M449 176l5 -176h-148l4 176h-255l-44 81l211 450h78l-186 -419h197v419h137v-419h101v-112h-100z" />
<glyph horiz-adv-x="542" d="M502 238q0 -49 -23 -94t-62 -79.5t-90 -55t-107 -20.5q-62 0 -107 8.5t-89 24.5l28 100q41 -14 83.5 -24.5t90.5 -10.5q60 0 90.5 22.5t30.5 79.5q0 31 -13 54t-35 38.5t-50.5 25t-59.5 15t-62 8.5t-58 5l37 372h375l-9 -131l-283 23l-11 -131q57 -5 114.5 -17.5t104 -38 t76 -68t29.5 -106.5z" />
<glyph horiz-adv-x="597" d="M566 252q0 -52 -20 -99.5t-54 -83.5t-80.5 -57.5t-98.5 -21.5q-77 0 -128 21.5t-81 61t-42.5 97t-12.5 129.5q0 79 25.5 155t73 135.5t115.5 96t153 36.5q25 0 53 -3t48 -10l-26 -99q-17 5 -44 9t-48 4q-68 0 -108.5 -29.5t-61.5 -75.5t-27 -102.5t-6 -110.5 q0 -30 4.5 -69.5t18.5 -75.5t38.5 -60.5t65.5 -24.5q30 0 49.5 13.5t30.5 34.5t15.5 46.5t4.5 49.5q0 27 -7 52.5t-21.5 46t-36.5 32.5t-51 12q-11 0 -23.5 -1t-25.5 -3l-12 77q26 8 52 13.5t60 5.5q100 0 154 -50t54 -152z" />
<glyph horiz-adv-x="509" d="M144 -45l-105 48l326 586l-333 -12v130h448l29 -58z" />
<glyph horiz-adv-x="607" d="M561 207q0 -48 -21 -88.5t-57 -69t-84.5 -44.5t-103.5 -16q-53 0 -98 12t-78.5 36t-52.5 60t-19 83q0 29 9.5 54.5t26 46.5t38.5 38.5t47 31.5q-41 30 -68.5 70t-27.5 96q0 32 16 67.5t46 65t72 49t93 19.5q52 0 95.5 -11.5t75 -33.5t49.5 -54t18 -72q0 -61 -35 -100 t-88 -66q27 -15 53.5 -32.5t47.5 -38.5t33.5 -46.5t12.5 -56.5zM411 535q0 15 -6 33t-19 34.5t-34 27.5t-52 11q-48 0 -74.5 -26t-26.5 -68q0 -23 15 -42.5t38 -36t52 -31.5t58 -29q26 25 37.5 54.5t11.5 72.5zM420 167q0 24 -17.5 42.5t-45 36t-62.5 34t-70 35.5 q-22 -27 -36 -58t-14 -69q0 -21 9 -42.5t26 -39t40.5 -28t53.5 -10.5q60 0 88 26.5t28 72.5z" />
<glyph horiz-adv-x="597" d="M548 407q0 -79 -25.5 -154.5t-73 -134t-115.5 -94.5t-153 -36q-25 0 -53 3t-48 10l26 100q18 -6 44.5 -10t48.5 -4q68 0 108.5 29.5t61.5 76t27 102.5t6 110q0 30 -4.5 70t-18.5 75.5t-39 60t-66 24.5q-30 0 -49.5 -13.5t-30.5 -34.5t-15.5 -46.5t-4.5 -49.5 q0 -27 7 -52.5t21.5 -46t36.5 -32.5t51 -12q11 0 23.5 1t25.5 3l12 -77q-25 -8 -51 -13.5t-60 -5.5q-100 0 -154.5 51.5t-54.5 153.5q0 51 20 98t54.5 83t80.5 57t99 21q77 0 127.5 -22t80.5 -62.5t42.5 -98.5t12.5 -130z" />
<glyph unicode="&#x2122;" horiz-adv-x="897" d="M760 348l-32 193l-10 71l-18 -66l-61 -198h-97l-45 188l-13 66l-12 -66l-38 -188h-79l83 359h92l50 -206l19 -83l22 86l63 203h94l69 -359h-87zM380 632l-121 11v-152l5 -143h-89l4 143v152l-121 -11v75h322v-75z" />
<glyph unicode="&#xae;" horiz-adv-x="548" d="M513 531q0 -54 -18.5 -96t-50.5 -70.5t-75.5 -43t-92.5 -14.5q-40 0 -82.5 11.5t-78 37.5t-58 69t-22.5 106q0 55 18.5 97.5t51 72t76.5 44.5t94 15q43 0 85.5 -12.5t76.5 -39.5t55 -70.5t21 -106.5zM460 531q0 48 -15.5 82.5t-41.5 57t-59 33.5t-68 11q-38 0 -71.5 -10 t-59 -32t-40.5 -56t-15 -82q0 -59 21 -95t51 -55.5t62.5 -26t56.5 -6.5q38 0 71 11.5t57 34.5t37.5 56t13.5 77zM394 411q-29 1 -48 6t-36 20q-16 14 -26.5 32.5t-21.5 38.5q-2 -1 -6.5 -1h-9.5l2 -91h-70l2 100v150l98 1q42 0 67.5 -19.5t25.5 -60.5q0 -47 -42 -69 q5 -8 15.5 -23t19.5 -23q8 -8 15.5 -13.5t21.5 -11.5zM304 586q0 20 -8 31t-34 11h-16v-85h13q26 0 35.5 11.5t9.5 31.5z" />
<glyph unicode="&#xa9;" horiz-adv-x="682" d="M646 269q0 -71 -23.5 -125.5t-64.5 -92t-96.5 -57t-118.5 -19.5q-51 0 -105 14.5t-99 49t-74 91t-29 139.5q0 71 24 126.5t65 94t97 58.5t119 20q55 0 109.5 -16t98 -52t70.5 -93t27 -138zM585 269q0 64 -20.5 110t-54.5 76t-77.5 44t-89.5 14q-50 0 -94 -13.5 t-77.5 -42.5t-53 -74t-19.5 -109q0 -53 13 -91.5t34 -66t47.5 -44.5t54.5 -26.5t54 -13t47 -3.5q51 0 94 15.5t74.5 46t49.5 75t18 103.5zM465 120q-27 -10 -51 -14t-53 -4q-92 0 -137.5 40.5t-45.5 132.5q0 39 12.5 72t36 56.5t56 37t72.5 13.5q19 0 32.5 -1t25.5 -4t23 -7 t25 -10v-81q-17 -2 -40 0q-10 25 -25.5 39t-42.5 14q-41 0 -62.5 -28t-21.5 -96q0 -54 25 -83.5t73 -29.5q25 0 42 1.5t41 6.5z" />
<glyph horiz-adv-x="918" d="M845 352q0 -87 -30 -155t-81.5 -114.5t-121.5 -70.5t-150 -24q-65 0 -133.5 18.5t-125.5 61t-93.5 112t-36.5 172.5q0 88 30 157t82.5 116.5t123 72t151.5 24.5q69 0 138 -20t124 -64t89 -114.5t34 -171.5zM784 352q0 83 -27.5 143.5t-72.5 99.5t-103 58t-119 19 q-66 0 -125 -17.5t-103.5 -55.5t-70.5 -97.5t-26 -143.5q0 -69 17 -119.5t45 -86t63.5 -58t72.5 -35t72.5 -17t62.5 -4.5q67 0 124.5 20.5t99.5 60t66 98t24 135.5zM613 165q-34 -12 -65 -17.5t-71 -5.5q-112 0 -172 52.5t-60 165.5q0 48 16.5 89.5t46.5 72t72 48t94 17.5 q22 0 38.5 -1.5t31.5 -4.5t30 -8t35 -12v-102q-7 -1 -17.5 -1t-21.5 1q-13 34 -35.5 52t-62.5 18q-61 0 -95.5 -38t-34.5 -128q0 -78 38.5 -114t107.5 -36q29 0 54.5 3.5t54.5 9.5z" />
<glyph unicode="&#x20ac;" horiz-adv-x="604" d="M567 42q-29 -20 -77 -35.5t-123 -15.5q-120 0 -181 44.5t-78 141.5h-75v53h69q-1 12 -1.5 24t-0.5 25q0 18 3 36h-70v53h82q13 39 36.5 74t57.5 61.5t77.5 41.5t95.5 15q29 0 61 -3.5t58.5 -12.5t44 -25t17.5 -40q0 -29 -13.5 -46.5t-39.5 -34.5q-14 14 -30.5 28t-34 25 t-35 17.5t-32.5 6.5q-51 0 -83.5 -23.5t-46.5 -83.5h177v-53h-184q-1 -9 -1 -18.5v-20.5q0 -24 3 -46h182v-53h-166q18 -42 53.5 -68t92.5 -26q24 0 55 16t61 37q18 -16 32 -42t14 -52z" />
<glyph unicode="$" horiz-adv-x="446" d="M434 171q0 -36 -14.5 -67t-39.5 -55t-59.5 -39.5t-74.5 -20.5v-156h-59v152q-37 1 -69 7.5t-55.5 18t-37 27.5t-13.5 36q0 27 9 44.5t29 34.5q16 -13 36 -28t41 -28.5t40.5 -22.5t34.5 -9q53 0 83 15t30 51q0 20 -21.5 33t-53.5 24.5t-69 25t-69 36t-53.5 56.5t-21.5 87 q0 29 13 56t35 49.5t51 38.5t61 23v144h59v-139q34 -1 64.5 -6.5t53.5 -15.5t36.5 -25t13.5 -35q0 -28 -11 -44.5t-29 -28.5q-18 11 -37 24t-38 23.5t-37.5 17.5t-35.5 7q-90 0 -90 -57q0 -20 23.5 -32.5t58.5 -23.5q32 -12 70 -26t70.5 -35.5t54 -54.5t21.5 -82z" />
<glyph unicode="&#xa2;" horiz-adv-x="535" d="M502 475q0 -67 -58 -95q-12 14 -28 30.5t-34 31t-36 24t-34 9.5q-33 0 -58.5 -10t-43 -33.5t-27 -61.5t-9.5 -95q0 -79 40 -127.5t125 -48.5q31 0 65.5 3.5t66.5 10.5l23 -72q-32 -19 -69.5 -32.5t-85.5 -16.5v-159h-60v158q-67 2 -113.5 19.5t-75.5 52.5t-42 88t-13 127 q0 48 16.5 95t47.5 85.5t76.5 65t103.5 33.5v147h60v-145q28 -2 57 -7t52.5 -14.5t38.5 -25t15 -37.5z" />
<glyph unicode="&#xa3;" horiz-adv-x="597" d="M564 78q-7 -15 -17.5 -29t-25.5 -25t-33.5 -17.5t-41.5 -6.5h-408q-2 13 -2.5 26.5t-0.5 29.5l41 12q29 9 37.5 24.5t10.5 44.5l16 150h-76v62h83l6 57q4 41 26 78t55 65.5t73.5 45t81.5 16.5q32 0 59.5 -3.5t47.5 -12t31 -23.5t11 -37q0 -25 -15.5 -43t-35.5 -29 q-11 9 -23 21t-24 22.5t-23.5 17.5t-21.5 7q-52 0 -75.5 -29t-28.5 -77l-7 -76h161v-62h-167l-19 -187l198 9q18 1 29.5 7t22.5 17l55 -55v0z" />
<glyph unicode="&#xa5;" horiz-adv-x="669" d="M616 471q-38 -6 -46 -17q-20 -25 -40.5 -52t-40.5 -54h114v-59h-156q-30 -42 -51 -75v-18h207v-59h-207v-20l11 -117h-162l10 119v18h-192v59h192v14q-9 17 -20.5 37.5t-25.5 41.5h-146v59h108q-33 48 -64 90q-11 15 -24.5 22.5t-38.5 14.5l-5 55q41 11 84 18.5t72 7.5 q12 -14 33 -48.5t44 -76t44 -83t34 -69.5q16 27 37.5 64t45 75.5t46 74.5t40.5 61q22 -1 53 -7.5t66 -20.5z" />
<glyph unicode="&#xa4;" horiz-adv-x="523" d="M39 151l63 63q-17 20 -28 48.5t-11 60.5t10 60.5t28 49.5l-62 62l49 49l69 -69q22 11 48.5 18.5t54.5 7.5t54.5 -6t49.5 -19l68 69l50 -50l-62 -63q18 -20 28 -48.5t10 -60.5t-10.5 -60.5t-29.5 -49.5l64 -62l-50 -50l-68 69q-23 -11 -49.5 -17.5t-54.5 -6.5 q-58 0 -101 25l-70 -69zM260 237q47 0 67 25.5t20 60.5t-20.5 61.5t-66.5 26.5q-45 0 -66 -26.5t-21 -61.5t21.5 -60.5t65.5 -25.5z" />
<glyph horiz-adv-x="671" d="M431 -9q-78 0 -133 19t-91.5 51t-56.5 75.5t-29 92.5h-87v63h79q-1 14 -1 26.5v26.5q0 17 1 34.5t4 34.5h-83v63h96q15 48 40 91.5t61.5 76.5t85 52.5t110.5 19.5q44 0 81.5 -6.5t65 -19t43 -30t15.5 -38.5q0 -17 -5.5 -30.5t-14.5 -24.5t-19.5 -19t-19.5 -13 q-23 18 -41.5 35t-36 30t-34.5 20.5t-36 7.5q-41 0 -69 -10.5t-46.5 -30t-29 -48t-15.5 -63.5h225v-63h-230q-1 -16 -1 -32v-33q0 -14 0.5 -28.5t1.5 -28.5h229v-63h-220q15 -72 57 -107.5t122 -35.5q21 0 42 8t39.5 19.5t34 23t25.5 18.5q21 -20 32.5 -53t13.5 -62 q-35 -21 -82.5 -35t-122.5 -14z" />
<glyph horiz-adv-x="612" d="M39 0zM579 207q0 -52 -20 -90t-53 -64t-76 -40.5t-88 -20.5v-92h-59v89q-34 0 -70 4.5t-68.5 11.5t-60 16.5t-45.5 20.5l14 177h30h21.5t13.5 -1q3 -33 17.5 -59.5t37 -45.5t51 -30t59.5 -12v201q-38 16 -76.5 35t-70 44.5t-51.5 60t-20 82.5q0 44 18.5 81.5t49 66 t69.5 47t81 23.5v87h59v-86q58 -2 110.5 -13.5t89.5 -28.5v-149h-56q-12 51 -52.5 76.5t-91.5 30.5v-202q40 -16 82.5 -35t76.5 -44.5t56 -59.5t22 -81zM283 627q-38 -5 -62 -26.5t-24 -63.5q0 -28 24 -47.5t62 -36.5v174zM433 159q0 31 -26 51t-65 38v-173q38 8 64.5 27 t26.5 57z" />
<glyph horiz-adv-x="539" d="M33 0zM501 562q0 -39 -14 -59t-44 -35q-12 14 -28 30.5t-34 30.5t-36 23.5t-34 9.5q-33 0 -58.5 -10t-43 -33t-27 -61t-9.5 -95q0 -79 40 -128t125 -49q31 0 65.5 4t66.5 11l23 -73q-32 -18 -69.5 -31.5t-85.5 -17.5v-179h-61v178q-67 2 -113.5 19.5t-75.5 52.5t-42 88 t-13 127q0 48 16.5 95t48 85.5t76.5 65t103 33.5v154h61v-152q28 -1 57 -6t52.5 -15t38.5 -25.5t15 -37.5z" />
<glyph horiz-adv-x="597" d="M560 78q-7 -15 -18 -29t-25.5 -25t-33.5 -17.5t-41 -6.5h-409q-3 27 -3 56l48 15q24 8 31.5 23.5t9.5 42.5l23 213h-74v66h81l16 148q4 41 25.5 78t53.5 65.5t72 45t81 16.5q28 0 55.5 -3t49.5 -11t35.5 -22t13.5 -36q0 -26 -16 -45.5t-36 -30.5q-11 9 -23 21t-24 22.5 t-23.5 17.5t-21.5 7q-53 0 -76 -30t-28 -76l-17 -167h156v-66h-162l-26 -250l198 9q18 1 29.5 7t22.5 17l56 -55v0z" />
<glyph horiz-adv-x="671" d="M39 0zM617 629q-36 -4 -47 -17q-18 -22 -41.5 -57t-48 -73t-46.5 -74t-36 -60h196v-59h-197v-63l1 -30h196v-59h-194l7 -137h-162l6 137h-174v59h177l2 32v61h-179v59h178q-12 22 -31 55.5t-39.5 68.5t-41 67.5t-36.5 53.5q-11 15 -24.5 22.5t-38.5 14.5l-5 55 q41 12 84 19.5t72 7.5q8 -9 20 -29.5t26.5 -47t30 -57t30 -60.5t27 -56.5t21.5 -44.5q16 27 37.5 67t45 82.5t46.5 82t41 64.5q21 -2 52 -8t66 -20z" />
<glyph horiz-adv-x="538" d="M47 131zM47 181l63 63q-17 20 -28 48.5t-11 60.5t10 60.5t28 49.5l-62 62l49 49l69 -69q22 11 48.5 18.5t54.5 7.5t54.5 -6t49.5 -19l68 69l50 -50l-62 -63q18 -20 28 -48.5t10 -60.5t-10.5 -60.5t-29.5 -49.5l64 -62l-50 -50l-68 69q-23 -11 -49.5 -17.5t-54.5 -6.5 q-58 0 -101 25l-70 -69zM268 267q47 0 67 25.5t20 60.5t-20.5 61.5t-66.5 26.5q-45 0 -66 -26.5t-21 -61.5t21.5 -60.5t65.5 -25.5z" />
<glyph horiz-adv-x="600" d="M572 207q0 -52 -20 -90t-53 -64t-76 -40.5t-88 -20.5v-92h-59v89q-34 0 -70 4.5t-68.5 11.5t-60 16.5t-45.5 20.5l14 177h30h21.5t13.5 -1q3 -33 17.5 -59.5t37 -45.5t51 -30t59.5 -12v201q-38 16 -76.5 35t-70 44.5t-51.5 60t-20 82.5q0 44 18.5 81.5t49 66t69.5 47 t81 23.5v87h59v-86q58 -2 110.5 -13.5t89.5 -28.5v-149h-56q-12 51 -52.5 76.5t-91.5 30.5v-202q40 -16 82.5 -35t76.5 -44.5t56 -59.5t22 -81zM276 627q-38 -5 -62 -26.5t-24 -63.5q0 -28 24 -47.5t62 -36.5v174zM426 159q0 31 -26 51t-65 38v-173q38 8 64.5 27t26.5 57z " />
<glyph horiz-adv-x="600" d="M532 562q0 -39 -14 -59t-44 -35q-12 14 -28 30.5t-34 30.5t-36 23.5t-34 9.5q-33 0 -58.5 -10t-43 -33t-27 -61t-9.5 -95q0 -79 40 -128t125 -49q31 0 65.5 4t66.5 11l23 -73q-32 -18 -69.5 -31.5t-85.5 -17.5v-179h-61v178q-67 2 -113.5 19.5t-75.5 52.5t-42 88t-13 127 q0 48 16.5 95t48 85.5t76.5 65t103 33.5v154h61v-152q28 -1 57 -6t52.5 -15t38.5 -25.5t15 -37.5z" />
<glyph horiz-adv-x="600" d="M582 629q-36 -4 -47 -17q-18 -22 -41.5 -57t-48 -73t-46.5 -74t-36 -60h196v-59h-197v-63l1 -30h196v-59h-194l7 -137h-162l6 137h-174v59h177l2 32v61h-179v59h178q-12 22 -31 55.5t-39.5 68.5t-41 67.5t-36.5 53.5q-11 15 -24.5 22.5t-38.5 14.5l-5 55q41 12 84 19.5 t72 7.5q8 -9 20 -29.5t26.5 -47t30 -57t30 -60.5t27 -56.5t21.5 -44.5q16 27 37.5 67t45 82.5t46.5 82t41 64.5q21 -2 52 -8t66 -20z" />
<glyph horiz-adv-x="600" d="M447 140l-14 -240h-83l12 240h-145l-13 -240h-84l13 240h-88v84h93l12 240h-105v82h109l12 217h84l-12 -217h145l13 217h84l-13 -217h87v-82h-91l-12 -240h103v-84h-107zM234 464l-12 -240h145l12 240h-145z" />
<glyph horiz-adv-x="587" d="M40 0zM442 140l-14 -240h-83l12 240h-145l-13 -240h-84l13 240h-88v84h93l12 240h-105v82h109l12 217h84l-12 -217h145l13 217h84l-13 -217h87v-82h-91l-12 -240h103v-84h-107zM229 464l-12 -240h145l12 240h-145z" />
<glyph horiz-adv-x="750" d="M43 0zM352 -44q-150 0 -229.5 83.5t-79.5 249.5q0 121 34 208t90.5 143t130.5 82t155 26q59 0 109 -15.5t86 -50t56 -89.5t20 -133t-18 -133t-48.5 -89.5t-70.5 -50.5t-84 -16q-17 0 -32 4.5t-26.5 14.5t-17 24t-3.5 34q-20 -29 -50.5 -49.5t-60.5 -20.5q-21 0 -41 8 t-35.5 24.5t-25 42t-9.5 60.5q0 49 17.5 90.5t46.5 71.5t68 46.5t83 16.5q39 0 74.5 -8.5t52.5 -15.5l-26 -229q-6 -45 13 -45q15 0 36 8.5t40 32t32 66t13 111.5q0 67 -16 111.5t-43.5 71t-64 37.5t-78.5 11q-64 0 -124 -19t-106.5 -64.5t-74.5 -120t-28 -185.5 q0 -80 16.5 -133.5t48 -86.5t76.5 -47t103 -14q38 0 78.5 5.5t69.5 12.5l14 -55q-40 -17 -80 -21.5t-91 -4.5zM351 263q26 0 43 12.5t31 24.5l20 167q-3 1 -12.5 2.5t-13.5 1.5q-32 2 -54.5 -9t-36 -31.5t-19.5 -48t-6 -57.5q0 -34 15 -48t33 -14z" />
<glyph horiz-adv-x="762" d="M190 387q-32 0 -59.5 8t-47.5 27t-32 49t-12 75q0 40 14.5 72t37.5 54.5t53 34.5t61 12t59.5 -8t50 -26.5t34 -50t12.5 -79.5q0 -41 -14.5 -72.5t-38.5 -52.5t-54.5 -32t-63.5 -11zM201 454q37 0 54 26.5t17 74.5q0 46 -17 72t-57 26q-32 0 -51 -24t-19 -81 q0 -47 17.5 -70.5t55.5 -23.5zM558 -15q-32 0 -59.5 8t-48 27t-32.5 49t-12 75q0 40 14.5 72t38 54.5t53.5 34.5t61 12t59.5 -8t50 -26.5t34 -50t12.5 -79.5q0 -41 -14.5 -72.5t-38.5 -52.5t-55 -32t-63 -11zM568 52q37 0 54.5 26.5t17.5 74.5q0 46 -17 72t-57 26 q-32 0 -51 -24t-19 -81q0 -47 17 -70.5t55 -23.5zM82 104l539 538l52 -55l-538 -539z" />
<glyph horiz-adv-x="1128" d="M195 387q-32 0 -59.5 8t-47.5 27t-32 49t-12 75q0 40 14.5 72t37.5 54.5t53 34.5t61 12t59.5 -8t50 -26.5t34 -50t12.5 -79.5q0 -41 -14.5 -72.5t-38.5 -52.5t-54.5 -32t-63.5 -11zM206 454q37 0 54 26.5t17 74.5q0 46 -17 72t-57 26q-32 0 -51 -24t-19 -81 q0 -47 17.5 -70.5t55.5 -23.5zM563 -15q-32 0 -59.5 8t-48 27t-32.5 49t-12 75q0 40 14.5 72t38 54.5t53.5 34.5t61 12t59.5 -8t50 -26.5t34 -50t12.5 -79.5q0 -41 -14.5 -72.5t-38.5 -52.5t-55 -32t-63 -11zM573 52q37 0 54.5 26.5t17.5 74.5q0 46 -17 72t-57 26 q-32 0 -51 -24t-19 -81q0 -47 17 -70.5t55 -23.5zM929 -15q-31 0 -58.5 8t-48 27t-32.5 49t-12 75q0 40 14.5 72t37.5 54.5t53 34.5t62 12q31 0 59 -8t49.5 -26.5t34 -50t12.5 -79.5q0 -41 -14.5 -72.5t-38.5 -52.5t-54.5 -32t-63.5 -11zM940 52q37 0 54 26.5t17 74.5 q0 46 -17 72t-57 26q-32 0 -51 -24t-19 -81q0 -47 17.5 -70.5t55.5 -23.5zM87 104l539 538l52 -55l-538 -539z" />
<glyph horiz-adv-x="80" d="M0 0z" />
</font>
</defs>
</svg>
